<svg width="1920" height="161" viewBox="0 0 1920 161" fill="none" xmlns="http://www.w3.org/2000/svg">
<rect width="1920" height="161" fill="#C8A35F"/>
<path opacity="0.8" d="M599.983 78H598.712V69.5713L596.162 70.5078V69.3594L599.785 67.999H599.983V78ZM610.21 78H603.688V77.0908L607.134 73.2627C607.644 72.6839 607.995 72.2145 608.187 71.8545C608.382 71.4899 608.48 71.1139 608.48 70.7266C608.48 70.207 608.323 69.7809 608.009 69.4482C607.694 69.1156 607.275 68.9492 606.751 68.9492C606.122 68.9492 605.632 69.1292 605.281 69.4893C604.935 69.8447 604.762 70.3415 604.762 70.9795H603.497C603.497 70.0635 603.791 69.3229 604.379 68.7578C604.971 68.1927 605.762 67.9102 606.751 67.9102C607.676 67.9102 608.408 68.154 608.945 68.6416C609.483 69.1247 609.752 69.7695 609.752 70.5762C609.752 71.556 609.128 72.7227 607.879 74.0762L605.213 76.9678H610.21V78ZM613.389 72.4082H614.339C614.936 72.3991 615.405 72.2419 615.747 71.9365C616.089 71.6312 616.26 71.2188 616.26 70.6992C616.26 69.5326 615.679 68.9492 614.517 68.9492C613.97 68.9492 613.532 69.1064 613.204 69.4209C612.881 69.7308 612.719 70.1432 612.719 70.6582H611.454C611.454 69.8698 611.741 69.2158 612.315 68.6963C612.894 68.1722 613.628 67.9102 614.517 67.9102C615.455 67.9102 616.191 68.1585 616.725 68.6553C617.258 69.152 617.524 69.8424 617.524 70.7266C617.524 71.1595 617.383 71.5788 617.101 71.9844C616.823 72.39 616.442 72.693 615.959 72.8936C616.506 73.0667 616.927 73.3538 617.224 73.7549C617.524 74.1559 617.675 74.6458 617.675 75.2246C617.675 76.1178 617.383 76.8265 616.8 77.3506C616.216 77.8747 615.458 78.1367 614.523 78.1367C613.589 78.1367 612.828 77.8838 612.24 77.3779C611.657 76.8721 611.365 76.2044 611.365 75.375H612.637C612.637 75.8991 612.808 76.3184 613.149 76.6328C613.491 76.9473 613.949 77.1045 614.523 77.1045C615.134 77.1045 615.601 76.945 615.925 76.626C616.248 76.307 616.41 75.849 616.41 75.252C616.41 74.6732 616.232 74.2288 615.877 73.9189C615.521 73.609 615.009 73.4495 614.339 73.4404H613.389V72.4082ZM624.75 74.6572H626.131V75.6895H624.75V78H623.479V75.6895H618.946V74.9443L623.403 68.0469H624.75V74.6572ZM620.382 74.6572H623.479V69.7764L623.328 70.0498L620.382 74.6572ZM627.854 73.0098L628.359 68.0469H633.459V69.2158H629.433L629.132 71.9297C629.619 71.6426 630.173 71.499 630.793 71.499C631.7 71.499 632.42 71.7998 632.953 72.4014C633.486 72.9984 633.753 73.8073 633.753 74.8281C633.753 75.8535 633.475 76.6624 632.919 77.2549C632.368 77.8428 631.595 78.1367 630.602 78.1367C629.722 78.1367 629.004 77.8929 628.448 77.4053C627.892 76.9176 627.576 76.2432 627.498 75.3818H628.694C628.772 75.9515 628.975 76.3822 629.303 76.6738C629.631 76.9609 630.064 77.1045 630.602 77.1045C631.189 77.1045 631.65 76.904 631.982 76.5029C632.32 76.1019 632.488 75.5482 632.488 74.8418C632.488 74.1764 632.306 73.6432 631.941 73.2422C631.581 72.8366 631.101 72.6338 630.499 72.6338C629.948 72.6338 629.515 72.7546 629.2 72.9961L628.865 73.2695L627.854 73.0098ZM640.097 68.04V69.1133H639.864C638.88 69.1315 638.096 69.4232 637.513 69.9883C636.929 70.5534 636.592 71.3486 636.501 72.374C637.025 71.7725 637.741 71.4717 638.647 71.4717C639.513 71.4717 640.204 71.777 640.719 72.3877C641.238 72.9984 641.498 73.7868 641.498 74.7529C641.498 75.7783 641.218 76.5986 640.657 77.2139C640.101 77.8291 639.354 78.1367 638.415 78.1367C637.463 78.1367 636.69 77.7721 636.098 77.043C635.505 76.3092 635.209 75.3659 635.209 74.2129V73.7275C635.209 71.8955 635.599 70.4964 636.378 69.5303C637.162 68.5596 638.326 68.0628 639.871 68.04H640.097ZM638.436 72.5244C638.003 72.5244 637.604 72.6543 637.239 72.9141C636.875 73.1738 636.622 73.4997 636.48 73.8916V74.3564C636.48 75.1768 636.665 75.8376 637.034 76.3389C637.403 76.8402 637.864 77.0908 638.415 77.0908C638.985 77.0908 639.431 76.8812 639.755 76.4619C640.083 76.0426 640.247 75.4935 640.247 74.8145C640.247 74.1309 640.081 73.5794 639.748 73.1602C639.42 72.7363 638.982 72.5244 638.436 72.5244ZM643.084 79.9824L642.366 79.4902C642.795 78.8932 643.018 78.278 643.036 77.6445V76.5029H644.273V77.4941C644.273 77.9544 644.16 78.4147 643.932 78.875C643.708 79.3353 643.426 79.7044 643.084 79.9824ZM656.865 74.8418C656.742 75.8945 656.353 76.708 655.696 77.2822C655.045 77.8519 654.176 78.1367 653.092 78.1367C651.916 78.1367 650.973 77.7152 650.262 76.8721C649.555 76.029 649.202 74.901 649.202 73.4883V72.5312C649.202 71.6061 649.366 70.7926 649.694 70.0908C650.027 69.389 650.496 68.8512 651.103 68.4775C651.709 68.0993 652.41 67.9102 653.208 67.9102C654.265 67.9102 655.113 68.2064 655.751 68.7988C656.389 69.3867 656.76 70.2025 656.865 71.2461H655.546C655.432 70.4531 655.184 69.8789 654.801 69.5234C654.423 69.168 653.892 68.9902 653.208 68.9902C652.369 68.9902 651.711 69.3001 651.232 69.9199C650.758 70.5397 650.521 71.4215 650.521 72.5654V73.5293C650.521 74.6094 650.747 75.4684 651.198 76.1064C651.649 76.7445 652.281 77.0635 653.092 77.0635C653.821 77.0635 654.379 76.8994 654.767 76.5713C655.159 76.2386 655.418 75.6621 655.546 74.8418H656.865ZM663.031 78C662.958 77.8542 662.899 77.5944 662.854 77.2207C662.266 77.8314 661.564 78.1367 660.748 78.1367C660.019 78.1367 659.42 77.9316 658.95 77.5215C658.485 77.1068 658.253 76.5827 658.253 75.9492C658.253 75.179 658.545 74.582 659.128 74.1582C659.716 73.7298 660.541 73.5156 661.603 73.5156H662.833V72.9346C662.833 72.4925 662.701 72.1416 662.437 71.8818C662.172 71.6175 661.783 71.4854 661.268 71.4854C660.816 71.4854 660.438 71.5993 660.133 71.8271C659.827 72.055 659.675 72.3307 659.675 72.6543H658.403C658.403 72.2852 658.533 71.9297 658.793 71.5879C659.057 71.2415 659.413 70.9681 659.859 70.7676C660.311 70.5671 660.805 70.4668 661.343 70.4668C662.195 70.4668 662.863 70.681 663.346 71.1094C663.829 71.5332 664.079 72.1188 664.098 72.8662V76.2705C664.098 76.9495 664.184 77.4896 664.357 77.8906V78H663.031ZM660.933 77.0361C661.329 77.0361 661.705 76.9336 662.061 76.7285C662.416 76.5234 662.674 76.2568 662.833 75.9287V74.4111H661.842C660.292 74.4111 659.518 74.8646 659.518 75.7715C659.518 76.168 659.65 76.4779 659.914 76.7012C660.178 76.9245 660.518 77.0361 660.933 77.0361ZM672.123 78H670.858V74.8418H667.461V78H666.189V70.6035H667.461V73.8096H670.858V70.6035H672.123V78ZM676.464 74.8486H675.541V78H674.27V70.6035H675.541V73.7344H676.368L678.856 70.6035H680.388L677.462 74.1582L680.634 78H679.027L676.464 74.8486ZM687.217 71.6289H684.735V78H683.471V71.6289H681.037V70.6035H687.217V71.6289ZM691.079 74.2881H687.743V73.2559H691.079V74.2881ZM700.116 78H698.797V69.127H693.889V78H692.576V68.0469H700.116V78ZM705.38 78.1367C704.377 78.1367 703.562 77.8086 702.933 77.1523C702.304 76.4915 701.989 75.6097 701.989 74.5068V74.2744C701.989 73.5407 702.128 72.8867 702.406 72.3125C702.689 71.7337 703.081 71.2826 703.582 70.959C704.088 70.6309 704.635 70.4668 705.223 70.4668C706.184 70.4668 706.932 70.7835 707.465 71.417C707.998 72.0505 708.265 72.9574 708.265 74.1377V74.6641H703.254C703.272 75.3932 703.484 75.9834 703.89 76.4346C704.3 76.8812 704.819 77.1045 705.448 77.1045C705.895 77.1045 706.273 77.0133 706.583 76.8311C706.893 76.6488 707.164 76.4072 707.396 76.1064L708.169 76.708C707.549 77.6605 706.619 78.1367 705.38 78.1367ZM705.223 71.5059C704.712 71.5059 704.284 71.6927 703.938 72.0664C703.591 72.4355 703.377 72.9551 703.295 73.625H707V73.5293C706.964 72.8867 706.79 72.39 706.48 72.0391C706.171 71.6836 705.751 71.5059 705.223 71.5059ZM715.148 71.6289H712.667V78H711.402V71.6289H708.969V70.6035H715.148V71.6289ZM718.901 78.1367C717.899 78.1367 717.083 77.8086 716.454 77.1523C715.825 76.4915 715.511 75.6097 715.511 74.5068V74.2744C715.511 73.5407 715.65 72.8867 715.928 72.3125C716.21 71.7337 716.602 71.2826 717.104 70.959C717.609 70.6309 718.156 70.4668 718.744 70.4668C719.706 70.4668 720.453 70.7835 720.986 71.417C721.52 72.0505 721.786 72.9574 721.786 74.1377V74.6641H716.775C716.794 75.3932 717.006 75.9834 717.411 76.4346C717.821 76.8812 718.341 77.1045 718.97 77.1045C719.416 77.1045 719.795 77.0133 720.104 76.8311C720.414 76.6488 720.686 76.4072 720.918 76.1064L721.69 76.708C721.071 77.6605 720.141 78.1367 718.901 78.1367ZM718.744 71.5059C718.234 71.5059 717.805 71.6927 717.459 72.0664C717.113 72.4355 716.898 72.9551 716.816 73.625H720.521V73.5293C720.485 72.8867 720.312 72.39 720.002 72.0391C719.692 71.6836 719.273 71.5059 718.744 71.5059ZM729.504 74.3838C729.504 75.5094 729.246 76.4163 728.731 77.1045C728.216 77.7926 727.519 78.1367 726.64 78.1367C725.742 78.1367 725.035 77.8519 724.521 77.2822V80.8438H723.256V70.6035H724.411L724.473 71.4238C724.988 70.7858 725.703 70.4668 726.619 70.4668C727.508 70.4668 728.21 70.8018 728.725 71.4717C729.244 72.1416 729.504 73.0736 729.504 74.2676V74.3838ZM728.239 74.2402C728.239 73.4062 728.062 72.7477 727.706 72.2646C727.351 71.7816 726.863 71.54 726.243 71.54C725.478 71.54 724.903 71.8796 724.521 72.5586V76.0928C724.899 76.7673 725.478 77.1045 726.257 77.1045C726.863 77.1045 727.344 76.8652 727.699 76.3867C728.059 75.9036 728.239 75.1882 728.239 74.2402ZM734.364 71.0273C735.294 71.0273 736.037 71.3395 736.593 71.9639C737.153 72.5837 737.434 73.4017 737.434 74.418V74.5342C737.434 75.2314 737.299 75.8558 737.03 76.4072C736.761 76.9541 736.374 77.3802 735.868 77.6855C735.367 77.9863 734.788 78.1367 734.132 78.1367C733.138 78.1367 732.339 77.8063 731.732 77.1455C731.126 76.4801 730.823 75.5892 730.823 74.4727V73.8574C730.823 72.3034 731.11 71.0684 731.685 70.1523C732.263 69.2363 733.116 68.6781 734.241 68.4775C734.879 68.3636 735.31 68.2246 735.533 68.0605C735.757 67.8965 735.868 67.6709 735.868 67.3838H736.907C736.907 67.9535 736.777 68.3978 736.518 68.7168C736.262 69.0358 735.852 69.2614 735.287 69.3936L734.344 69.6055C733.592 69.7832 733.027 70.084 732.648 70.5078C732.275 70.9271 732.031 71.4876 731.917 72.1895C732.587 71.4147 733.403 71.0273 734.364 71.0273ZM734.118 72.0664C733.498 72.0664 733.006 72.276 732.642 72.6953C732.277 73.11 732.095 73.6865 732.095 74.4248V74.5342C732.095 75.3271 732.277 75.9561 732.642 76.4209C733.011 76.8812 733.507 77.1113 734.132 77.1113C734.761 77.1113 735.257 76.8789 735.622 76.4141C735.987 75.9492 736.169 75.2702 736.169 74.377C736.169 73.6797 735.984 73.1214 735.615 72.7021C735.251 72.2783 734.752 72.0664 734.118 72.0664ZM741.275 76.1475L742.998 70.6035H744.352L741.378 79.1416C740.918 80.3721 740.186 80.9873 739.184 80.9873L738.944 80.9668L738.473 80.8779V79.8525L738.814 79.8799C739.243 79.8799 739.576 79.7933 739.812 79.6201C740.054 79.4469 740.252 79.1302 740.407 78.6699L740.688 77.918L738.049 70.6035H739.43L741.275 76.1475ZM751.734 74.3838C751.734 75.5094 751.477 76.4163 750.962 77.1045C750.447 77.7926 749.75 78.1367 748.87 78.1367C747.972 78.1367 747.266 77.8519 746.751 77.2822V80.8438H745.486V70.6035H746.642L746.703 71.4238C747.218 70.7858 747.934 70.4668 748.85 70.4668C749.738 70.4668 750.44 70.8018 750.955 71.4717C751.475 72.1416 751.734 73.0736 751.734 74.2676V74.3838ZM750.47 74.2402C750.47 73.4062 750.292 72.7477 749.937 72.2646C749.581 71.7816 749.093 71.54 748.474 71.54C747.708 71.54 747.134 71.8796 746.751 72.5586V76.0928C747.129 76.7673 747.708 77.1045 748.487 77.1045C749.093 77.1045 749.574 76.8652 749.93 76.3867C750.29 75.9036 750.47 75.1882 750.47 74.2402ZM758.126 71.6494H754.715V78H753.443V70.6035H758.126V71.6494ZM759.186 79.9824L758.468 79.4902C758.896 78.8932 759.119 78.278 759.138 77.6445V76.5029H760.375V77.4941C760.375 77.9544 760.261 78.4147 760.033 78.875C759.81 79.3353 759.527 79.7044 759.186 79.9824ZM773.295 78H771.976V73.3994H766.958V78H765.646V68.0469H766.958V72.3262H771.976V68.0469H773.295V78ZM778.497 78.1367C777.494 78.1367 776.679 77.8086 776.05 77.1523C775.421 76.4915 775.106 75.6097 775.106 74.5068V74.2744C775.106 73.5407 775.245 72.8867 775.523 72.3125C775.806 71.7337 776.198 71.2826 776.699 70.959C777.205 70.6309 777.752 70.4668 778.34 70.4668C779.301 70.4668 780.049 70.7835 780.582 71.417C781.115 72.0505 781.382 72.9574 781.382 74.1377V74.6641H776.371C776.389 75.3932 776.601 75.9834 777.007 76.4346C777.417 76.8812 777.937 77.1045 778.565 77.1045C779.012 77.1045 779.39 77.0133 779.7 76.8311C780.01 76.6488 780.281 76.4072 780.514 76.1064L781.286 76.708C780.666 77.6605 779.737 78.1367 778.497 78.1367ZM778.34 71.5059C777.829 71.5059 777.401 71.6927 777.055 72.0664C776.708 72.4355 776.494 72.9551 776.412 73.625H780.117V73.5293C780.081 72.8867 779.908 72.39 779.598 72.0391C779.288 71.6836 778.868 71.5059 778.34 71.5059ZM782.968 78V70.6035H785.853C786.837 70.6035 787.591 70.7767 788.115 71.123C788.644 71.4648 788.908 71.9684 788.908 72.6338C788.908 72.9756 788.806 73.2855 788.601 73.5635C788.396 73.8369 788.092 74.0465 787.691 74.1924C788.138 74.2972 788.496 74.5023 788.765 74.8076C789.038 75.113 789.175 75.4775 789.175 75.9014C789.175 76.5804 788.924 77.0999 788.423 77.46C787.926 77.82 787.222 78 786.311 78H782.968ZM784.232 74.7529V76.9814H786.324C786.853 76.9814 787.247 76.8835 787.507 76.6875C787.771 76.4915 787.903 76.2158 787.903 75.8604C787.903 75.1221 787.361 74.7529 786.276 74.7529H784.232ZM784.232 73.7412H785.866C787.051 73.7412 787.644 73.3949 787.644 72.7021C787.644 72.0094 787.083 71.6517 785.962 71.6289H784.232V73.7412ZM793.816 77.1045C794.268 77.1045 794.662 76.9678 794.999 76.6943C795.336 76.4209 795.523 76.0791 795.56 75.6689H796.756C796.733 76.0928 796.587 76.4961 796.318 76.8789C796.049 77.2617 795.689 77.5671 795.238 77.7949C794.792 78.0228 794.318 78.1367 793.816 78.1367C792.809 78.1367 792.007 77.8018 791.41 77.1318C790.818 76.4574 790.521 75.5368 790.521 74.3701V74.1582C790.521 73.4382 790.654 72.7979 790.918 72.2373C791.182 71.6768 791.561 71.2415 792.053 70.9316C792.549 70.6217 793.135 70.4668 793.81 70.4668C794.639 70.4668 795.327 70.7152 795.874 71.2119C796.425 71.7087 796.719 72.3535 796.756 73.1465H795.56C795.523 72.668 795.341 72.276 795.013 71.9707C794.689 71.6608 794.288 71.5059 793.81 71.5059C793.167 71.5059 792.668 71.7383 792.312 72.2031C791.962 72.6634 791.786 73.3311 791.786 74.2061V74.4453C791.786 75.2975 791.962 75.9538 792.312 76.4141C792.663 76.8743 793.165 77.1045 793.816 77.1045ZM800.481 74.8486H799.559V78H798.287V70.6035H799.559V73.7344H800.386L802.874 70.6035H804.405L801.479 74.1582L804.651 78H803.045L800.481 74.8486ZM810.523 70.6035H811.788V78H810.523V72.6064L807.112 78H805.848V70.6035H807.112V76.0039L810.523 70.6035ZM818.604 70.6035H819.868V78H818.604V72.6064L815.192 78H813.928V70.6035H815.192V76.0039L818.604 70.6035ZM818.945 67.9102C818.945 68.4616 818.756 68.9059 818.378 69.2432C818.004 69.5758 817.512 69.7422 816.901 69.7422C816.291 69.7422 815.796 69.5736 815.418 69.2363C815.04 68.8991 814.851 68.457 814.851 67.9102H815.883C815.883 68.2292 815.969 68.4798 816.143 68.6621C816.316 68.8398 816.569 68.9287 816.901 68.9287C817.22 68.9287 817.469 68.8398 817.646 68.6621C817.829 68.4844 817.92 68.2337 817.92 67.9102H818.945ZM831.421 78H830.156V71.6494H826.752V78H825.48V70.6035H831.421V78ZM839.699 74.3838C839.699 75.5094 839.442 76.4163 838.927 77.1045C838.412 77.7926 837.715 78.1367 836.835 78.1367C835.937 78.1367 835.231 77.8519 834.716 77.2822V80.8438H833.451V70.6035H834.606L834.668 71.4238C835.183 70.7858 835.898 70.4668 836.814 70.4668C837.703 70.4668 838.405 70.8018 838.92 71.4717C839.439 72.1416 839.699 73.0736 839.699 74.2676V74.3838ZM838.435 74.2402C838.435 73.4062 838.257 72.7477 837.901 72.2646C837.546 71.7816 837.058 71.54 836.438 71.54C835.673 71.54 835.099 71.8796 834.716 72.5586V76.0928C835.094 76.7673 835.673 77.1045 836.452 77.1045C837.058 77.1045 837.539 76.8652 837.895 76.3867C838.255 75.9036 838.435 75.1882 838.435 74.2402ZM843.944 74.2881H840.608V73.2559H843.944V74.2881ZM847.485 74.8486H846.562V78H845.291V70.6035H846.562V73.7344H847.39L849.878 70.6035H851.409L848.483 74.1582L851.655 78H850.049L847.485 74.8486ZM858.238 71.6289H855.757V78H854.492V71.6289H852.059V70.6035H858.238V71.6289ZM866.968 78H865.696V69.5713L863.146 70.5078V69.3594L866.77 67.999H866.968V78ZM877.194 78H870.673V77.0908L874.118 73.2627C874.629 72.6839 874.979 72.2145 875.171 71.8545C875.367 71.4899 875.465 71.1139 875.465 70.7266C875.465 70.207 875.308 69.7809 874.993 69.4482C874.679 69.1156 874.259 68.9492 873.735 68.9492C873.106 68.9492 872.617 69.1292 872.266 69.4893C871.919 69.8447 871.746 70.3415 871.746 70.9795H870.481C870.481 70.0635 870.775 69.3229 871.363 68.7578C871.956 68.1927 872.746 67.9102 873.735 67.9102C874.66 67.9102 875.392 68.154 875.93 68.6416C876.467 69.1247 876.736 69.7695 876.736 70.5762C876.736 71.556 876.112 72.7227 874.863 74.0762L872.197 76.9678H877.194V78ZM884.96 68.7578L880.838 78H879.512L883.62 69.0859H878.233V68.0469H884.96V68.7578Z" fill="#F2F2F2"/>
<path d="M979.58 72.6611H982.355V73.8574H979.58V77.002H978.309V73.8574H975.533V72.6611H978.309V69.7559H979.58V72.6611ZM990.196 68.7578L986.074 78H984.748L988.856 69.0859H983.47V68.0469H990.196V68.7578ZM995.187 73.96C995.187 72.93 995.323 71.9411 995.597 70.9932C995.875 70.0452 996.287 69.1839 996.834 68.4092C997.381 67.6344 997.948 67.0876 998.536 66.7686L998.796 67.6025C998.131 68.113 997.584 68.8923 997.155 69.9404C996.731 70.9886 996.499 72.1621 996.458 73.4609L996.451 74.042C996.451 75.8011 996.772 77.3278 997.415 78.6221C997.802 79.3968 998.263 80.0029 998.796 80.4404L998.536 81.2129C997.93 80.8757 997.351 80.3105 996.8 79.5176C995.724 77.9681 995.187 76.1156 995.187 73.96ZM1005.93 70.6445C1005.93 71.1413 1005.79 71.5833 1005.53 71.9707C1005.27 72.3581 1004.92 72.6611 1004.47 72.8799C1004.99 73.1032 1005.4 73.429 1005.7 73.8574C1006.01 74.2858 1006.16 74.7712 1006.16 75.3135C1006.16 76.1748 1005.87 76.8607 1005.28 77.3711C1004.7 77.8815 1003.94 78.1367 1002.99 78.1367C1002.04 78.1367 1001.27 77.8815 1000.69 77.3711C1000.12 76.8561 999.828 76.1702 999.828 75.3135C999.828 74.7757 999.974 74.2904 1000.27 73.8574C1000.56 73.4245 1000.97 73.0964 1001.49 72.873C1001.05 72.6543 1000.7 72.3512 1000.44 71.9639C1000.19 71.5765 1000.06 71.1367 1000.06 70.6445C1000.06 69.806 1000.33 69.1406 1000.87 68.6484C1001.4 68.1562 1002.11 67.9102 1002.99 67.9102C1003.87 67.9102 1004.57 68.1562 1005.11 68.6484C1005.65 69.1406 1005.93 69.806 1005.93 70.6445ZM1004.89 75.2861C1004.89 74.7301 1004.72 74.2767 1004.36 73.9258C1004.01 73.5749 1003.55 73.3994 1002.98 73.3994C1002.41 73.3994 1001.95 73.5726 1001.61 73.9189C1001.26 74.2653 1001.09 74.721 1001.09 75.2861C1001.09 75.8512 1001.26 76.2956 1001.59 76.6191C1001.93 76.9427 1002.4 77.1045 1002.99 77.1045C1003.59 77.1045 1004.05 76.9427 1004.39 76.6191C1004.72 76.291 1004.89 75.8467 1004.89 75.2861ZM1002.99 68.9492C1002.5 68.9492 1002.09 69.1042 1001.78 69.4141C1001.48 69.7194 1001.33 70.1364 1001.33 70.665C1001.33 71.1709 1001.48 71.5811 1001.78 71.8955C1002.08 72.2054 1002.49 72.3604 1002.99 72.3604C1003.5 72.3604 1003.9 72.2054 1004.2 71.8955C1004.51 71.5811 1004.66 71.1709 1004.66 70.665C1004.66 70.1592 1004.5 69.7467 1004.19 69.4277C1003.88 69.1087 1003.48 68.9492 1002.99 68.9492ZM1011.91 78H1010.64V69.5713L1008.09 70.5078V69.3594L1011.71 67.999H1011.91V78ZM1022.13 78H1015.61V77.0908L1019.06 73.2627C1019.57 72.6839 1019.92 72.2145 1020.11 71.8545C1020.31 71.4899 1020.4 71.1139 1020.4 70.7266C1020.4 70.207 1020.25 69.7809 1019.93 69.4482C1019.62 69.1156 1019.2 68.9492 1018.67 68.9492C1018.05 68.9492 1017.56 69.1292 1017.21 69.4893C1016.86 69.8447 1016.69 70.3415 1016.69 70.9795H1015.42C1015.42 70.0635 1015.71 69.3229 1016.3 68.7578C1016.9 68.1927 1017.69 67.9102 1018.67 67.9102C1019.6 67.9102 1020.33 68.154 1020.87 68.6416C1021.41 69.1247 1021.68 69.7695 1021.68 70.5762C1021.68 71.556 1021.05 72.7227 1019.8 74.0762L1017.14 76.9678H1022.13V78ZM1026.52 74.0283C1026.52 75.0446 1026.39 76.0199 1026.12 76.9541C1025.85 77.8838 1025.45 78.7428 1024.9 79.5312C1024.35 80.3197 1023.77 80.8802 1023.17 81.2129L1022.91 80.4404C1023.61 79.9027 1024.17 79.0687 1024.59 77.9385C1025.02 76.8037 1025.24 75.5459 1025.25 74.165V73.9463C1025.25 72.9893 1025.15 72.1006 1024.95 71.2803C1024.75 70.4554 1024.47 69.7171 1024.11 69.0654C1023.75 68.4137 1023.35 67.9056 1022.91 67.541L1023.17 66.7686C1023.77 67.1012 1024.35 67.6572 1024.89 68.4365C1025.44 69.2158 1025.84 70.0749 1026.11 71.0137C1026.39 71.9525 1026.52 72.9574 1026.52 74.0283ZM1033.65 72.4082H1034.6C1035.2 72.3991 1035.67 72.2419 1036.01 71.9365C1036.35 71.6312 1036.52 71.2188 1036.52 70.6992C1036.52 69.5326 1035.94 68.9492 1034.78 68.9492C1034.23 68.9492 1033.8 69.1064 1033.47 69.4209C1033.14 69.7308 1032.98 70.1432 1032.98 70.6582H1031.72C1031.72 69.8698 1032 69.2158 1032.58 68.6963C1033.16 68.1722 1033.89 67.9102 1034.78 67.9102C1035.72 67.9102 1036.46 68.1585 1036.99 68.6553C1037.52 69.152 1037.79 69.8424 1037.79 70.7266C1037.79 71.1595 1037.65 71.5788 1037.36 71.9844C1037.09 72.39 1036.71 72.693 1036.22 72.8936C1036.77 73.0667 1037.19 73.3538 1037.49 73.7549C1037.79 74.1559 1037.94 74.6458 1037.94 75.2246C1037.94 76.1178 1037.65 76.8265 1037.06 77.3506C1036.48 77.8747 1035.72 78.1367 1034.79 78.1367C1033.85 78.1367 1033.09 77.8838 1032.5 77.3779C1031.92 76.8721 1031.63 76.2044 1031.63 75.375H1032.9C1032.9 75.8991 1033.07 76.3184 1033.41 76.6328C1033.75 76.9473 1034.21 77.1045 1034.79 77.1045C1035.4 77.1045 1035.86 76.945 1036.19 76.626C1036.51 76.307 1036.67 75.849 1036.67 75.252C1036.67 74.6732 1036.5 74.2288 1036.14 73.9189C1035.79 73.609 1035.27 73.4495 1034.6 73.4404H1033.65V72.4082ZM1045.01 74.6572H1046.39V75.6895H1045.01V78H1043.74V75.6895H1039.21V74.9443L1043.67 68.0469H1045.01V74.6572ZM1040.65 74.6572H1043.74V69.7764L1043.59 70.0498L1040.65 74.6572ZM1052.88 74.6572H1054.26V75.6895H1052.88V78H1051.6V75.6895H1047.07V74.9443L1051.53 68.0469H1052.88V74.6572ZM1048.51 74.6572H1051.6V69.7764L1051.45 70.0498L1048.51 74.6572ZM1058.16 74.2881H1054.82V73.2559H1058.16V74.2881ZM1059.85 73.0098L1060.35 68.0469H1065.45V69.2158H1061.43L1061.13 71.9297C1061.61 71.6426 1062.17 71.499 1062.79 71.499C1063.69 71.499 1064.41 71.7998 1064.95 72.4014C1065.48 72.9984 1065.75 73.8073 1065.75 74.8281C1065.75 75.8535 1065.47 76.6624 1064.91 77.2549C1064.36 77.8428 1063.59 78.1367 1062.6 78.1367C1061.72 78.1367 1061 77.8929 1060.44 77.4053C1059.89 76.9176 1059.57 76.2432 1059.49 75.3818H1060.69C1060.77 75.9515 1060.97 76.3822 1061.3 76.6738C1061.62 76.9609 1062.06 77.1045 1062.6 77.1045C1063.18 77.1045 1063.64 76.904 1063.98 76.5029C1064.31 76.1019 1064.48 75.5482 1064.48 74.8418C1064.48 74.1764 1064.3 73.6432 1063.94 73.2422C1063.58 72.8366 1063.09 72.6338 1062.49 72.6338C1061.94 72.6338 1061.51 72.7546 1061.19 72.9961L1060.86 73.2695L1059.85 73.0098ZM1072.09 68.04V69.1133H1071.86C1070.87 69.1315 1070.09 69.4232 1069.51 69.9883C1068.92 70.5534 1068.59 71.3486 1068.5 72.374C1069.02 71.7725 1069.73 71.4717 1070.64 71.4717C1071.51 71.4717 1072.2 71.777 1072.71 72.3877C1073.23 72.9984 1073.49 73.7868 1073.49 74.7529C1073.49 75.7783 1073.21 76.5986 1072.65 77.2139C1072.1 77.8291 1071.35 78.1367 1070.41 78.1367C1069.46 78.1367 1068.68 77.7721 1068.09 77.043C1067.5 76.3092 1067.2 75.3659 1067.2 74.2129V73.7275C1067.2 71.8955 1067.59 70.4964 1068.37 69.5303C1069.16 68.5596 1070.32 68.0628 1071.87 68.04H1072.09ZM1070.43 72.5244C1070 72.5244 1069.6 72.6543 1069.23 72.9141C1068.87 73.1738 1068.62 73.4997 1068.47 73.8916V74.3564C1068.47 75.1768 1068.66 75.8376 1069.03 76.3389C1069.4 76.8402 1069.86 77.0908 1070.41 77.0908C1070.98 77.0908 1071.43 76.8812 1071.75 76.4619C1072.08 76.0426 1072.24 75.4935 1072.24 74.8145C1072.24 74.1309 1072.07 73.5794 1071.74 73.1602C1071.41 72.7363 1070.98 72.5244 1070.43 72.5244ZM1077.75 74.2881H1074.42V73.2559H1077.75V74.2881ZM1083.82 68.04V69.1133H1083.59C1082.6 69.1315 1081.82 69.4232 1081.24 69.9883C1080.65 70.5534 1080.32 71.3486 1080.23 72.374C1080.75 71.7725 1081.47 71.4717 1082.37 71.4717C1083.24 71.4717 1083.93 71.777 1084.44 72.3877C1084.96 72.9984 1085.22 73.7868 1085.22 74.7529C1085.22 75.7783 1084.94 76.5986 1084.38 77.2139C1083.83 77.8291 1083.08 78.1367 1082.14 78.1367C1081.19 78.1367 1080.41 77.7721 1079.82 77.043C1079.23 76.3092 1078.93 75.3659 1078.93 74.2129V73.7275C1078.93 71.8955 1079.32 70.4964 1080.1 69.5303C1080.89 68.5596 1082.05 68.0628 1083.6 68.04H1083.82ZM1082.16 72.5244C1081.73 72.5244 1081.33 72.6543 1080.96 72.9141C1080.6 73.1738 1080.35 73.4997 1080.21 73.8916V74.3564C1080.21 75.1768 1080.39 75.8376 1080.76 76.3389C1081.13 76.8402 1081.59 77.0908 1082.14 77.0908C1082.71 77.0908 1083.16 76.8812 1083.48 76.4619C1083.81 76.0426 1083.97 75.4935 1083.97 74.8145C1083.97 74.1309 1083.81 73.5794 1083.47 73.1602C1083.14 72.7363 1082.71 72.5244 1082.16 72.5244ZM1087.3 73.0098L1087.81 68.0469H1092.91V69.2158H1088.88L1088.58 71.9297C1089.07 71.6426 1089.62 71.499 1090.24 71.499C1091.15 71.499 1091.87 71.7998 1092.4 72.4014C1092.93 72.9984 1093.2 73.8073 1093.2 74.8281C1093.2 75.8535 1092.92 76.6624 1092.37 77.2549C1091.81 77.8428 1091.04 78.1367 1090.05 78.1367C1089.17 78.1367 1088.45 77.8929 1087.9 77.4053C1087.34 76.9176 1087.02 76.2432 1086.95 75.3818H1088.14C1088.22 75.9515 1088.42 76.3822 1088.75 76.6738C1089.08 76.9609 1089.51 77.1045 1090.05 77.1045C1090.64 77.1045 1091.1 76.904 1091.43 76.5029C1091.77 76.1019 1091.94 75.5482 1091.94 74.8418C1091.94 74.1764 1091.75 73.6432 1091.39 73.2422C1091.03 72.8366 1090.55 72.6338 1089.95 72.6338C1089.39 72.6338 1088.96 72.7546 1088.65 72.9961L1088.31 73.2695L1087.3 73.0098Z" fill="#F2F2F2"/>
<path d="M1346.81 97.1035V101H1345.5V91.0469H1349.17C1350.26 91.0469 1351.11 91.3249 1351.72 91.8809C1352.34 92.4368 1352.65 93.1729 1352.65 94.0889C1352.65 95.055 1352.35 95.8001 1351.75 96.3242C1351.14 96.8438 1350.28 97.1035 1349.15 97.1035H1346.81ZM1346.81 96.0303H1349.17C1349.87 96.0303 1350.41 95.8662 1350.78 95.5381C1351.15 95.2054 1351.34 94.7269 1351.34 94.1025C1351.34 93.5101 1351.15 93.0361 1350.78 92.6807C1350.41 92.3252 1349.89 92.1406 1349.24 92.127H1346.81V96.0303ZM1358.62 101C1358.54 100.854 1358.48 100.594 1358.44 100.221C1357.85 100.831 1357.15 101.137 1356.33 101.137C1355.6 101.137 1355 100.932 1354.53 100.521C1354.07 100.107 1353.84 99.5827 1353.84 98.9492C1353.84 98.179 1354.13 97.582 1354.71 97.1582C1355.3 96.7298 1356.12 96.5156 1357.19 96.5156H1358.42V95.9346C1358.42 95.4925 1358.28 95.1416 1358.02 94.8818C1357.76 94.6175 1357.37 94.4854 1356.85 94.4854C1356.4 94.4854 1356.02 94.5993 1355.72 94.8271C1355.41 95.055 1355.26 95.3307 1355.26 95.6543H1353.99C1353.99 95.2852 1354.12 94.9297 1354.38 94.5879C1354.64 94.2415 1355 93.9681 1355.44 93.7676C1355.89 93.5671 1356.39 93.4668 1356.93 93.4668C1357.78 93.4668 1358.45 93.681 1358.93 94.1094C1359.41 94.5332 1359.66 95.1188 1359.68 95.8662V99.2705C1359.68 99.9495 1359.77 100.49 1359.94 100.891V101H1358.62ZM1356.52 100.036C1356.91 100.036 1357.29 99.9336 1357.64 99.7285C1358 99.5234 1358.26 99.2568 1358.42 98.9287V97.4111H1357.43C1355.88 97.4111 1355.1 97.8646 1355.1 98.7715C1355.1 99.168 1355.23 99.4779 1355.5 99.7012C1355.76 99.9245 1356.1 100.036 1356.52 100.036ZM1365.73 95.627C1365.73 95.2806 1365.6 95.0072 1365.33 94.8066C1365.07 94.6016 1364.71 94.499 1364.25 94.499C1363.8 94.499 1363.43 94.6152 1363.13 94.8477C1362.83 95.0801 1362.68 95.3535 1362.68 95.668H1361.42C1361.42 95.0254 1361.69 94.499 1362.23 94.0889C1362.77 93.6787 1363.44 93.4736 1364.25 93.4736C1365.11 93.4736 1365.79 93.6605 1366.27 94.0342C1366.75 94.4033 1367 94.932 1367 95.6201C1367 95.9528 1366.9 96.2581 1366.7 96.5361C1366.49 96.8141 1366.21 97.0352 1365.84 97.1992C1366.7 97.4909 1367.13 98.0651 1367.13 98.9219C1367.13 99.6009 1366.87 100.139 1366.35 100.535C1365.82 100.932 1365.12 101.13 1364.25 101.13C1363.4 101.13 1362.69 100.923 1362.14 100.508C1361.58 100.089 1361.31 99.5234 1361.31 98.8125H1362.57C1362.57 99.1725 1362.73 99.4824 1363.04 99.7422C1363.37 99.9974 1363.77 100.125 1364.25 100.125C1364.73 100.125 1365.12 100.013 1365.42 99.79C1365.71 99.5667 1365.86 99.2773 1365.86 98.9219C1365.86 98.5072 1365.74 98.2109 1365.49 98.0332C1365.24 97.8509 1364.85 97.7598 1364.33 97.7598H1363.07V96.6934H1364.44C1365.3 96.6706 1365.73 96.3151 1365.73 95.627ZM1375.02 97.3838C1375.02 98.5094 1374.76 99.4163 1374.25 100.104C1373.73 100.793 1373.04 101.137 1372.16 101.137C1371.26 101.137 1370.55 100.852 1370.04 100.282V103.844H1368.77V93.6035H1369.93L1369.99 94.4238C1370.51 93.7858 1371.22 93.4668 1372.14 93.4668C1373.03 93.4668 1373.73 93.8018 1374.24 94.4717C1374.76 95.1416 1375.02 96.0736 1375.02 97.2676V97.3838ZM1373.76 97.2402C1373.76 96.4062 1373.58 95.7477 1373.22 95.2646C1372.87 94.7816 1372.38 94.54 1371.76 94.54C1371 94.54 1370.42 94.8796 1370.04 95.5586V99.0928C1370.42 99.7673 1371 100.104 1371.77 100.104C1372.38 100.104 1372.86 99.8652 1373.22 99.3867C1373.58 98.9036 1373.76 98.1882 1373.76 97.2402ZM1381.2 101C1381.13 100.854 1381.07 100.594 1381.02 100.221C1380.44 100.831 1379.73 101.137 1378.92 101.137C1378.19 101.137 1377.59 100.932 1377.12 100.521C1376.66 100.107 1376.42 99.5827 1376.42 98.9492C1376.42 98.179 1376.71 97.582 1377.3 97.1582C1377.89 96.7298 1378.71 96.5156 1379.77 96.5156H1381V95.9346C1381 95.4925 1380.87 95.1416 1380.61 94.8818C1380.34 94.6175 1379.95 94.4854 1379.44 94.4854C1378.99 94.4854 1378.61 94.5993 1378.3 94.8271C1378 95.055 1377.84 95.3307 1377.84 95.6543H1376.57C1376.57 95.2852 1376.7 94.9297 1376.96 94.5879C1377.23 94.2415 1377.58 93.9681 1378.03 93.7676C1378.48 93.5671 1378.97 93.4668 1379.51 93.4668C1380.36 93.4668 1381.03 93.681 1381.52 94.1094C1382 94.5332 1382.25 95.1188 1382.27 95.8662V99.2705C1382.27 99.9495 1382.35 100.49 1382.53 100.891V101H1381.2ZM1379.1 100.036C1379.5 100.036 1379.88 99.9336 1380.23 99.7285C1380.59 99.5234 1380.84 99.2568 1381 98.9287V97.4111H1380.01C1378.46 97.4111 1377.69 97.8646 1377.69 98.7715C1377.69 99.168 1377.82 99.4779 1378.08 99.7012C1378.35 99.9245 1378.69 100.036 1379.1 100.036ZM1387.5 94.0273C1388.43 94.0273 1389.17 94.3395 1389.73 94.9639C1390.29 95.5837 1390.57 96.4017 1390.57 97.418V97.5342C1390.57 98.2314 1390.43 98.8558 1390.16 99.4072C1389.89 99.9541 1389.51 100.38 1389 100.686C1388.5 100.986 1387.92 101.137 1387.26 101.137C1386.27 101.137 1385.47 100.806 1384.87 100.146C1384.26 99.4801 1383.96 98.5892 1383.96 97.4727V96.8574C1383.96 95.3034 1384.24 94.0684 1384.82 93.1523C1385.4 92.2363 1386.25 91.6781 1387.37 91.4775C1388.01 91.3636 1388.44 91.2246 1388.67 91.0605C1388.89 90.8965 1389 90.6709 1389 90.3838H1390.04C1390.04 90.9535 1389.91 91.3978 1389.65 91.7168C1389.4 92.0358 1388.99 92.2614 1388.42 92.3936L1387.48 92.6055C1386.72 92.7832 1386.16 93.084 1385.78 93.5078C1385.41 93.9271 1385.16 94.4876 1385.05 95.1895C1385.72 94.4147 1386.54 94.0273 1387.5 94.0273ZM1387.25 95.0664C1386.63 95.0664 1386.14 95.276 1385.77 95.6953C1385.41 96.11 1385.23 96.6865 1385.23 97.4248V97.5342C1385.23 98.3271 1385.41 98.9561 1385.77 99.4209C1386.14 99.8812 1386.64 100.111 1387.26 100.111C1387.89 100.111 1388.39 99.8789 1388.75 99.4141C1389.12 98.9492 1389.3 98.2702 1389.3 97.377C1389.3 96.6797 1389.12 96.1214 1388.75 95.7021C1388.38 95.2783 1387.88 95.0664 1387.25 95.0664ZM1391.65 97.2334C1391.65 96.5088 1391.79 95.8571 1392.08 95.2783C1392.36 94.6995 1392.76 94.2529 1393.27 93.9385C1393.78 93.624 1394.36 93.4668 1395.01 93.4668C1396.02 93.4668 1396.83 93.8154 1397.45 94.5127C1398.07 95.21 1398.39 96.1374 1398.39 97.2949V97.3838C1398.39 98.1038 1398.25 98.751 1397.97 99.3252C1397.7 99.8949 1397.3 100.339 1396.79 100.658C1396.28 100.977 1395.69 101.137 1395.02 101.137C1394.02 101.137 1393.21 100.788 1392.58 100.091C1391.96 99.3936 1391.65 98.4707 1391.65 97.3223V97.2334ZM1392.92 97.3838C1392.92 98.2041 1393.11 98.8626 1393.49 99.3594C1393.88 99.8561 1394.39 100.104 1395.02 100.104C1395.67 100.104 1396.18 99.8538 1396.55 99.3525C1396.93 98.8467 1397.12 98.1403 1397.12 97.2334C1397.12 96.4222 1396.93 95.766 1396.54 95.2646C1396.16 94.7588 1395.65 94.5059 1395.01 94.5059C1394.39 94.5059 1393.88 94.7542 1393.5 95.251C1393.12 95.7477 1392.92 96.4587 1392.92 97.3838ZM1405.32 94.6289H1402.84V101H1401.57V94.6289H1399.14V93.6035H1405.32V94.6289ZM1411.01 101C1410.93 100.854 1410.87 100.594 1410.83 100.221C1410.24 100.831 1409.54 101.137 1408.72 101.137C1407.99 101.137 1407.39 100.932 1406.92 100.521C1406.46 100.107 1406.23 99.5827 1406.23 98.9492C1406.23 98.179 1406.52 97.582 1407.1 97.1582C1407.69 96.7298 1408.52 96.5156 1409.58 96.5156H1410.81V95.9346C1410.81 95.4925 1410.68 95.1416 1410.41 94.8818C1410.15 94.6175 1409.76 94.4854 1409.24 94.4854C1408.79 94.4854 1408.41 94.5993 1408.11 94.8271C1407.8 95.055 1407.65 95.3307 1407.65 95.6543H1406.38C1406.38 95.2852 1406.51 94.9297 1406.77 94.5879C1407.03 94.2415 1407.39 93.9681 1407.83 93.7676C1408.29 93.5671 1408.78 93.4668 1409.32 93.4668C1410.17 93.4668 1410.84 93.681 1411.32 94.1094C1411.8 94.5332 1412.05 95.1188 1412.07 95.8662V99.2705C1412.07 99.9495 1412.16 100.49 1412.33 100.891V101H1411.01ZM1408.91 100.036C1409.3 100.036 1409.68 99.9336 1410.04 99.7285C1410.39 99.5234 1410.65 99.2568 1410.81 98.9287V97.4111H1409.82C1408.27 97.4111 1407.49 97.8646 1407.49 98.7715C1407.49 99.168 1407.62 99.4779 1407.89 99.7012C1408.15 99.9245 1408.49 100.036 1408.91 100.036ZM1420.1 101H1418.83V97.8418H1415.44V101H1414.16V93.6035H1415.44V96.8096H1418.83V93.6035H1420.1V101ZM1421.8 97.2334C1421.8 96.5088 1421.94 95.8571 1422.22 95.2783C1422.51 94.6995 1422.91 94.2529 1423.41 93.9385C1423.92 93.624 1424.5 93.4668 1425.16 93.4668C1426.16 93.4668 1426.98 93.8154 1427.6 94.5127C1428.22 95.21 1428.53 96.1374 1428.53 97.2949V97.3838C1428.53 98.1038 1428.39 98.751 1428.12 99.3252C1427.84 99.8949 1427.45 100.339 1426.93 100.658C1426.42 100.977 1425.84 101.137 1425.17 101.137C1424.17 101.137 1423.35 100.788 1422.73 100.091C1422.11 99.3936 1421.8 98.4707 1421.8 97.3223V97.2334ZM1423.07 97.3838C1423.07 98.2041 1423.26 98.8626 1423.64 99.3594C1424.02 99.8561 1424.53 100.104 1425.17 100.104C1425.81 100.104 1426.32 99.8538 1426.7 99.3525C1427.08 98.8467 1427.27 98.1403 1427.27 97.2334C1427.27 96.4222 1427.07 95.766 1426.69 95.2646C1426.3 94.7588 1425.79 94.5059 1425.16 94.5059C1424.53 94.5059 1424.03 94.7542 1423.65 95.251C1423.26 95.7477 1423.07 96.4587 1423.07 97.3838ZM1436.22 97.2881H1432.89V96.2559H1436.22V97.2881ZM1441.13 101V91.0469H1443.94C1444.81 91.0469 1445.57 91.2383 1446.24 91.6211C1446.9 92.0039 1447.42 92.5485 1447.78 93.2549C1448.14 93.9613 1448.33 94.7725 1448.33 95.6885V96.3242C1448.33 97.263 1448.15 98.0856 1447.78 98.792C1447.42 99.4984 1446.91 100.041 1446.23 100.419C1445.56 100.797 1444.78 100.991 1443.89 101H1441.13ZM1442.44 92.127V99.9268H1443.83C1444.84 99.9268 1445.62 99.6123 1446.18 98.9834C1446.75 98.3545 1447.03 97.459 1447.03 96.2969V95.7158C1447.03 94.5856 1446.76 93.7083 1446.23 93.084C1445.7 92.4551 1444.95 92.1361 1443.98 92.127H1442.44ZM1452.75 97.2881H1449.42V96.2559H1452.75V97.2881ZM1459.81 96.3994H1455.5V99.9268H1460.51V101H1454.19V91.0469H1460.44V92.127H1455.5V95.3262H1459.81V96.3994ZM1464.58 97.2881H1461.24V96.2559H1464.58V97.2881ZM1473.66 101H1472.34L1467.33 93.3301V101H1466.01V91.0469H1467.33L1472.36 98.751V91.0469H1473.66V101ZM1475.82 100.337C1475.82 100.118 1475.89 99.9359 1476.02 99.79C1476.15 99.6442 1476.34 99.5713 1476.6 99.5713C1476.86 99.5713 1477.06 99.6442 1477.19 99.79C1477.33 99.9359 1477.4 100.118 1477.4 100.337C1477.4 100.547 1477.33 100.722 1477.19 100.863C1477.06 101.005 1476.86 101.075 1476.6 101.075C1476.34 101.075 1476.15 101.005 1476.02 100.863C1475.89 100.722 1475.82 100.547 1475.82 100.337ZM1483.06 94.7383C1482.87 94.7064 1482.66 94.6904 1482.44 94.6904C1481.61 94.6904 1481.05 95.0436 1480.75 95.75V101H1479.49V93.6035H1480.72L1480.74 94.458C1481.15 93.7972 1481.74 93.4668 1482.5 93.4668C1482.75 93.4668 1482.94 93.4987 1483.06 93.5625V94.7383ZM1488.8 100.269C1488.31 100.847 1487.58 101.137 1486.63 101.137C1485.84 101.137 1485.24 100.909 1484.83 100.453C1484.42 99.9928 1484.21 99.3138 1484.21 98.416V93.6035H1485.47V98.3818C1485.47 99.5029 1485.93 100.063 1486.84 100.063C1487.8 100.063 1488.45 99.7035 1488.76 98.9834V93.6035H1490.03V101H1488.83L1488.8 100.269Z" fill="#2F343A"/>
<path d="M1344.34 102.367H1490.99V103.051H1344.34V102.367Z" fill="#2F343A"/>
<path d="M979.58 95.6611H982.355V96.8574H979.58V100.002H978.309V96.8574H975.533V95.6611H978.309V92.7559H979.58V95.6611ZM990.196 91.7578L986.074 101H984.748L988.856 92.0859H983.47V91.0469H990.196V91.7578ZM995.187 96.96C995.187 95.93 995.323 94.9411 995.597 93.9932C995.875 93.0452 996.287 92.1839 996.834 91.4092C997.381 90.6344 997.948 90.0876 998.536 89.7686L998.796 90.6025C998.131 91.113 997.584 91.8923 997.155 92.9404C996.731 93.9886 996.499 95.1621 996.458 96.4609L996.451 97.042C996.451 98.8011 996.772 100.328 997.415 101.622C997.802 102.397 998.263 103.003 998.796 103.44L998.536 104.213C997.93 103.876 997.351 103.311 996.8 102.518C995.724 100.968 995.187 99.1156 995.187 96.96ZM1005.93 93.6445C1005.93 94.1413 1005.79 94.5833 1005.53 94.9707C1005.27 95.3581 1004.92 95.6611 1004.47 95.8799C1004.99 96.1032 1005.4 96.429 1005.7 96.8574C1006.01 97.2858 1006.16 97.7712 1006.16 98.3135C1006.16 99.1748 1005.87 99.8607 1005.28 100.371C1004.7 100.882 1003.94 101.137 1002.99 101.137C1002.04 101.137 1001.27 100.882 1000.69 100.371C1000.12 99.8561 999.828 99.1702 999.828 98.3135C999.828 97.7757 999.974 97.2904 1000.27 96.8574C1000.56 96.4245 1000.97 96.0964 1001.49 95.873C1001.05 95.6543 1000.7 95.3512 1000.44 94.9639C1000.19 94.5765 1000.06 94.1367 1000.06 93.6445C1000.06 92.806 1000.33 92.1406 1000.87 91.6484C1001.4 91.1562 1002.11 90.9102 1002.99 90.9102C1003.87 90.9102 1004.57 91.1562 1005.11 91.6484C1005.65 92.1406 1005.93 92.806 1005.93 93.6445ZM1004.89 98.2861C1004.89 97.7301 1004.72 97.2767 1004.36 96.9258C1004.01 96.5749 1003.55 96.3994 1002.98 96.3994C1002.41 96.3994 1001.95 96.5726 1001.61 96.9189C1001.26 97.2653 1001.09 97.721 1001.09 98.2861C1001.09 98.8512 1001.26 99.2956 1001.59 99.6191C1001.93 99.9427 1002.4 100.104 1002.99 100.104C1003.59 100.104 1004.05 99.9427 1004.39 99.6191C1004.72 99.291 1004.89 98.8467 1004.89 98.2861ZM1002.99 91.9492C1002.5 91.9492 1002.09 92.1042 1001.78 92.4141C1001.48 92.7194 1001.33 93.1364 1001.33 93.665C1001.33 94.1709 1001.48 94.5811 1001.78 94.8955C1002.08 95.2054 1002.49 95.3604 1002.99 95.3604C1003.5 95.3604 1003.9 95.2054 1004.2 94.8955C1004.51 94.5811 1004.66 94.1709 1004.66 93.665C1004.66 93.1592 1004.5 92.7467 1004.19 92.4277C1003.88 92.1087 1003.48 91.9492 1002.99 91.9492ZM1011.91 101H1010.64V92.5713L1008.09 93.5078V92.3594L1011.71 90.999H1011.91V101ZM1022.13 101H1015.61V100.091L1019.06 96.2627C1019.57 95.6839 1019.92 95.2145 1020.11 94.8545C1020.31 94.4899 1020.4 94.1139 1020.4 93.7266C1020.4 93.207 1020.25 92.7809 1019.93 92.4482C1019.62 92.1156 1019.2 91.9492 1018.67 91.9492C1018.05 91.9492 1017.56 92.1292 1017.21 92.4893C1016.86 92.8447 1016.69 93.3415 1016.69 93.9795H1015.42C1015.42 93.0635 1015.71 92.3229 1016.3 91.7578C1016.9 91.1927 1017.69 90.9102 1018.67 90.9102C1019.6 90.9102 1020.33 91.154 1020.87 91.6416C1021.41 92.1247 1021.68 92.7695 1021.68 93.5762C1021.68 94.556 1021.05 95.7227 1019.8 97.0762L1017.14 99.9678H1022.13V101ZM1026.52 97.0283C1026.52 98.0446 1026.39 99.0199 1026.12 99.9541C1025.85 100.884 1025.45 101.743 1024.9 102.531C1024.35 103.32 1023.77 103.88 1023.17 104.213L1022.91 103.44C1023.61 102.903 1024.17 102.069 1024.59 100.938C1025.02 99.8037 1025.24 98.5459 1025.25 97.165V96.9463C1025.25 95.9893 1025.15 95.1006 1024.95 94.2803C1024.75 93.4554 1024.47 92.7171 1024.11 92.0654C1023.75 91.4137 1023.35 90.9056 1022.91 90.541L1023.17 89.7686C1023.77 90.1012 1024.35 90.6572 1024.89 91.4365C1025.44 92.2158 1025.84 93.0749 1026.11 94.0137C1026.39 94.9525 1026.52 95.9574 1026.52 97.0283ZM1033.65 95.4082H1034.6C1035.2 95.3991 1035.67 95.2419 1036.01 94.9365C1036.35 94.6312 1036.52 94.2188 1036.52 93.6992C1036.52 92.5326 1035.94 91.9492 1034.78 91.9492C1034.23 91.9492 1033.8 92.1064 1033.47 92.4209C1033.14 92.7308 1032.98 93.1432 1032.98 93.6582H1031.72C1031.72 92.8698 1032 92.2158 1032.58 91.6963C1033.16 91.1722 1033.89 90.9102 1034.78 90.9102C1035.72 90.9102 1036.46 91.1585 1036.99 91.6553C1037.52 92.152 1037.79 92.8424 1037.79 93.7266C1037.79 94.1595 1037.65 94.5788 1037.36 94.9844C1037.09 95.39 1036.71 95.693 1036.22 95.8936C1036.77 96.0667 1037.19 96.3538 1037.49 96.7549C1037.79 97.1559 1037.94 97.6458 1037.94 98.2246C1037.94 99.1178 1037.65 99.8265 1037.06 100.351C1036.48 100.875 1035.72 101.137 1034.79 101.137C1033.85 101.137 1033.09 100.884 1032.5 100.378C1031.92 99.8721 1031.63 99.2044 1031.63 98.375H1032.9C1032.9 98.8991 1033.07 99.3184 1033.41 99.6328C1033.75 99.9473 1034.21 100.104 1034.79 100.104C1035.4 100.104 1035.86 99.945 1036.19 99.626C1036.51 99.307 1036.67 98.849 1036.67 98.252C1036.67 97.6732 1036.5 97.2288 1036.14 96.9189C1035.79 96.609 1035.27 96.4495 1034.6 96.4404H1033.65V95.4082ZM1040.26 96.0098L1040.76 91.0469H1045.86V92.2158H1041.83L1041.53 94.9297C1042.02 94.6426 1042.58 94.499 1043.2 94.499C1044.1 94.499 1044.82 94.7998 1045.36 95.4014C1045.89 95.9984 1046.16 96.8073 1046.16 97.8281C1046.16 98.8535 1045.88 99.6624 1045.32 100.255C1044.77 100.843 1044 101.137 1043 101.137C1042.12 101.137 1041.41 100.893 1040.85 100.405C1040.29 99.9176 1039.98 99.2432 1039.9 98.3818H1041.1C1041.17 98.9515 1041.38 99.3822 1041.71 99.6738C1042.03 99.9609 1042.47 100.104 1043 100.104C1043.59 100.104 1044.05 99.904 1044.38 99.5029C1044.72 99.1019 1044.89 98.5482 1044.89 97.8418C1044.89 97.1764 1044.71 96.6432 1044.34 96.2422C1043.98 95.8366 1043.5 95.6338 1042.9 95.6338C1042.35 95.6338 1041.92 95.7546 1041.6 95.9961L1041.27 96.2695L1040.26 96.0098ZM1048.12 96.0098L1048.62 91.0469H1053.72V92.2158H1049.7L1049.4 94.9297C1049.88 94.6426 1050.44 94.499 1051.06 94.499C1051.96 94.499 1052.68 94.7998 1053.22 95.4014C1053.75 95.9984 1054.02 96.8073 1054.02 97.8281C1054.02 98.8535 1053.74 99.6624 1053.18 100.255C1052.63 100.843 1051.86 101.137 1050.87 101.137C1049.99 101.137 1049.27 100.893 1048.71 100.405C1048.16 99.9176 1047.84 99.2432 1047.76 98.3818H1048.96C1049.04 98.9515 1049.24 99.3822 1049.57 99.6738C1049.89 99.9609 1050.33 100.104 1050.87 100.104C1051.45 100.104 1051.91 99.904 1052.25 99.5029C1052.58 99.1019 1052.75 98.5482 1052.75 97.8418C1052.75 97.1764 1052.57 96.6432 1052.21 96.2422C1051.85 95.8366 1051.36 95.6338 1050.76 95.6338C1050.21 95.6338 1049.78 95.7546 1049.46 95.9961L1049.13 96.2695L1048.12 96.0098ZM1058.16 97.2881H1054.82V96.2559H1058.16V97.2881ZM1059.85 96.0098L1060.35 91.0469H1065.45V92.2158H1061.43L1061.13 94.9297C1061.61 94.6426 1062.17 94.499 1062.79 94.499C1063.69 94.499 1064.41 94.7998 1064.95 95.4014C1065.48 95.9984 1065.75 96.8073 1065.75 97.8281C1065.75 98.8535 1065.47 99.6624 1064.91 100.255C1064.36 100.843 1063.59 101.137 1062.6 101.137C1061.72 101.137 1061 100.893 1060.44 100.405C1059.89 99.9176 1059.57 99.2432 1059.49 98.3818H1060.69C1060.77 98.9515 1060.97 99.3822 1061.3 99.6738C1061.62 99.9609 1062.06 100.104 1062.6 100.104C1063.18 100.104 1063.64 99.904 1063.98 99.5029C1064.31 99.1019 1064.48 98.5482 1064.48 97.8418C1064.48 97.1764 1064.3 96.6432 1063.94 96.2422C1063.58 95.8366 1063.09 95.6338 1062.49 95.6338C1061.94 95.6338 1061.51 95.7546 1061.19 95.9961L1060.86 96.2695L1059.85 96.0098ZM1072.09 91.04V92.1133H1071.86C1070.87 92.1315 1070.09 92.4232 1069.51 92.9883C1068.92 93.5534 1068.59 94.3486 1068.5 95.374C1069.02 94.7725 1069.73 94.4717 1070.64 94.4717C1071.51 94.4717 1072.2 94.777 1072.71 95.3877C1073.23 95.9984 1073.49 96.7868 1073.49 97.7529C1073.49 98.7783 1073.21 99.5986 1072.65 100.214C1072.1 100.829 1071.35 101.137 1070.41 101.137C1069.46 101.137 1068.68 100.772 1068.09 100.043C1067.5 99.3092 1067.2 98.3659 1067.2 97.2129V96.7275C1067.2 94.8955 1067.59 93.4964 1068.37 92.5303C1069.16 91.5596 1070.32 91.0628 1071.87 91.04H1072.09ZM1070.43 95.5244C1070 95.5244 1069.6 95.6543 1069.23 95.9141C1068.87 96.1738 1068.62 96.4997 1068.47 96.8916V97.3564C1068.47 98.1768 1068.66 98.8376 1069.03 99.3389C1069.4 99.8402 1069.86 100.091 1070.41 100.091C1070.98 100.091 1071.43 99.8812 1071.75 99.4619C1072.08 99.0426 1072.24 98.4935 1072.24 97.8145C1072.24 97.1309 1072.07 96.5794 1071.74 96.1602C1071.41 95.7363 1070.98 95.5244 1070.43 95.5244ZM1077.75 97.2881H1074.42V96.2559H1077.75V97.2881ZM1083.82 91.04V92.1133H1083.59C1082.6 92.1315 1081.82 92.4232 1081.24 92.9883C1080.65 93.5534 1080.32 94.3486 1080.23 95.374C1080.75 94.7725 1081.47 94.4717 1082.37 94.4717C1083.24 94.4717 1083.93 94.777 1084.44 95.3877C1084.96 95.9984 1085.22 96.7868 1085.22 97.7529C1085.22 98.7783 1084.94 99.5986 1084.38 100.214C1083.83 100.829 1083.08 101.137 1082.14 101.137C1081.19 101.137 1080.41 100.772 1079.82 100.043C1079.23 99.3092 1078.93 98.3659 1078.93 97.2129V96.7275C1078.93 94.8955 1079.32 93.4964 1080.1 92.5303C1080.89 91.5596 1082.05 91.0628 1083.6 91.04H1083.82ZM1082.16 95.5244C1081.73 95.5244 1081.33 95.6543 1080.96 95.9141C1080.6 96.1738 1080.35 96.4997 1080.21 96.8916V97.3564C1080.21 98.1768 1080.39 98.8376 1080.76 99.3389C1081.13 99.8402 1081.59 100.091 1082.14 100.091C1082.71 100.091 1083.16 99.8812 1083.48 99.4619C1083.81 99.0426 1083.97 98.4935 1083.97 97.8145C1083.97 97.1309 1083.81 96.5794 1083.47 96.1602C1083.14 95.7363 1082.71 95.5244 1082.16 95.5244ZM1087.3 96.0098L1087.81 91.0469H1092.91V92.2158H1088.88L1088.58 94.9297C1089.07 94.6426 1089.62 94.499 1090.24 94.499C1091.15 94.499 1091.87 94.7998 1092.4 95.4014C1092.93 95.9984 1093.2 96.8073 1093.2 97.8281C1093.2 98.8535 1092.92 99.6624 1092.37 100.255C1091.81 100.843 1091.04 101.137 1090.05 101.137C1089.17 101.137 1088.45 100.893 1087.9 100.405C1087.34 99.9176 1087.02 99.2432 1086.95 98.3818H1088.14C1088.22 98.9515 1088.42 99.3822 1088.75 99.6738C1089.08 99.9609 1089.51 100.104 1090.05 100.104C1090.64 100.104 1091.1 99.904 1091.43 99.5029C1091.77 99.1019 1091.94 98.5482 1091.94 97.8418C1091.94 97.1764 1091.75 96.6432 1091.39 96.2422C1091.03 95.8366 1090.55 95.6338 1089.95 95.6338C1089.39 95.6338 1088.96 95.7546 1088.65 95.9961L1088.31 96.2695L1087.3 96.0098Z" fill="#F2F2F2"/>
<path d="M600.264 99.0381C600.264 98.6963 600.134 98.432 599.874 98.2451C599.619 98.0537 599.17 97.8896 598.527 97.7529C597.889 97.6162 597.381 97.4521 597.003 97.2607C596.629 97.0693 596.351 96.8415 596.169 96.5771C595.991 96.3128 595.902 95.9984 595.902 95.6338C595.902 95.0277 596.158 94.515 596.668 94.0957C597.183 93.6764 597.839 93.4668 598.637 93.4668C599.475 93.4668 600.154 93.6833 600.674 94.1162C601.198 94.5492 601.46 95.1029 601.46 95.7773H600.188C600.188 95.431 600.04 95.1325 599.744 94.8818C599.452 94.6312 599.083 94.5059 598.637 94.5059C598.176 94.5059 597.816 94.6061 597.557 94.8066C597.297 95.0072 597.167 95.2692 597.167 95.5928C597.167 95.8981 597.288 96.1283 597.529 96.2832C597.771 96.4382 598.206 96.5863 598.835 96.7275C599.468 96.8688 599.981 97.0374 600.373 97.2334C600.765 97.4294 601.054 97.6663 601.241 97.9443C601.433 98.2178 601.528 98.5527 601.528 98.9492C601.528 99.61 601.264 100.141 600.735 100.542C600.207 100.938 599.521 101.137 598.678 101.137C598.085 101.137 597.561 101.032 597.105 100.822C596.65 100.613 596.292 100.321 596.032 99.9473C595.777 99.569 595.649 99.1611 595.649 98.7236H596.914C596.937 99.1475 597.105 99.4847 597.42 99.7354C597.739 99.9814 598.158 100.104 598.678 100.104C599.156 100.104 599.539 100.009 599.826 99.8174C600.118 99.6214 600.264 99.3617 600.264 99.0381ZM607.742 101C607.669 100.854 607.61 100.594 607.564 100.221C606.977 100.831 606.275 101.137 605.459 101.137C604.73 101.137 604.131 100.932 603.661 100.521C603.196 100.107 602.964 99.5827 602.964 98.9492C602.964 98.179 603.256 97.582 603.839 97.1582C604.427 96.7298 605.252 96.5156 606.313 96.5156H607.544V95.9346C607.544 95.4925 607.412 95.1416 607.147 94.8818C606.883 94.6175 606.493 94.4854 605.979 94.4854C605.527 94.4854 605.149 94.5993 604.844 94.8271C604.538 95.055 604.386 95.3307 604.386 95.6543H603.114C603.114 95.2852 603.244 94.9297 603.504 94.5879C603.768 94.2415 604.124 93.9681 604.57 93.7676C605.021 93.5671 605.516 93.4668 606.054 93.4668C606.906 93.4668 607.574 93.681 608.057 94.1094C608.54 94.5332 608.79 95.1188 608.809 95.8662V99.2705C608.809 99.9495 608.895 100.49 609.068 100.891V101H607.742ZM605.644 100.036C606.04 100.036 606.416 99.9336 606.771 99.7285C607.127 99.5234 607.384 99.2568 607.544 98.9287V97.4111H606.553C605.003 97.4111 604.229 97.8646 604.229 98.7715C604.229 99.168 604.361 99.4779 604.625 99.7012C604.889 99.9245 605.229 100.036 605.644 100.036ZM612.165 101H610.9V90.5H612.165V101ZM617.265 101.137C616.262 101.137 615.446 100.809 614.817 100.152C614.188 99.4915 613.874 98.6097 613.874 97.5068V97.2744C613.874 96.5407 614.013 95.8867 614.291 95.3125C614.574 94.7337 614.965 94.2826 615.467 93.959C615.973 93.6309 616.52 93.4668 617.107 93.4668C618.069 93.4668 618.816 93.7835 619.35 94.417C619.883 95.0505 620.149 95.9574 620.149 97.1377V97.6641H615.139C615.157 98.3932 615.369 98.9834 615.774 99.4346C616.185 99.8812 616.704 100.104 617.333 100.104C617.78 100.104 618.158 100.013 618.468 99.8311C618.778 99.6488 619.049 99.4072 619.281 99.1064L620.054 99.708C619.434 100.66 618.504 101.137 617.265 101.137ZM617.107 94.5059C616.597 94.5059 616.169 94.6927 615.822 95.0664C615.476 95.4355 615.262 95.9551 615.18 96.625H618.885V96.5293C618.848 95.8867 618.675 95.39 618.365 95.0391C618.055 94.6836 617.636 94.5059 617.107 94.5059ZM625.926 99.0381C625.926 98.6963 625.796 98.432 625.536 98.2451C625.281 98.0537 624.832 97.8896 624.189 97.7529C623.551 97.6162 623.043 97.4521 622.665 97.2607C622.291 97.0693 622.013 96.8415 621.831 96.5771C621.653 96.3128 621.564 95.9984 621.564 95.6338C621.564 95.0277 621.82 94.515 622.33 94.0957C622.845 93.6764 623.501 93.4668 624.299 93.4668C625.137 93.4668 625.816 93.6833 626.336 94.1162C626.86 94.5492 627.122 95.1029 627.122 95.7773H625.851C625.851 95.431 625.702 95.1325 625.406 94.8818C625.115 94.6312 624.745 94.5059 624.299 94.5059C623.839 94.5059 623.479 94.6061 623.219 94.8066C622.959 95.0072 622.829 95.2692 622.829 95.5928C622.829 95.8981 622.95 96.1283 623.191 96.2832C623.433 96.4382 623.868 96.5863 624.497 96.7275C625.131 96.8688 625.643 97.0374 626.035 97.2334C626.427 97.4294 626.716 97.6663 626.903 97.9443C627.095 98.2178 627.19 98.5527 627.19 98.9492C627.19 99.61 626.926 100.141 626.397 100.542C625.869 100.938 625.183 101.137 624.34 101.137C623.747 101.137 623.223 101.032 622.768 100.822C622.312 100.613 621.954 100.321 621.694 99.9473C621.439 99.569 621.312 99.1611 621.312 98.7236H622.576C622.599 99.1475 622.768 99.4847 623.082 99.7354C623.401 99.9814 623.82 100.104 624.34 100.104C624.818 100.104 625.201 100.009 625.488 99.8174C625.78 99.6214 625.926 99.3617 625.926 99.0381ZM639.762 97.5684C639.707 98.6712 639.434 99.5417 638.941 100.18C638.449 100.818 637.791 101.137 636.966 101.137C636.114 101.137 635.567 100.754 635.325 99.9883C635.079 100.376 634.797 100.665 634.478 100.856C634.163 101.043 633.837 101.137 633.5 101.137C632.853 101.137 632.363 100.872 632.03 100.344C631.698 99.8151 631.575 99.0837 631.661 98.1494C631.729 97.3975 631.9 96.7275 632.174 96.1396C632.452 95.5472 632.807 95.0824 633.24 94.7451C633.678 94.4079 634.136 94.2393 634.614 94.2393C634.983 94.2393 635.314 94.2894 635.605 94.3896C635.897 94.4854 636.225 94.6768 636.59 94.9639L636.234 98.751C636.148 99.8037 636.439 100.33 637.109 100.33C637.624 100.33 638.041 100.075 638.36 99.5645C638.679 99.054 638.853 98.3887 638.88 97.5684C638.966 95.7956 638.636 94.4443 637.889 93.5146C637.146 92.585 636.013 92.1201 634.491 92.1201C633.575 92.1201 632.762 92.348 632.051 92.8037C631.34 93.2549 630.779 93.9089 630.369 94.7656C629.959 95.6224 629.729 96.6113 629.679 97.7324C629.624 98.8626 629.761 99.8447 630.089 100.679C630.417 101.508 630.916 102.142 631.586 102.579C632.26 103.021 633.074 103.242 634.026 103.242C634.437 103.242 634.847 103.192 635.257 103.092C635.672 102.992 636.016 102.862 636.289 102.702L636.542 103.488C636.259 103.666 635.883 103.812 635.414 103.926C634.949 104.04 634.478 104.097 633.999 104.097C632.86 104.097 631.88 103.839 631.06 103.324C630.239 102.814 629.624 102.076 629.214 101.109C628.808 100.148 628.633 99.0221 628.688 97.7324C628.742 96.4792 629.022 95.3535 629.528 94.3555C630.034 93.3529 630.72 92.5804 631.586 92.0381C632.452 91.4912 633.429 91.2178 634.519 91.2178C635.653 91.2178 636.626 91.473 637.438 91.9834C638.249 92.4938 638.853 93.2298 639.249 94.1914C639.646 95.153 639.816 96.2786 639.762 97.5684ZM632.748 98.1494C632.684 98.7965 632.743 99.2933 632.926 99.6396C633.113 99.986 633.407 100.159 633.808 100.159C634.081 100.159 634.343 100.043 634.594 99.8105C634.849 99.5781 635.059 99.2454 635.223 98.8125L635.229 98.751L635.544 95.3125C635.289 95.1803 635.015 95.1143 634.724 95.1143C634.19 95.1143 633.748 95.3854 633.397 95.9277C633.051 96.4701 632.835 97.2106 632.748 98.1494ZM642.79 101H641.525V90.5H642.79V101ZM644.485 97.2334C644.485 96.5088 644.627 95.8571 644.909 95.2783C645.196 94.6995 645.593 94.2529 646.099 93.9385C646.609 93.624 647.19 93.4668 647.842 93.4668C648.849 93.4668 649.662 93.8154 650.282 94.5127C650.907 95.21 651.219 96.1374 651.219 97.2949V97.3838C651.219 98.1038 651.08 98.751 650.802 99.3252C650.528 99.8949 650.134 100.339 649.619 100.658C649.109 100.977 648.521 101.137 647.855 101.137C646.853 101.137 646.039 100.788 645.415 100.091C644.795 99.3936 644.485 98.4707 644.485 97.3223V97.2334ZM645.757 97.3838C645.757 98.2041 645.946 98.8626 646.324 99.3594C646.707 99.8561 647.217 100.104 647.855 100.104C648.498 100.104 649.008 99.8538 649.387 99.3525C649.765 98.8467 649.954 98.1403 649.954 97.2334C649.954 96.4222 649.76 95.766 649.373 95.2646C648.99 94.7588 648.48 94.5059 647.842 94.5059C647.217 94.5059 646.714 94.7542 646.331 95.251C645.948 95.7477 645.757 96.4587 645.757 97.3838ZM652.504 97.2402C652.504 96.0872 652.771 95.1712 653.304 94.4922C653.837 93.8086 654.543 93.4668 655.423 93.4668C656.325 93.4668 657.029 93.7858 657.535 94.4238L657.597 93.6035H658.752V100.822C658.752 101.779 658.467 102.534 657.897 103.085C657.332 103.636 656.571 103.912 655.614 103.912C655.081 103.912 654.559 103.798 654.049 103.57C653.538 103.342 653.149 103.03 652.88 102.634L653.536 101.875C654.078 102.545 654.742 102.88 655.525 102.88C656.141 102.88 656.619 102.707 656.961 102.36C657.307 102.014 657.48 101.526 657.48 100.897V100.262C656.975 100.845 656.284 101.137 655.409 101.137C654.543 101.137 653.841 100.788 653.304 100.091C652.771 99.3936 652.504 98.4434 652.504 97.2402ZM653.775 97.3838C653.775 98.2178 653.946 98.874 654.288 99.3525C654.63 99.8265 655.108 100.063 655.724 100.063C656.521 100.063 657.107 99.7012 657.48 98.9766V95.5996C657.093 94.8932 656.512 94.54 655.737 94.54C655.122 94.54 654.641 94.7793 654.295 95.2578C653.949 95.7363 653.775 96.445 653.775 97.3838ZM660.693 100.337C660.693 100.118 660.757 99.9359 660.885 99.79C661.017 99.6442 661.213 99.5713 661.473 99.5713C661.732 99.5713 661.928 99.6442 662.061 99.79C662.197 99.9359 662.266 100.118 662.266 100.337C662.266 100.547 662.197 100.722 662.061 100.863C661.928 101.005 661.732 101.075 661.473 101.075C661.213 101.075 661.017 101.005 660.885 100.863C660.757 100.722 660.693 100.547 660.693 100.337ZM667.933 94.7383C667.741 94.7064 667.534 94.6904 667.311 94.6904C666.481 94.6904 665.918 95.0436 665.622 95.75V101H664.357V93.6035H665.588L665.608 94.458C666.023 93.7972 666.611 93.4668 667.372 93.4668C667.618 93.4668 667.805 93.4987 667.933 93.5625V94.7383ZM673.668 100.269C673.176 100.847 672.453 101.137 671.501 101.137C670.713 101.137 670.111 100.909 669.696 100.453C669.286 99.9928 669.079 99.3138 669.074 98.416V93.6035H670.339V98.3818C670.339 99.5029 670.795 100.063 671.706 100.063C672.672 100.063 673.315 99.7035 673.634 98.9834V93.6035H674.898V101H673.695L673.668 100.269Z" fill="#2F343A"/>
<g clip-path="url(#clip0_8_134)">
<path d="M441.723 93.8639C441.109 94.9446 440.384 95.9615 439.559 96.8973L439.581 96.9194L438.815 97.6882C435.403 101.12 430.861 103.011 426.025 103.011C421.209 103.011 416.679 101.134 413.273 97.7275C409.866 94.3208 407.989 89.7915 407.989 84.9748C407.989 84.6187 407.999 84.2576 408.021 83.899C408.024 83.8499 408.026 83.8008 408.031 83.7492V83.7345C408.033 83.7025 408.036 83.6681 408.038 83.6362V83.619C408.043 83.5453 408.051 83.4692 408.058 83.3955C408.063 83.3341 408.068 83.2702 408.075 83.2039C408.085 83.1081 408.095 83.0099 408.105 82.9141C408.112 82.8576 408.117 82.7937 408.127 82.7323C408.137 82.6537 408.146 82.5628 408.159 82.4744C408.166 82.4253 408.173 82.3762 408.181 82.327C408.191 82.246 408.205 82.1551 408.22 82.0667C408.227 82.02 408.237 81.966 408.245 81.9144C408.252 81.8702 408.259 81.826 408.269 81.7818C408.279 81.7253 408.291 81.659 408.304 81.5951C408.313 81.5386 408.326 81.4772 408.338 81.4158C408.353 81.3446 408.365 81.2758 408.382 81.2021C408.485 80.7109 408.613 80.2172 408.758 79.7357L408.763 79.7235C408.78 79.6596 408.8 79.5957 408.822 79.5343C408.839 79.4803 408.856 79.4263 408.873 79.3698C408.977 79.0554 409.09 78.7361 409.21 78.429C409.227 78.3873 409.244 78.3406 409.262 78.2964C409.281 78.2497 409.298 78.2006 409.32 78.149C409.345 78.0901 409.372 78.0238 409.399 77.9574C409.419 77.9083 409.443 77.8518 409.468 77.7978L409.478 77.7732C409.512 77.6995 409.544 77.6234 409.578 77.5497C409.603 77.4932 409.628 77.4392 409.655 77.3851C410.109 76.4027 410.662 75.4546 411.293 74.5654L411.396 74.4254C411.467 74.3272 411.538 74.2289 411.612 74.1356C411.647 74.0914 411.683 74.0422 411.72 73.9956C411.799 73.8924 411.88 73.7917 411.958 73.6935C412.005 73.637 412.052 73.5756 412.101 73.5191C412.145 73.465 412.194 73.4085 412.243 73.3496C412.29 73.2931 412.342 73.2341 412.391 73.1776C412.447 73.1138 412.504 73.0475 412.56 72.9836L410.443 70.8639C406.931 74.7275 405 79.721 405 84.9724C405 90.5898 407.186 95.8682 411.158 99.8399C415.129 103.812 420.408 105.998 426.025 105.998C431.66 105.998 436.953 103.797 440.927 99.803C442.062 98.6633 443.062 97.4008 443.904 96.0426L441.723 93.8639Z" fill="#1D2A38"/>
<path d="M414.813 96.1875C417.807 99.1816 421.791 100.832 426.025 100.832C426.158 100.832 426.29 100.83 426.423 100.827C426.489 100.827 426.553 100.825 426.62 100.822H426.629C426.728 100.817 426.823 100.813 426.922 100.808C427 100.803 427.076 100.798 427.155 100.793C427.194 100.79 427.229 100.788 427.261 100.786L427.315 100.781C427.386 100.776 427.457 100.768 427.531 100.761C427.595 100.756 427.654 100.751 427.715 100.744C427.759 100.739 427.799 100.734 427.835 100.731L427.916 100.722C427.968 100.714 428.02 100.709 428.074 100.702C428.27 100.677 428.462 100.65 428.651 100.618C428.705 100.609 428.756 100.599 428.808 100.591L428.825 100.589C428.867 100.582 428.909 100.574 428.948 100.567L428.968 100.562C429.022 100.552 429.076 100.542 429.13 100.53C429.272 100.503 429.412 100.474 429.55 100.442C429.643 100.422 429.736 100.397 429.83 100.375L429.842 100.373C429.867 100.368 429.889 100.363 429.913 100.356C429.982 100.338 430.044 100.321 430.107 100.307C430.161 100.292 430.213 100.28 430.262 100.265C430.306 100.253 430.346 100.243 430.382 100.23C430.419 100.221 430.449 100.213 430.476 100.203L430.498 100.196C430.537 100.186 430.577 100.174 430.616 100.162C430.682 100.142 430.739 100.125 430.795 100.105C430.842 100.09 430.881 100.078 430.925 100.066C431.058 100.022 431.191 99.9774 431.321 99.9307C431.358 99.9185 431.392 99.9062 431.426 99.8939L431.453 99.8841C431.5 99.8669 431.542 99.8521 431.581 99.8374C431.647 99.8129 431.704 99.7907 431.763 99.7686C431.812 99.749 431.856 99.7342 431.898 99.7171C431.979 99.6851 432.053 99.6557 432.126 99.6237L432.347 99.5304C432.416 99.5009 432.485 99.4714 432.549 99.442C432.588 99.4248 432.62 99.41 432.654 99.3953L432.686 99.3806C432.74 99.356 432.794 99.329 432.849 99.3044C433.183 99.1448 433.512 98.9753 433.829 98.7935C433.863 98.7739 433.895 98.7542 433.929 98.737C434.003 98.6953 434.077 98.6511 434.148 98.6093L434.511 98.3858C434.671 98.2826 434.838 98.1746 435.017 98.0517C435.066 98.0174 435.116 97.983 435.165 97.9486L435.184 97.9338C435.221 97.9068 435.258 97.8823 435.295 97.8552L435.305 97.8479C435.332 97.8282 435.359 97.8086 435.386 97.7889L435.396 97.7816C435.442 97.7496 435.486 97.7152 435.531 97.6809C435.582 97.644 435.631 97.6047 435.678 97.5679C435.712 97.5408 435.739 97.5187 435.769 97.4966L435.803 97.4696C435.852 97.4303 435.904 97.391 435.953 97.3493C436.005 97.3075 436.056 97.2658 436.105 97.2265L436.118 97.2166C436.214 97.138 436.307 97.057 436.403 96.9759C436.432 96.9514 436.459 96.9268 436.489 96.8998L434.369 94.7776C432.048 96.7573 429.103 97.8405 426.033 97.8405C418.939 97.8405 413.167 92.0684 413.167 84.9749C413.167 81.5165 414.52 78.2718 416.974 75.8377C418.126 74.6956 419.506 73.7696 420.997 73.1334L418.747 70.8835C417.313 71.6278 416.004 72.5832 414.852 73.7278C411.831 76.7269 410.168 80.7182 410.168 84.9724C410.168 89.2094 411.818 93.1909 414.813 96.1875Z" fill="white"/>
<path d="M444.019 81.0252C444.019 75.4078 441.833 70.1294 437.862 66.1577C433.89 62.186 428.609 60 422.992 60C417.357 60 412.064 62.1983 408.092 66.1946C406.958 67.3318 405.958 68.5968 405.113 69.955L407.297 72.1386C407.911 71.0579 408.635 70.041 409.461 69.1052L409.438 69.0831L410.205 68.3143C413.614 64.883 418.158 62.9917 422.994 62.9917C427.811 62.9917 432.34 64.8682 435.747 68.275C439.154 71.6818 441.03 76.2086 441.03 81.0277C441.03 81.3838 441.02 81.7473 440.998 82.1035C440.996 82.1501 440.993 82.2017 440.988 82.2533C440.986 82.2902 440.984 82.327 440.981 82.3638V82.381C440.976 82.4547 440.969 82.5309 440.961 82.6045C440.957 82.666 440.952 82.7323 440.944 82.7986C440.934 82.8919 440.925 82.9902 440.915 83.0884C440.907 83.1449 440.903 83.2063 440.893 83.2702C440.883 83.3488 440.873 83.4372 440.861 83.5281C440.853 83.5772 440.846 83.6263 440.839 83.673C440.829 83.7565 440.814 83.8449 440.799 83.9358C440.792 83.9825 440.782 84.0365 440.775 84.0881C440.767 84.1323 440.76 84.1765 440.75 84.2207C440.74 84.2772 440.728 84.3435 440.716 84.4074C440.706 84.4639 440.694 84.5253 440.679 84.5867C440.667 84.6555 440.652 84.7267 440.635 84.8004C440.532 85.2916 440.404 85.7878 440.259 86.2668C440.239 86.3331 440.22 86.4019 440.195 86.4706C440.178 86.5247 440.161 86.5787 440.144 86.6352C440.04 86.952 439.927 87.2689 439.807 87.5759C439.79 87.6177 439.773 87.6619 439.755 87.7061C439.736 87.7552 439.716 87.8044 439.697 87.8535C439.672 87.9124 439.645 87.9787 439.618 88.0451C439.598 88.0942 439.574 88.1507 439.549 88.2047L439.539 88.2293C439.505 88.303 439.473 88.3791 439.439 88.4528C439.414 88.5093 439.389 88.5633 439.362 88.6174C438.908 89.5998 438.355 90.5479 437.724 91.4371L437.623 91.5771C437.55 91.6778 437.479 91.7736 437.407 91.8669C437.373 91.9136 437.336 91.9603 437.299 92.0069C437.221 92.1101 437.14 92.2108 437.061 92.3091C437.014 92.3655 436.968 92.427 436.919 92.4834C436.877 92.535 436.833 92.5891 436.786 92.6431L436.776 92.6529C436.727 92.7094 436.678 92.7684 436.626 92.8249C436.57 92.8887 436.513 92.955 436.457 93.0189L438.574 95.1386C442.089 91.275 444.019 86.279 444.019 81.0252Z" fill="white"/>
<path d="M428.027 92.8692L430.277 95.1191C431.711 94.3748 433.02 93.4194 434.172 92.2748C437.191 89.2757 438.852 85.2819 438.852 81.0278C438.852 76.7932 437.201 72.8093 434.207 69.8151C431.21 66.8185 427.229 65.168 422.992 65.168C422.859 65.168 422.726 65.1704 422.594 65.1729C422.528 65.1729 422.464 65.1753 422.397 65.1778H422.39C422.292 65.1827 422.196 65.1876 422.098 65.1925C422.019 65.1974 421.943 65.2024 421.864 65.2073C421.825 65.2097 421.791 65.2122 421.759 65.2146L421.705 65.2195C421.636 65.2245 421.562 65.2318 421.491 65.2392C421.427 65.2466 421.368 65.2515 421.307 65.2588C421.263 65.2638 421.223 65.2687 421.186 65.2711L421.125 65.2785C421.118 65.2785 421.11 65.281 421.105 65.281C421.054 65.2859 421.002 65.2932 420.951 65.3006C420.754 65.3252 420.563 65.3546 420.373 65.3841C420.319 65.3939 420.268 65.4013 420.216 65.4111L420.199 65.4136C420.157 65.421 420.118 65.4283 420.079 65.4357L420.052 65.4406C420 65.4504 419.949 65.4603 419.894 65.4701C419.747 65.4971 419.607 65.5266 419.47 65.5585C419.376 65.5782 419.283 65.6027 419.19 65.6248L419.177 65.6273C419.153 65.6322 419.131 65.6371 419.106 65.6445C419.037 65.6617 418.976 65.6789 418.912 65.6936C418.858 65.7083 418.809 65.7206 418.757 65.7354C418.713 65.7476 418.674 65.7575 418.634 65.7697C418.598 65.7796 418.568 65.7894 418.541 65.7968L418.519 65.8041C418.48 65.814 418.44 65.8262 418.401 65.8385C418.335 65.8582 418.278 65.8754 418.222 65.895C418.175 65.9097 418.136 65.922 418.092 65.9343C417.959 65.9785 417.826 66.0227 417.696 66.0694C417.659 66.0817 417.627 66.094 417.593 66.1062L417.564 66.1161C417.519 66.1333 417.48 66.1455 417.441 66.1627C417.372 66.1873 417.313 66.2094 417.254 66.234C417.205 66.2536 417.163 66.2708 417.119 66.288C417.038 66.3199 416.964 66.3494 416.891 66.3813L416.669 66.4747C416.601 66.5042 416.534 66.5336 416.468 66.5631C416.431 66.5803 416.397 66.595 416.362 66.6098L416.33 66.6245C416.276 66.6491 416.222 66.6761 416.168 66.7006C415.834 66.8603 415.505 67.0298 415.188 67.2115C415.152 67.2312 415.122 67.2484 415.088 67.268C415.019 67.3073 414.948 67.3491 414.881 67.3884L414.653 67.5284C414.606 67.5579 414.557 67.5898 414.508 67.6193C414.346 67.7224 414.181 67.8305 414.004 67.9533C413.958 67.9852 413.914 68.0172 413.869 68.0467L413.84 68.0663C413.798 68.0958 413.761 68.1228 413.724 68.1498L413.71 68.1596C413.685 68.1793 413.661 68.1965 413.634 68.2161L413.624 68.2235C413.577 68.2554 413.533 68.2898 413.489 68.3242C413.437 68.3611 413.39 68.4003 413.341 68.4372C413.307 68.4642 413.277 68.4863 413.25 68.5084L413.216 68.5354C413.167 68.5747 413.115 68.614 413.066 68.6558C413.01 68.7 412.956 68.7467 412.902 68.7909C412.806 68.8695 412.712 68.9481 412.617 69.0316C412.587 69.0562 412.56 69.0807 412.531 69.1077L414.653 71.2299C416.974 69.2502 419.919 68.1646 422.989 68.1646C430.083 68.1646 435.855 73.9367 435.855 81.0302C435.855 84.4886 434.502 87.7332 432.048 90.1673C430.898 91.3046 429.518 92.233 428.027 92.8692Z" fill="#1D2A38"/>
</g>
<g clip-path="url(#clip1_8_134)">
<path d="M462.92 90.2354L462.306 92.0896H463.546L462.933 90.2354H462.92Z" fill="white"/>
<path d="M463.808 79.7499C463.599 80.6835 463.2 81.3952 462.626 81.8849C462.038 82.3549 461.327 82.5965 460.478 82.5965C459.786 82.5965 459.146 82.4202 458.539 82.0742C457.951 81.7282 457.514 81.1928 457.239 80.4811C456.939 79.7695 456.802 78.9207 456.802 77.9675C456.802 77.2232 456.926 76.4919 457.168 75.7999C457.409 75.1013 457.827 74.5463 458.402 74.135C458.989 73.7367 459.733 73.5278 460.602 73.5278C461.366 73.5278 461.986 73.7041 462.489 74.0827C462.991 74.4484 463.37 75.036 463.631 75.8521L463.664 75.937L465.401 75.5387L465.368 75.4342C465.042 74.357 464.467 73.5082 463.651 72.901C462.835 72.3134 461.829 72.0196 460.634 72.0196C459.596 72.0196 458.624 72.2481 457.736 72.7117C456.874 73.1948 456.182 73.8869 455.712 74.7944C455.242 75.6954 455 76.7662 455 77.9675C455 79.0774 455.209 80.1351 455.627 81.0883C456.045 82.0611 456.665 82.825 457.481 83.3278C458.278 83.8501 459.335 84.1112 460.621 84.1112C461.855 84.1112 462.913 83.7652 463.775 83.1058C464.643 82.4464 465.231 81.4605 465.564 80.1939L465.597 80.0894L463.847 79.6585L463.808 79.7499Z" fill="white"/>
<path d="M479.693 72.7835C478.805 72.2612 477.799 72 476.709 72C475.024 72 473.64 72.555 472.583 73.6453C471.525 74.7356 470.989 76.283 470.989 78.2025C470.989 79.2276 471.218 80.1939 471.682 81.1144C472.132 82.035 472.811 82.7597 473.692 83.3016C474.574 83.837 475.586 84.0982 476.689 84.0982C477.727 84.0982 478.7 83.8566 479.582 83.3669C480.483 82.8968 481.175 82.1721 481.677 81.232C482.16 80.3114 482.409 79.2406 482.409 78.0589C482.409 76.8967 482.167 75.8586 481.717 74.938C481.253 74.0305 480.574 73.2993 479.693 72.7835ZM479.503 81.4148C478.772 82.1917 477.819 82.5965 476.696 82.5965C475.586 82.5965 474.652 82.1982 473.901 81.4344C473.17 80.6509 472.791 79.5801 472.791 78.2286C472.791 76.5442 473.19 75.3167 473.954 74.6051C474.717 73.8934 475.651 73.5278 476.709 73.5278C477.473 73.5278 478.145 73.7171 478.752 74.0827C479.34 74.4484 479.81 74.9837 480.123 75.6627C480.437 76.3418 480.594 77.1514 480.594 78.0719C480.594 79.5083 480.228 80.6378 479.503 81.4148Z" fill="white"/>
<path d="M497.569 72.5027L494.774 80.4615C494.546 81.1014 494.376 81.6041 494.252 82.0024L493.782 80.6182L490.994 72.3983H490.805V76.6486L493.39 84.1047H494.931L497.569 76.6617V72.5027Z" fill="white"/>
<path d="M490.178 72.3983H488.481V84.1047H490.178V72.3983Z" fill="white"/>
<path d="M499.874 72.3983H498.189V84.1047H499.874V72.3983Z" fill="white"/>
<path d="M507.695 72.3983H505.945V84.1047H507.695V72.3983Z" fill="white"/>
<path d="M514.733 74.2198C514.472 73.7367 514.159 73.3384 513.748 73.0773C513.349 72.7965 512.847 72.6072 512.272 72.5223C511.854 72.4374 511.247 72.3983 510.47 72.3983H508.322V73.9587H510.594C511.286 73.9587 511.756 73.9913 512.017 74.0631C512.396 74.1676 512.71 74.3765 512.938 74.703C513.18 75.0294 513.284 75.4146 513.284 75.8847C513.284 76.5115 513.095 76.9946 512.696 77.3407C512.298 77.6867 511.606 77.863 510.633 77.863H508.329V79.443H510.62C512.285 79.443 513.48 79.0774 514.12 78.3853C514.779 77.6932 515.106 76.8445 515.106 75.839C515.099 75.2449 514.975 74.703 514.733 74.2198Z" fill="white"/>
<path d="M525.741 72.3983L521.165 84.1047H523.019L523.541 82.7336H523.521L524.84 79.1818L525.121 78.4506L526.094 75.8651H526.113C526.322 75.2906 526.492 74.703 526.636 74.1284C526.812 74.6834 527.054 75.3624 527.347 76.1198L528.529 79.1688H525.532L524.997 80.6052H529.091L530.462 84.0916H532.453L527.563 72.3852H525.741V72.3983Z" fill="white"/>
<path d="M539.968 72.3983H538.336V84.1047H539.968V72.3983Z" fill="white"/>
<path d="M546.066 81.1928L546.033 81.1405V84.1047H547.764V72.3983H546.066V81.1928Z" fill="white"/>
<path d="M540.588 76.1459L545.407 83.2168V80.22L540.588 73.1622V76.1459Z" fill="white"/>
<path d="M562.917 72.3983L560.613 75.8325C560.162 76.5115 559.764 77.1513 559.418 77.7063V77.6867L558.445 79.1623V84.1047H560.214V79.1623L564.98 72.3983H562.917Z" fill="white"/>
<path d="M559.052 77.0795L558.327 75.9174L555.984 72.3983H553.835L558.066 78.6073L559.052 77.0795Z" fill="white"/>
<path d="M455 89.9416H456.162V93.6109H456.809V89.9416H457.971V89.3671H455V89.9416Z" fill="white"/>
<path d="M462.658 89.3671L461.118 93.6109H461.797L462.123 92.6642H463.736L464.062 93.6109H464.741L463.2 89.3671H462.658ZM462.306 92.0896L462.92 90.2354H462.933L463.546 92.0896H462.306Z" fill="white"/>
<path d="M470.036 91.8807H470.898V92.1027C470.891 92.3704 470.813 92.5858 470.65 92.7491C470.487 92.9188 470.278 93.0037 470.03 93.0037C469.88 93.0037 469.749 92.971 469.638 92.9058C469.527 92.8535 469.436 92.7817 469.37 92.6903C469.285 92.5989 469.233 92.4814 469.207 92.3312C469.174 92.181 469.161 91.9003 469.161 91.4824C469.161 91.0646 469.174 90.7838 469.207 90.6271C469.233 90.4835 469.292 90.366 469.37 90.2746C469.436 90.1897 469.527 90.1114 469.638 90.0591C469.749 90.0004 469.88 89.9742 470.03 89.9677C470.232 89.9742 470.408 90.033 470.552 90.144C470.689 90.2615 470.787 90.4117 470.839 90.5814H471.518C471.453 90.2289 471.29 89.9285 471.029 89.687C470.767 89.4454 470.434 89.3279 470.03 89.3214C469.697 89.3279 469.416 89.4062 469.194 89.5629C468.965 89.7131 468.802 89.8894 468.698 90.0852C468.632 90.1897 468.587 90.3203 468.554 90.49C468.528 90.6598 468.508 90.9862 468.508 91.4824C468.508 91.9656 468.521 92.2986 468.554 92.4683C468.567 92.5597 468.587 92.6381 468.613 92.6968C468.639 92.7556 468.665 92.8143 468.698 92.8796C468.802 93.0755 468.965 93.2453 469.194 93.3954C469.416 93.5521 469.697 93.6305 470.03 93.637C470.461 93.6305 470.82 93.4803 471.107 93.1996C471.388 92.9123 471.538 92.5597 471.544 92.1288V91.267H470.036V91.8807Z" fill="white"/>
<path d="M476.513 89.3671H475.873V93.6109H478.583V93.0037H476.513V89.3671Z" fill="white"/>
<path d="M483.408 89.3671H482.768V93.6109H483.408V89.3671Z" fill="white"/>
<path d="M490.413 92.3834H490.407L488.481 89.3671H487.88V93.6109H488.52V90.5945H488.533L490.452 93.6109H491.059V89.3671H490.413V92.3834Z" fill="white"/>
<path d="M495.532 93.6109H498.241V93.0037H496.178V91.7567H497.941V91.1886H496.178V89.9743H498.241V89.3671H495.532V93.6109Z" fill="white"/>
<path d="M508.805 91.8807H509.667V92.1027C509.66 92.3704 509.582 92.5858 509.419 92.7491C509.256 92.9188 509.047 93.0037 508.799 93.0037C508.648 93.0037 508.518 92.971 508.407 92.9058C508.296 92.8535 508.205 92.7817 508.139 92.6903C508.054 92.5989 508.002 92.4814 507.976 92.3312C507.943 92.181 507.93 91.9003 507.93 91.4824C507.93 91.0646 507.943 90.7838 507.976 90.6271C508.002 90.4835 508.061 90.366 508.139 90.2746C508.205 90.1897 508.296 90.1114 508.407 90.0591C508.518 90.0004 508.648 89.9742 508.799 89.9677C509.008 89.9742 509.177 90.033 509.321 90.144C509.458 90.2615 509.556 90.4117 509.608 90.5814H510.287C510.222 90.2289 510.059 89.9285 509.798 89.687C509.543 89.4454 509.203 89.3279 508.799 89.3214C508.466 89.3279 508.185 89.4062 507.963 89.5629C507.734 89.7131 507.571 89.8894 507.467 90.0852C507.401 90.1897 507.356 90.3203 507.323 90.49C507.297 90.6598 507.277 90.9862 507.277 91.4824C507.277 91.9656 507.29 92.2986 507.323 92.4683C507.336 92.5597 507.356 92.6381 507.382 92.6968C507.408 92.7556 507.434 92.8143 507.467 92.8796C507.571 93.0755 507.734 93.2453 507.963 93.3954C508.185 93.5521 508.466 93.6305 508.799 93.637C509.23 93.6305 509.589 93.4803 509.876 93.1996C510.157 92.9123 510.307 92.5597 510.313 92.1288V91.267H508.805V91.8807Z" fill="white"/>
<path d="M517.339 90.0918C517.241 89.8959 517.077 89.7196 516.855 89.5695C516.627 89.4128 516.346 89.3344 516.013 89.3279C515.68 89.3344 515.399 89.4128 515.177 89.5695C514.949 89.7196 514.786 89.8959 514.681 90.0918C514.616 90.1962 514.57 90.3268 514.538 90.4966C514.512 90.6663 514.492 90.9928 514.492 91.489C514.492 91.9721 514.505 92.3051 514.538 92.4748C514.551 92.5662 514.57 92.6446 514.596 92.7034C514.623 92.7621 514.649 92.8209 514.681 92.8862C514.786 93.082 514.949 93.2518 515.177 93.402C515.399 93.5586 515.68 93.637 516.013 93.6435C516.353 93.637 516.633 93.5521 516.855 93.402C517.077 93.2518 517.241 93.082 517.339 92.8862C517.41 92.7817 517.463 92.6446 517.489 92.4748C517.515 92.3051 517.528 91.9786 517.528 91.489C517.528 90.9993 517.515 90.6663 517.489 90.4966C517.463 90.3333 517.41 90.1962 517.339 90.0918ZM516.836 92.3377C516.803 92.4879 516.744 92.6054 516.666 92.6968C516.601 92.7817 516.516 92.8535 516.411 92.9123C516.3 92.9776 516.163 93.0102 516.013 93.0102C515.863 93.0102 515.732 92.9776 515.621 92.9123C515.51 92.8601 515.419 92.7882 515.354 92.6968C515.269 92.6054 515.217 92.4879 515.191 92.3377C515.158 92.1876 515.145 91.9068 515.145 91.489C515.145 91.0711 515.158 90.7904 515.191 90.6337C515.217 90.49 515.275 90.3725 515.354 90.2811C515.419 90.1962 515.51 90.1179 515.621 90.0657C515.732 90.0069 515.863 89.9808 516.013 89.9742C516.163 89.9808 516.3 90.0069 516.411 90.0657C516.516 90.1244 516.601 90.1962 516.666 90.2811C516.751 90.3725 516.81 90.49 516.836 90.6337C516.862 90.7838 516.882 91.0711 516.882 91.489C516.882 91.9068 516.868 92.1876 516.836 92.3377Z" fill="white"/>
<path d="M521.85 93.6109H524.56V93.0037H522.496V91.7567H524.259V91.1886H522.496V89.9743H524.56V89.3671H521.85V93.6109Z" fill="white"/>
<path d="M530.325 91.1886C530.122 91.1625 529.966 91.1429 529.848 91.1233C529.639 91.0842 529.489 91.0124 529.391 90.9144C529.293 90.8165 529.247 90.7055 529.247 90.5814C529.254 90.379 529.319 90.2224 529.463 90.1244C529.593 90.0265 529.763 89.9743 529.959 89.9743C530.344 89.9808 530.69 90.0918 531.01 90.3007L531.369 89.7719C530.978 89.4911 530.521 89.3409 529.992 89.3344C529.554 89.3409 529.215 89.4519 528.973 89.6804C528.725 89.909 528.601 90.2093 528.601 90.5749C528.601 90.8818 528.699 91.1429 528.895 91.3584C529.084 91.5673 529.365 91.7044 529.731 91.7632C529.933 91.7893 530.122 91.8154 530.292 91.8415C530.664 91.9068 530.847 92.0962 530.847 92.4096C530.84 92.7948 530.56 92.9906 530.011 92.9972C529.548 92.9906 529.143 92.8535 528.803 92.5728L528.379 93.0559C528.83 93.4411 529.371 93.637 529.998 93.637C530.971 93.6239 531.467 93.2126 531.487 92.403C531.487 92.1027 531.395 91.8415 531.206 91.613C531.017 91.391 530.723 91.2474 530.325 91.1886Z" fill="white"/>
<path d="M543.069 91.1886H541.391V89.3671H540.745V93.6109H541.391V91.7567H543.069V93.6109H543.716V89.3671H543.069V91.1886Z" fill="white"/>
<path d="M548.188 93.6109H550.897V93.0037H548.828V91.7567H550.591V91.1886H548.828V89.9743H550.897V89.3671H548.188V93.6109Z" fill="white"/>
<path d="M558.021 90.5488C558.007 90.1571 557.87 89.8567 557.596 89.6413C557.374 89.4519 557.087 89.3605 556.734 89.3605H555.076V93.6044H555.722V91.7893H556.545L557.42 93.6044H558.184L557.198 91.724C557.74 91.5216 558.014 91.1299 558.021 90.5488ZM555.722 91.2278V89.9416H556.728C556.93 89.9416 557.093 89.9873 557.198 90.0722C557.335 90.1701 557.407 90.3334 557.413 90.5553C557.413 90.7381 557.355 90.8948 557.237 91.0189C557.12 91.156 556.937 91.2278 556.695 91.2278H555.722Z" fill="white"/>
<path d="M562.29 93.6109H565V93.0037H562.93V91.7567H564.693V91.1886H562.93V89.9743H565V89.3671H562.29V93.6109Z" fill="white"/>
</g>
<defs>
<clipPath id="clip0_8_134">
<rect width="39.0194" height="46" fill="white" transform="translate(405 60)"/>
</clipPath>
<clipPath id="clip1_8_134">
<rect width="110" height="21.6435" fill="white" transform="translate(455 72)"/>
</clipPath>
</defs>
</svg>
