<svg width="1108" height="504" viewBox="0 0 1108 504" fill="none" xmlns="http://www.w3.org/2000/svg">
<rect width="90" height="6" fill="#C8A35F"/>
<path d="M13.2031 68L18.3789 54.5625H24.707L14.7656 78.0195L13.9648 79.5625C12.4935 82.1276 10.2409 83.4102 7.20703 83.4102L5.15625 83.332L5.09766 78.625C5.41016 78.6771 5.91797 78.7031 6.62109 78.7031C7.44141 78.7031 8.09896 78.5599 8.59375 78.2734C9.10156 77.987 9.52474 77.4596 9.86328 76.6914L10.5859 74.8359L0.605469 54.5625H6.91406L13.2031 68ZM51.668 73.5273C51.4466 76.5872 50.3138 78.9961 48.2695 80.7539C46.2383 82.5117 43.556 83.3906 40.2227 83.3906C36.5768 83.3906 33.7057 82.1667 31.6094 79.7188C29.526 77.2578 28.4844 73.8854 28.4844 69.6016V67.8633C28.4844 65.1289 28.9661 62.7201 29.9297 60.6367C30.8932 58.5534 32.2669 56.9583 34.0508 55.8516C35.8477 54.7318 37.931 54.1719 40.3008 54.1719C43.582 54.1719 46.2253 55.0508 48.2305 56.8086C50.2357 58.5664 51.3945 61.0339 51.707 64.2109H45.8477C45.7044 62.375 45.1901 61.0469 44.3047 60.2266C43.4323 59.3932 42.0977 58.9766 40.3008 58.9766C38.3477 58.9766 36.8828 59.6797 35.9062 61.0859C34.9427 62.4792 34.4479 64.6471 34.4219 67.5898V69.7383C34.4219 72.8112 34.8841 75.0573 35.8086 76.4766C36.7461 77.8958 38.2174 78.6055 40.2227 78.6055C42.0326 78.6055 43.3802 78.1953 44.2656 77.375C45.1641 76.5417 45.6784 75.2591 45.8086 73.5273H51.668ZM80.6406 54.5625V83H74.7617V59.3086H67.1836L66.7148 69.3477C66.5195 72.7331 66.0898 75.4023 65.4258 77.3555C64.7617 79.2956 63.7917 80.7214 62.5156 81.6328C61.2396 82.5312 59.4948 82.987 57.2812 83H55.7578V78.293L56.7344 78.1953C58.2057 78 59.2539 77.1536 59.8789 75.6562C60.5169 74.1458 60.9206 71.4635 61.0898 67.6094L61.5781 54.5625H80.6406ZM98.4219 68L103.598 54.5625H109.926L99.9844 78.0195L99.1836 79.5625C97.7122 82.1276 95.4596 83.4102 92.4258 83.4102L90.375 83.332L90.3164 78.625C90.6289 78.6771 91.1367 78.7031 91.8398 78.7031C92.6602 78.7031 93.3177 78.5599 93.8125 78.2734C94.3203 77.987 94.7435 77.4596 95.082 76.6914L95.8047 74.8359L85.8242 54.5625H92.1328L98.4219 68ZM133.684 59.3086H120.93V83H115.07V54.5625H133.684V59.3086ZM156.387 54.5625H162.266V83H156.387V64.1133L145 83H139.141V54.5625H145V73.4883L156.387 54.5625Z" fill="white"/>
<rect x="1" y="143" width="276" height="180" fill="#C8A35F"/>
<path d="M65.3336 285.363H60.7105L59.8316 288H57.0279L61.7916 275.203H64.235L69.025 288H66.2213L65.3336 285.363ZM61.4225 283.228H64.6217L63.0133 278.438L61.4225 283.228ZM71.1203 288V275.203H75.6027C77.1555 275.203 78.3332 275.502 79.1359 276.1C79.9387 276.691 80.34 277.562 80.34 278.71C80.34 279.337 80.1789 279.891 79.8566 280.371C79.5344 280.846 79.0861 281.194 78.5119 281.417C79.1682 281.581 79.6838 281.912 80.0588 282.41C80.4396 282.908 80.6301 283.518 80.6301 284.238C80.6301 285.469 80.2375 286.4 79.4523 287.033C78.6672 287.666 77.548 287.988 76.0949 288H71.1203ZM73.757 282.428V285.882H76.0158C76.6369 285.882 77.1203 285.735 77.466 285.442C77.8176 285.144 77.9934 284.733 77.9934 284.212C77.9934 283.04 77.3869 282.445 76.174 282.428H73.757ZM73.757 280.564H75.7082C77.0383 280.541 77.7033 280.011 77.7033 278.974C77.7033 278.394 77.5334 277.978 77.1936 277.726C76.8596 277.468 76.3293 277.339 75.6027 277.339H73.757V280.564ZM91.1893 275.203H93.8348V288H91.1893V279.501L86.0652 288H83.4285V275.203H86.0652V283.72L91.1893 275.203ZM104.403 285.363H99.7797L98.9008 288H96.0971L100.861 275.203H103.304L108.094 288H105.29L104.403 285.363ZM100.492 283.228H103.691L102.082 278.438L100.492 283.228ZM120.613 288H117.968V277.339H112.844V288H110.207V275.203H120.613V288ZM131.533 282.454H126.47V285.882H132.412V288H123.834V275.203H132.394V277.339H126.47V280.389H131.533V282.454ZM137.495 283.491V288H134.859V275.203H139.851C140.812 275.203 141.655 275.379 142.382 275.73C143.114 276.082 143.677 276.583 144.07 277.233C144.462 277.878 144.658 278.613 144.658 279.439C144.658 280.693 144.228 281.684 143.366 282.41C142.511 283.131 141.324 283.491 139.807 283.491H137.495ZM137.495 281.355H139.851C140.548 281.355 141.078 281.191 141.442 280.863C141.811 280.535 141.995 280.066 141.995 279.457C141.995 278.83 141.811 278.323 141.442 277.937C141.072 277.55 140.563 277.351 139.912 277.339H137.495V281.355ZM155.077 282.454H150.014V285.882H155.956V288H147.378V275.203H155.938V277.339H150.014V280.389H155.077V282.454ZM158.403 288V275.203H162.885C164.438 275.203 165.616 275.502 166.418 276.1C167.221 276.691 167.622 277.562 167.622 278.71C167.622 279.337 167.461 279.891 167.139 280.371C166.817 280.846 166.369 281.194 165.794 281.417C166.451 281.581 166.966 281.912 167.341 282.41C167.722 282.908 167.912 283.518 167.912 284.238C167.912 285.469 167.52 286.4 166.735 287.033C165.95 287.666 164.83 287.988 163.377 288H158.403ZM161.039 282.428V285.882H163.298C163.919 285.882 164.403 285.735 164.748 285.442C165.1 285.144 165.276 284.733 165.276 284.212C165.276 283.04 164.669 282.445 163.456 282.428H161.039ZM161.039 280.564H162.991C164.321 280.541 164.986 280.011 164.986 278.974C164.986 278.394 164.816 277.978 164.476 277.726C164.142 277.468 163.612 277.339 162.885 277.339H161.039V280.564ZM181.311 281.892C181.311 283.151 181.088 284.256 180.643 285.205C180.197 286.154 179.559 286.887 178.727 287.402C177.9 287.918 176.951 288.176 175.879 288.176C174.818 288.176 173.872 287.921 173.04 287.411C172.208 286.901 171.563 286.175 171.106 285.231C170.649 284.282 170.418 283.192 170.412 281.962V281.329C170.412 280.069 170.638 278.962 171.089 278.007C171.546 277.046 172.188 276.311 173.014 275.801C173.846 275.285 174.795 275.027 175.861 275.027C176.928 275.027 177.874 275.285 178.7 275.801C179.532 276.311 180.174 277.046 180.625 278.007C181.082 278.962 181.311 280.066 181.311 281.32V281.892ZM178.639 281.312C178.639 279.97 178.398 278.95 177.918 278.253C177.438 277.556 176.752 277.207 175.861 277.207C174.977 277.207 174.294 277.553 173.813 278.244C173.333 278.93 173.09 279.938 173.084 281.268V281.892C173.084 283.198 173.324 284.212 173.805 284.933C174.285 285.653 174.977 286.014 175.879 286.014C176.764 286.014 177.443 285.668 177.918 284.977C178.393 284.279 178.633 283.266 178.639 281.936V281.312ZM190.437 278.728C190.437 278.241 190.247 277.86 189.866 277.585C189.485 277.304 188.981 277.163 188.354 277.163C187.792 277.163 187.323 277.304 186.948 277.585C186.579 277.86 186.394 278.221 186.394 278.666H183.757C183.757 277.975 183.951 277.354 184.337 276.803C184.73 276.246 185.284 275.812 185.999 275.502C186.719 275.191 187.504 275.036 188.354 275.036C189.831 275.036 190.988 275.353 191.826 275.985C192.664 276.618 193.083 277.515 193.083 278.675C193.083 279.243 192.91 279.771 192.564 280.257C192.224 280.743 191.738 281.133 191.105 281.426C191.808 281.672 192.347 282.047 192.722 282.551C193.097 283.049 193.285 283.67 193.285 284.414C193.285 285.562 192.834 286.477 191.931 287.156C191.035 287.83 189.842 288.167 188.354 288.167C187.422 288.167 186.585 288.009 185.84 287.692C185.096 287.37 184.531 286.934 184.144 286.383C183.763 285.826 183.573 285.182 183.573 284.449H186.227C186.227 284.906 186.426 285.29 186.825 285.601C187.223 285.905 187.733 286.058 188.354 286.058C189.057 286.058 189.611 285.899 190.015 285.583C190.425 285.267 190.63 284.865 190.63 284.379C190.63 283.711 190.449 283.233 190.086 282.946C189.722 282.653 189.192 282.507 188.495 282.507H186.921V280.441H188.547C189.807 280.424 190.437 279.853 190.437 278.728ZM200.311 282.771H198.79V288H196.154V275.203H198.79V280.327H199.994L203.123 275.203H206.34L202.394 281.259L206.753 288H203.607L200.311 282.771ZM216.346 275.203H218.991V288H216.346V279.501L211.221 288H208.585V275.203H211.221V283.72L216.346 275.203Z" fill="white"/>
<circle cx="139" cy="213" r="35" fill="white"/>
<g clip-path="url(#clip0_8_124)">
<path d="M152.893 198.073L149.718 199.518C149.515 199.612 149.327 199.74 149.168 199.9L143.994 205.076L126.179 202.94C125.857 202.902 125.532 203.012 125.304 203.243L124.312 204.235C123.787 204.76 123.949 205.648 124.628 205.952L137.395 211.675L133.73 215.341H127.327C127.046 215.341 126.777 215.453 126.577 215.65L126.042 216.188C125.51 216.72 125.685 217.618 126.373 217.912L131.775 220.226L134.089 225.628C134.383 226.316 135.284 226.491 135.813 225.959L136.351 225.421C136.551 225.221 136.66 224.952 136.66 224.671V218.268L140.326 214.603L146.049 227.373C146.353 228.052 147.241 228.214 147.766 227.689L148.758 226.697C148.989 226.466 149.099 226.144 149.061 225.822L146.922 208.007L152.098 202.83C152.258 202.671 152.386 202.486 152.48 202.28L153.925 199.105C154.228 198.452 153.553 197.773 152.893 198.073Z" fill="#2F343A"/>
</g>
<rect x="278" y="143" width="276" height="180" fill="#393F47"/>
<path d="M342.334 285.363H337.711L336.832 288H334.028L338.792 275.203H341.235L346.025 288H343.221L342.334 285.363ZM338.422 283.228H341.622L340.013 278.438L338.422 283.228ZM348.12 288V275.203H352.603C354.155 275.203 355.333 275.502 356.136 276.1C356.939 276.691 357.34 277.562 357.34 278.71C357.34 279.337 357.179 279.891 356.857 280.371C356.534 280.846 356.086 281.194 355.512 281.417C356.168 281.581 356.684 281.912 357.059 282.41C357.44 282.908 357.63 283.518 357.63 284.238C357.63 285.469 357.238 286.4 356.452 287.033C355.667 287.666 354.548 287.988 353.095 288H348.12ZM350.757 282.428V285.882H353.016C353.637 285.882 354.12 285.735 354.466 285.442C354.818 285.144 354.993 284.733 354.993 284.212C354.993 283.04 354.387 282.445 353.174 282.428H350.757ZM350.757 280.564H352.708C354.038 280.541 354.703 280.011 354.703 278.974C354.703 278.394 354.533 277.978 354.194 277.726C353.86 277.468 353.329 277.339 352.603 277.339H350.757V280.564ZM368.189 275.203H370.835V288H368.189V279.501L363.065 288H360.429V275.203H363.065V283.72L368.189 275.203ZM381.403 285.363H376.78L375.901 288H373.097L377.861 275.203H380.304L385.094 288H382.29L381.403 285.363ZM377.492 283.228H380.691L379.082 278.438L377.492 283.228ZM397.613 288H394.968V277.339H389.844V288H387.207V275.203H397.613V288ZM408.533 282.454H403.47V285.882H409.412V288H400.834V275.203H409.394V277.339H403.47V280.389H408.533V282.454ZM414.495 283.491V288H411.859V275.203H416.851C417.812 275.203 418.655 275.379 419.382 275.73C420.114 276.082 420.677 276.583 421.07 277.233C421.462 277.878 421.658 278.613 421.658 279.439C421.658 280.693 421.228 281.684 420.366 282.41C419.511 283.131 418.324 283.491 416.807 283.491H414.495ZM414.495 281.355H416.851C417.548 281.355 418.078 281.191 418.442 280.863C418.811 280.535 418.995 280.066 418.995 279.457C418.995 278.83 418.811 278.323 418.442 277.937C418.072 277.55 417.563 277.351 416.912 277.339H414.495V281.355ZM432.077 282.454H427.014V285.882H432.956V288H424.378V275.203H432.938V277.339H427.014V280.389H432.077V282.454ZM435.403 288V275.203H439.885C441.438 275.203 442.616 275.502 443.418 276.1C444.221 276.691 444.622 277.562 444.622 278.71C444.622 279.337 444.461 279.891 444.139 280.371C443.817 280.846 443.369 281.194 442.794 281.417C443.451 281.581 443.966 281.912 444.341 282.41C444.722 282.908 444.912 283.518 444.912 284.238C444.912 285.469 444.52 286.4 443.735 287.033C442.95 287.666 441.83 287.988 440.377 288H435.403ZM438.039 282.428V285.882H440.298C440.919 285.882 441.403 285.735 441.748 285.442C442.1 285.144 442.276 284.733 442.276 284.212C442.276 283.04 441.669 282.445 440.456 282.428H438.039ZM438.039 280.564H439.991C441.321 280.541 441.986 280.011 441.986 278.974C441.986 278.394 441.816 277.978 441.476 277.726C441.142 277.468 440.612 277.339 439.885 277.339H438.039V280.564ZM458.311 281.892C458.311 283.151 458.088 284.256 457.643 285.205C457.197 286.154 456.559 286.887 455.727 287.402C454.9 287.918 453.951 288.176 452.879 288.176C451.818 288.176 450.872 287.921 450.04 287.411C449.208 286.901 448.563 286.175 448.106 285.231C447.649 284.282 447.418 283.192 447.412 281.962V281.329C447.412 280.069 447.638 278.962 448.089 278.007C448.546 277.046 449.188 276.311 450.014 275.801C450.846 275.285 451.795 275.027 452.861 275.027C453.928 275.027 454.874 275.285 455.7 275.801C456.532 276.311 457.174 277.046 457.625 278.007C458.082 278.962 458.311 280.066 458.311 281.32V281.892ZM455.639 281.312C455.639 279.97 455.398 278.95 454.918 278.253C454.438 277.556 453.752 277.207 452.861 277.207C451.977 277.207 451.294 277.553 450.813 278.244C450.333 278.93 450.09 279.938 450.084 281.268V281.892C450.084 283.198 450.324 284.212 450.805 284.933C451.285 285.653 451.977 286.014 452.879 286.014C453.764 286.014 454.443 285.668 454.918 284.977C455.393 284.279 455.633 283.266 455.639 281.936V281.312ZM467.437 278.728C467.437 278.241 467.247 277.86 466.866 277.585C466.485 277.304 465.981 277.163 465.354 277.163C464.792 277.163 464.323 277.304 463.948 277.585C463.579 277.86 463.394 278.221 463.394 278.666H460.757C460.757 277.975 460.951 277.354 461.337 276.803C461.73 276.246 462.284 275.812 462.999 275.502C463.719 275.191 464.504 275.036 465.354 275.036C466.831 275.036 467.988 275.353 468.826 275.985C469.664 276.618 470.083 277.515 470.083 278.675C470.083 279.243 469.91 279.771 469.564 280.257C469.224 280.743 468.738 281.133 468.105 281.426C468.808 281.672 469.347 282.047 469.722 282.551C470.097 283.049 470.285 283.67 470.285 284.414C470.285 285.562 469.834 286.477 468.931 287.156C468.035 287.83 466.842 288.167 465.354 288.167C464.422 288.167 463.585 288.009 462.84 287.692C462.096 287.37 461.531 286.934 461.144 286.383C460.763 285.826 460.573 285.182 460.573 284.449H463.227C463.227 284.906 463.426 285.29 463.825 285.601C464.223 285.905 464.733 286.058 465.354 286.058C466.057 286.058 466.611 285.899 467.015 285.583C467.425 285.267 467.63 284.865 467.63 284.379C467.63 283.711 467.449 283.233 467.086 282.946C466.722 282.653 466.192 282.507 465.495 282.507H463.921V280.441H465.547C466.807 280.424 467.437 279.853 467.437 278.728ZM477.311 282.771H475.79V288H473.154V275.203H475.79V280.327H476.994L480.123 275.203H483.34L479.394 281.259L483.753 288H480.607L477.311 282.771ZM493.346 275.203H495.991V288H493.346V279.501L488.221 288H485.585V275.203H488.221V283.72L493.346 275.203Z" fill="white"/>
<g clip-path="url(#clip1_8_124)">
<path d="M429.893 198.073L426.718 199.518C426.515 199.612 426.327 199.74 426.168 199.9L420.994 205.076L403.179 202.94C402.857 202.902 402.532 203.012 402.304 203.243L401.312 204.235C400.787 204.76 400.949 205.648 401.628 205.952L414.395 211.675L410.73 215.341H404.327C404.046 215.341 403.777 215.453 403.577 215.65L403.042 216.188C402.51 216.72 402.685 217.618 403.373 217.912L408.775 220.226L411.089 225.628C411.383 226.316 412.284 226.491 412.813 225.959L413.351 225.421C413.551 225.221 413.66 224.952 413.66 224.671V218.268L417.326 214.603L423.049 227.373C423.353 228.052 424.241 228.214 424.766 227.689L425.758 226.697C425.989 226.466 426.099 226.144 426.061 225.822L423.922 208.007L429.098 202.83C429.258 202.671 429.386 202.486 429.48 202.28L430.925 199.105C431.228 198.452 430.553 197.773 429.893 198.073Z" fill="white"/>
</g>
<rect x="555" y="143" width="276" height="180" fill="#393F47"/>
<path d="M619.334 285.363H614.711L613.832 288H611.028L615.792 275.203H618.235L623.025 288H620.221L619.334 285.363ZM615.422 283.228H618.622L617.013 278.438L615.422 283.228ZM625.12 288V275.203H629.603C631.155 275.203 632.333 275.502 633.136 276.1C633.939 276.691 634.34 277.562 634.34 278.71C634.34 279.337 634.179 279.891 633.857 280.371C633.534 280.846 633.086 281.194 632.512 281.417C633.168 281.581 633.684 281.912 634.059 282.41C634.44 282.908 634.63 283.518 634.63 284.238C634.63 285.469 634.238 286.4 633.452 287.033C632.667 287.666 631.548 287.988 630.095 288H625.12ZM627.757 282.428V285.882H630.016C630.637 285.882 631.12 285.735 631.466 285.442C631.818 285.144 631.993 284.733 631.993 284.212C631.993 283.04 631.387 282.445 630.174 282.428H627.757ZM627.757 280.564H629.708C631.038 280.541 631.703 280.011 631.703 278.974C631.703 278.394 631.533 277.978 631.194 277.726C630.86 277.468 630.329 277.339 629.603 277.339H627.757V280.564ZM645.189 275.203H647.835V288H645.189V279.501L640.065 288H637.429V275.203H640.065V283.72L645.189 275.203ZM658.403 285.363H653.78L652.901 288H650.097L654.861 275.203H657.304L662.094 288H659.29L658.403 285.363ZM654.492 283.228H657.691L656.082 278.438L654.492 283.228ZM674.613 288H671.968V277.339H666.844V288H664.207V275.203H674.613V288ZM685.533 282.454H680.47V285.882H686.412V288H677.834V275.203H686.394V277.339H680.47V280.389H685.533V282.454ZM691.495 283.491V288H688.859V275.203H693.851C694.812 275.203 695.655 275.379 696.382 275.73C697.114 276.082 697.677 276.583 698.07 277.233C698.462 277.878 698.658 278.613 698.658 279.439C698.658 280.693 698.228 281.684 697.366 282.41C696.511 283.131 695.324 283.491 693.807 283.491H691.495ZM691.495 281.355H693.851C694.548 281.355 695.078 281.191 695.442 280.863C695.811 280.535 695.995 280.066 695.995 279.457C695.995 278.83 695.811 278.323 695.442 277.937C695.072 277.55 694.563 277.351 693.912 277.339H691.495V281.355ZM709.077 282.454H704.014V285.882H709.956V288H701.378V275.203H709.938V277.339H704.014V280.389H709.077V282.454ZM712.403 288V275.203H716.885C718.438 275.203 719.616 275.502 720.418 276.1C721.221 276.691 721.622 277.562 721.622 278.71C721.622 279.337 721.461 279.891 721.139 280.371C720.817 280.846 720.369 281.194 719.794 281.417C720.451 281.581 720.966 281.912 721.341 282.41C721.722 282.908 721.912 283.518 721.912 284.238C721.912 285.469 721.52 286.4 720.735 287.033C719.95 287.666 718.83 287.988 717.377 288H712.403ZM715.039 282.428V285.882H717.298C717.919 285.882 718.403 285.735 718.748 285.442C719.1 285.144 719.276 284.733 719.276 284.212C719.276 283.04 718.669 282.445 717.456 282.428H715.039ZM715.039 280.564H716.991C718.321 280.541 718.986 280.011 718.986 278.974C718.986 278.394 718.816 277.978 718.476 277.726C718.142 277.468 717.612 277.339 716.885 277.339H715.039V280.564ZM735.311 281.892C735.311 283.151 735.088 284.256 734.643 285.205C734.197 286.154 733.559 286.887 732.727 287.402C731.9 287.918 730.951 288.176 729.879 288.176C728.818 288.176 727.872 287.921 727.04 287.411C726.208 286.901 725.563 286.175 725.106 285.231C724.649 284.282 724.418 283.192 724.412 281.962V281.329C724.412 280.069 724.638 278.962 725.089 278.007C725.546 277.046 726.188 276.311 727.014 275.801C727.846 275.285 728.795 275.027 729.861 275.027C730.928 275.027 731.874 275.285 732.7 275.801C733.532 276.311 734.174 277.046 734.625 278.007C735.082 278.962 735.311 280.066 735.311 281.32V281.892ZM732.639 281.312C732.639 279.97 732.398 278.95 731.918 278.253C731.438 277.556 730.752 277.207 729.861 277.207C728.977 277.207 728.294 277.553 727.813 278.244C727.333 278.93 727.09 279.938 727.084 281.268V281.892C727.084 283.198 727.324 284.212 727.805 284.933C728.285 285.653 728.977 286.014 729.879 286.014C730.764 286.014 731.443 285.668 731.918 284.977C732.393 284.279 732.633 283.266 732.639 281.936V281.312ZM744.437 278.728C744.437 278.241 744.247 277.86 743.866 277.585C743.485 277.304 742.981 277.163 742.354 277.163C741.792 277.163 741.323 277.304 740.948 277.585C740.579 277.86 740.394 278.221 740.394 278.666H737.757C737.757 277.975 737.951 277.354 738.337 276.803C738.73 276.246 739.284 275.812 739.999 275.502C740.719 275.191 741.504 275.036 742.354 275.036C743.831 275.036 744.988 275.353 745.826 275.985C746.664 276.618 747.083 277.515 747.083 278.675C747.083 279.243 746.91 279.771 746.564 280.257C746.224 280.743 745.738 281.133 745.105 281.426C745.808 281.672 746.347 282.047 746.722 282.551C747.097 283.049 747.285 283.67 747.285 284.414C747.285 285.562 746.834 286.477 745.931 287.156C745.035 287.83 743.842 288.167 742.354 288.167C741.422 288.167 740.585 288.009 739.84 287.692C739.096 287.37 738.531 286.934 738.144 286.383C737.763 285.826 737.573 285.182 737.573 284.449H740.227C740.227 284.906 740.426 285.29 740.825 285.601C741.223 285.905 741.733 286.058 742.354 286.058C743.057 286.058 743.611 285.899 744.015 285.583C744.425 285.267 744.63 284.865 744.63 284.379C744.63 283.711 744.449 283.233 744.086 282.946C743.722 282.653 743.192 282.507 742.495 282.507H740.921V280.441H742.547C743.807 280.424 744.437 279.853 744.437 278.728ZM754.311 282.771H752.79V288H750.154V275.203H752.79V280.327H753.994L757.123 275.203H760.34L756.394 281.259L760.753 288H757.607L754.311 282.771ZM770.346 275.203H772.991V288H770.346V279.501L765.221 288H762.585V275.203H765.221V283.72L770.346 275.203Z" fill="white"/>
<g clip-path="url(#clip2_8_124)">
<path d="M706.893 198.073L703.718 199.518C703.515 199.612 703.327 199.74 703.168 199.9L697.994 205.076L680.179 202.94C679.857 202.902 679.532 203.012 679.304 203.243L678.312 204.235C677.787 204.76 677.949 205.648 678.628 205.952L691.395 211.675L687.73 215.341H681.327C681.046 215.341 680.777 215.453 680.577 215.65L680.042 216.188C679.51 216.72 679.685 217.618 680.373 217.912L685.775 220.226L688.089 225.628C688.383 226.316 689.284 226.491 689.813 225.959L690.351 225.421C690.551 225.221 690.66 224.952 690.66 224.671V218.268L694.326 214.603L700.049 227.373C700.353 228.052 701.241 228.214 701.766 227.689L702.758 226.697C702.989 226.466 703.099 226.144 703.061 225.822L700.922 208.007L706.098 202.83C706.258 202.671 706.386 202.486 706.48 202.28L707.925 199.105C708.228 198.452 707.553 197.773 706.893 198.073Z" fill="white"/>
</g>
<rect x="832" y="143" width="276" height="180" fill="#393F47"/>
<path d="M896.334 285.363H891.711L890.832 288H888.028L892.792 275.203H895.235L900.025 288H897.221L896.334 285.363ZM892.422 283.228H895.622L894.013 278.438L892.422 283.228ZM902.12 288V275.203H906.603C908.155 275.203 909.333 275.502 910.136 276.1C910.939 276.691 911.34 277.562 911.34 278.71C911.34 279.337 911.179 279.891 910.857 280.371C910.534 280.846 910.086 281.194 909.512 281.417C910.168 281.581 910.684 281.912 911.059 282.41C911.44 282.908 911.63 283.518 911.63 284.238C911.63 285.469 911.238 286.4 910.452 287.033C909.667 287.666 908.548 287.988 907.095 288H902.12ZM904.757 282.428V285.882H907.016C907.637 285.882 908.12 285.735 908.466 285.442C908.818 285.144 908.993 284.733 908.993 284.212C908.993 283.04 908.387 282.445 907.174 282.428H904.757ZM904.757 280.564H906.708C908.038 280.541 908.703 280.011 908.703 278.974C908.703 278.394 908.533 277.978 908.194 277.726C907.86 277.468 907.329 277.339 906.603 277.339H904.757V280.564ZM922.189 275.203H924.835V288H922.189V279.501L917.065 288H914.429V275.203H917.065V283.72L922.189 275.203ZM935.403 285.363H930.78L929.901 288H927.097L931.861 275.203H934.304L939.094 288H936.29L935.403 285.363ZM931.492 283.228H934.691L933.082 278.438L931.492 283.228ZM951.613 288H948.968V277.339H943.844V288H941.207V275.203H951.613V288ZM962.533 282.454H957.47V285.882H963.412V288H954.834V275.203H963.394V277.339H957.47V280.389H962.533V282.454ZM968.495 283.491V288H965.859V275.203H970.851C971.812 275.203 972.655 275.379 973.382 275.73C974.114 276.082 974.677 276.583 975.07 277.233C975.462 277.878 975.658 278.613 975.658 279.439C975.658 280.693 975.228 281.684 974.366 282.41C973.511 283.131 972.324 283.491 970.807 283.491H968.495ZM968.495 281.355H970.851C971.548 281.355 972.078 281.191 972.442 280.863C972.811 280.535 972.995 280.066 972.995 279.457C972.995 278.83 972.811 278.323 972.442 277.937C972.072 277.55 971.563 277.351 970.912 277.339H968.495V281.355ZM986.077 282.454H981.014V285.882H986.956V288H978.378V275.203H986.938V277.339H981.014V280.389H986.077V282.454ZM989.403 288V275.203H993.885C995.438 275.203 996.616 275.502 997.418 276.1C998.221 276.691 998.622 277.562 998.622 278.71C998.622 279.337 998.461 279.891 998.139 280.371C997.817 280.846 997.369 281.194 996.794 281.417C997.451 281.581 997.966 281.912 998.341 282.41C998.722 282.908 998.912 283.518 998.912 284.238C998.912 285.469 998.52 286.4 997.735 287.033C996.95 287.666 995.83 287.988 994.377 288H989.403ZM992.039 282.428V285.882H994.298C994.919 285.882 995.403 285.735 995.748 285.442C996.1 285.144 996.276 284.733 996.276 284.212C996.276 283.04 995.669 282.445 994.456 282.428H992.039ZM992.039 280.564H993.991C995.321 280.541 995.986 280.011 995.986 278.974C995.986 278.394 995.816 277.978 995.476 277.726C995.142 277.468 994.612 277.339 993.885 277.339H992.039V280.564ZM1012.31 281.892C1012.31 283.151 1012.09 284.256 1011.64 285.205C1011.2 286.154 1010.56 286.887 1009.73 287.402C1008.9 287.918 1007.95 288.176 1006.88 288.176C1005.82 288.176 1004.87 287.921 1004.04 287.411C1003.21 286.901 1002.56 286.175 1002.11 285.231C1001.65 284.282 1001.42 283.192 1001.41 281.962V281.329C1001.41 280.069 1001.64 278.962 1002.09 278.007C1002.55 277.046 1003.19 276.311 1004.01 275.801C1004.85 275.285 1005.79 275.027 1006.86 275.027C1007.93 275.027 1008.87 275.285 1009.7 275.801C1010.53 276.311 1011.17 277.046 1011.62 278.007C1012.08 278.962 1012.31 280.066 1012.31 281.32V281.892ZM1009.64 281.312C1009.64 279.97 1009.4 278.95 1008.92 278.253C1008.44 277.556 1007.75 277.207 1006.86 277.207C1005.98 277.207 1005.29 277.553 1004.81 278.244C1004.33 278.93 1004.09 279.938 1004.08 281.268V281.892C1004.08 283.198 1004.32 284.212 1004.8 284.933C1005.29 285.653 1005.98 286.014 1006.88 286.014C1007.76 286.014 1008.44 285.668 1008.92 284.977C1009.39 284.279 1009.63 283.266 1009.64 281.936V281.312ZM1021.44 278.728C1021.44 278.241 1021.25 277.86 1020.87 277.585C1020.48 277.304 1019.98 277.163 1019.35 277.163C1018.79 277.163 1018.32 277.304 1017.95 277.585C1017.58 277.86 1017.39 278.221 1017.39 278.666H1014.76C1014.76 277.975 1014.95 277.354 1015.34 276.803C1015.73 276.246 1016.28 275.812 1017 275.502C1017.72 275.191 1018.5 275.036 1019.35 275.036C1020.83 275.036 1021.99 275.353 1022.83 275.985C1023.66 276.618 1024.08 277.515 1024.08 278.675C1024.08 279.243 1023.91 279.771 1023.56 280.257C1023.22 280.743 1022.74 281.133 1022.11 281.426C1022.81 281.672 1023.35 282.047 1023.72 282.551C1024.1 283.049 1024.28 283.67 1024.28 284.414C1024.28 285.562 1023.83 286.477 1022.93 287.156C1022.03 287.83 1020.84 288.167 1019.35 288.167C1018.42 288.167 1017.58 288.009 1016.84 287.692C1016.1 287.37 1015.53 286.934 1015.14 286.383C1014.76 285.826 1014.57 285.182 1014.57 284.449H1017.23C1017.23 284.906 1017.43 285.29 1017.82 285.601C1018.22 285.905 1018.73 286.058 1019.35 286.058C1020.06 286.058 1020.61 285.899 1021.02 285.583C1021.43 285.267 1021.63 284.865 1021.63 284.379C1021.63 283.711 1021.45 283.233 1021.09 282.946C1020.72 282.653 1020.19 282.507 1019.49 282.507H1017.92V280.441H1019.55C1020.81 280.424 1021.44 279.853 1021.44 278.728ZM1031.31 282.771H1029.79V288H1027.15V275.203H1029.79V280.327H1030.99L1034.12 275.203H1037.34L1033.39 281.259L1037.75 288H1034.61L1031.31 282.771ZM1047.35 275.203H1049.99V288H1047.35V279.501L1042.22 288H1039.58V275.203H1042.22V283.72L1047.35 275.203Z" fill="white"/>
<g clip-path="url(#clip3_8_124)">
<path d="M983.893 198.073L980.718 199.518C980.515 199.612 980.327 199.74 980.168 199.9L974.994 205.076L957.179 202.94C956.857 202.902 956.532 203.012 956.304 203.243L955.312 204.235C954.787 204.76 954.949 205.648 955.628 205.952L968.395 211.675L964.73 215.341H958.327C958.046 215.341 957.777 215.453 957.577 215.65L957.042 216.188C956.51 216.72 956.685 217.618 957.373 217.912L962.775 220.226L965.089 225.628C965.383 226.316 966.284 226.491 966.813 225.959L967.351 225.421C967.551 225.221 967.66 224.952 967.66 224.671V218.268L971.326 214.603L977.049 227.373C977.353 228.052 978.241 228.214 978.766 227.689L979.758 226.697C979.989 226.466 980.099 226.144 980.061 225.822L977.922 208.007L983.098 202.83C983.258 202.671 983.386 202.486 983.48 202.28L984.925 199.105C985.228 198.452 984.553 197.773 983.893 198.073Z" fill="white"/>
</g>
<rect x="278" y="324" width="276" height="180" fill="#393F47"/>
<path d="M342.334 466.363H337.711L336.832 469H334.028L338.792 456.203H341.235L346.025 469H343.221L342.334 466.363ZM338.422 464.228H341.622L340.013 459.438L338.422 464.228ZM348.12 469V456.203H352.603C354.155 456.203 355.333 456.502 356.136 457.1C356.939 457.691 357.34 458.562 357.34 459.71C357.34 460.337 357.179 460.891 356.857 461.371C356.534 461.846 356.086 462.194 355.512 462.417C356.168 462.581 356.684 462.912 357.059 463.41C357.44 463.908 357.63 464.518 357.63 465.238C357.63 466.469 357.238 467.4 356.452 468.033C355.667 468.666 354.548 468.988 353.095 469H348.12ZM350.757 463.428V466.882H353.016C353.637 466.882 354.12 466.735 354.466 466.442C354.818 466.144 354.993 465.733 354.993 465.212C354.993 464.04 354.387 463.445 353.174 463.428H350.757ZM350.757 461.564H352.708C354.038 461.541 354.703 461.011 354.703 459.974C354.703 459.394 354.533 458.978 354.194 458.726C353.86 458.468 353.329 458.339 352.603 458.339H350.757V461.564ZM368.189 456.203H370.835V469H368.189V460.501L363.065 469H360.429V456.203H363.065V464.72L368.189 456.203ZM381.403 466.363H376.78L375.901 469H373.097L377.861 456.203H380.304L385.094 469H382.29L381.403 466.363ZM377.492 464.228H380.691L379.082 459.438L377.492 464.228ZM397.613 469H394.968V458.339H389.844V469H387.207V456.203H397.613V469ZM408.533 463.454H403.47V466.882H409.412V469H400.834V456.203H409.394V458.339H403.47V461.389H408.533V463.454ZM414.495 464.491V469H411.859V456.203H416.851C417.812 456.203 418.655 456.379 419.382 456.73C420.114 457.082 420.677 457.583 421.07 458.233C421.462 458.878 421.658 459.613 421.658 460.439C421.658 461.693 421.228 462.684 420.366 463.41C419.511 464.131 418.324 464.491 416.807 464.491H414.495ZM414.495 462.355H416.851C417.548 462.355 418.078 462.191 418.442 461.863C418.811 461.535 418.995 461.066 418.995 460.457C418.995 459.83 418.811 459.323 418.442 458.937C418.072 458.55 417.563 458.351 416.912 458.339H414.495V462.355ZM432.077 463.454H427.014V466.882H432.956V469H424.378V456.203H432.938V458.339H427.014V461.389H432.077V463.454ZM435.403 469V456.203H439.885C441.438 456.203 442.616 456.502 443.418 457.1C444.221 457.691 444.622 458.562 444.622 459.71C444.622 460.337 444.461 460.891 444.139 461.371C443.817 461.846 443.369 462.194 442.794 462.417C443.451 462.581 443.966 462.912 444.341 463.41C444.722 463.908 444.912 464.518 444.912 465.238C444.912 466.469 444.52 467.4 443.735 468.033C442.95 468.666 441.83 468.988 440.377 469H435.403ZM438.039 463.428V466.882H440.298C440.919 466.882 441.403 466.735 441.748 466.442C442.1 466.144 442.276 465.733 442.276 465.212C442.276 464.04 441.669 463.445 440.456 463.428H438.039ZM438.039 461.564H439.991C441.321 461.541 441.986 461.011 441.986 459.974C441.986 459.394 441.816 458.978 441.476 458.726C441.142 458.468 440.612 458.339 439.885 458.339H438.039V461.564ZM458.311 462.892C458.311 464.151 458.088 465.256 457.643 466.205C457.197 467.154 456.559 467.887 455.727 468.402C454.9 468.918 453.951 469.176 452.879 469.176C451.818 469.176 450.872 468.921 450.04 468.411C449.208 467.901 448.563 467.175 448.106 466.231C447.649 465.282 447.418 464.192 447.412 462.962V462.329C447.412 461.069 447.638 459.962 448.089 459.007C448.546 458.046 449.188 457.311 450.014 456.801C450.846 456.285 451.795 456.027 452.861 456.027C453.928 456.027 454.874 456.285 455.7 456.801C456.532 457.311 457.174 458.046 457.625 459.007C458.082 459.962 458.311 461.066 458.311 462.32V462.892ZM455.639 462.312C455.639 460.97 455.398 459.95 454.918 459.253C454.438 458.556 453.752 458.207 452.861 458.207C451.977 458.207 451.294 458.553 450.813 459.244C450.333 459.93 450.09 460.938 450.084 462.268V462.892C450.084 464.198 450.324 465.212 450.805 465.933C451.285 466.653 451.977 467.014 452.879 467.014C453.764 467.014 454.443 466.668 454.918 465.977C455.393 465.279 455.633 464.266 455.639 462.936V462.312ZM467.437 459.728C467.437 459.241 467.247 458.86 466.866 458.585C466.485 458.304 465.981 458.163 465.354 458.163C464.792 458.163 464.323 458.304 463.948 458.585C463.579 458.86 463.394 459.221 463.394 459.666H460.757C460.757 458.975 460.951 458.354 461.337 457.803C461.73 457.246 462.284 456.812 462.999 456.502C463.719 456.191 464.504 456.036 465.354 456.036C466.831 456.036 467.988 456.353 468.826 456.985C469.664 457.618 470.083 458.515 470.083 459.675C470.083 460.243 469.91 460.771 469.564 461.257C469.224 461.743 468.738 462.133 468.105 462.426C468.808 462.672 469.347 463.047 469.722 463.551C470.097 464.049 470.285 464.67 470.285 465.414C470.285 466.562 469.834 467.477 468.931 468.156C468.035 468.83 466.842 469.167 465.354 469.167C464.422 469.167 463.585 469.009 462.84 468.692C462.096 468.37 461.531 467.934 461.144 467.383C460.763 466.826 460.573 466.182 460.573 465.449H463.227C463.227 465.906 463.426 466.29 463.825 466.601C464.223 466.905 464.733 467.058 465.354 467.058C466.057 467.058 466.611 466.899 467.015 466.583C467.425 466.267 467.63 465.865 467.63 465.379C467.63 464.711 467.449 464.233 467.086 463.946C466.722 463.653 466.192 463.507 465.495 463.507H463.921V461.441H465.547C466.807 461.424 467.437 460.853 467.437 459.728ZM477.311 463.771H475.79V469H473.154V456.203H475.79V461.327H476.994L480.123 456.203H483.34L479.394 462.259L483.753 469H480.607L477.311 463.771ZM493.346 456.203H495.991V469H493.346V460.501L488.221 469H485.585V456.203H488.221V464.72L493.346 456.203Z" fill="white"/>
<g clip-path="url(#clip4_8_124)">
<path d="M429.893 379.073L426.718 380.518C426.515 380.612 426.327 380.74 426.168 380.9L420.994 386.076L403.179 383.94C402.857 383.902 402.532 384.012 402.304 384.243L401.312 385.235C400.787 385.76 400.949 386.648 401.628 386.952L414.395 392.675L410.73 396.341H404.327C404.046 396.341 403.777 396.453 403.577 396.65L403.042 397.188C402.51 397.72 402.685 398.618 403.373 398.912L408.775 401.226L411.089 406.628C411.383 407.316 412.284 407.491 412.813 406.959L413.351 406.421C413.551 406.221 413.66 405.952 413.66 405.671V399.268L417.326 395.603L423.049 408.373C423.353 409.052 424.241 409.214 424.766 408.689L425.758 407.697C425.989 407.466 426.099 407.144 426.061 406.822L423.922 389.007L429.098 383.83C429.258 383.671 429.386 383.486 429.48 383.28L430.925 380.105C431.228 379.452 430.553 378.773 429.893 379.073Z" fill="white"/>
</g>
<rect x="1" y="324" width="276" height="180" fill="#393F47"/>
<path d="M65.3336 466.363H60.7105L59.8316 469H57.0279L61.7916 456.203H64.235L69.025 469H66.2213L65.3336 466.363ZM61.4225 464.228H64.6217L63.0133 459.438L61.4225 464.228ZM71.1203 469V456.203H75.6027C77.1555 456.203 78.3332 456.502 79.1359 457.1C79.9387 457.691 80.34 458.562 80.34 459.71C80.34 460.337 80.1789 460.891 79.8566 461.371C79.5344 461.846 79.0861 462.194 78.5119 462.417C79.1682 462.581 79.6838 462.912 80.0588 463.41C80.4396 463.908 80.6301 464.518 80.6301 465.238C80.6301 466.469 80.2375 467.4 79.4523 468.033C78.6672 468.666 77.548 468.988 76.0949 469H71.1203ZM73.757 463.428V466.882H76.0158C76.6369 466.882 77.1203 466.735 77.466 466.442C77.8176 466.144 77.9934 465.733 77.9934 465.212C77.9934 464.04 77.3869 463.445 76.174 463.428H73.757ZM73.757 461.564H75.7082C77.0383 461.541 77.7033 461.011 77.7033 459.974C77.7033 459.394 77.5334 458.978 77.1936 458.726C76.8596 458.468 76.3293 458.339 75.6027 458.339H73.757V461.564ZM91.1893 456.203H93.8348V469H91.1893V460.501L86.0652 469H83.4285V456.203H86.0652V464.72L91.1893 456.203ZM104.403 466.363H99.7797L98.9008 469H96.0971L100.861 456.203H103.304L108.094 469H105.29L104.403 466.363ZM100.492 464.228H103.691L102.082 459.438L100.492 464.228ZM120.613 469H117.968V458.339H112.844V469H110.207V456.203H120.613V469ZM131.533 463.454H126.47V466.882H132.412V469H123.834V456.203H132.394V458.339H126.47V461.389H131.533V463.454ZM137.495 464.491V469H134.859V456.203H139.851C140.812 456.203 141.655 456.379 142.382 456.73C143.114 457.082 143.677 457.583 144.07 458.233C144.462 458.878 144.658 459.613 144.658 460.439C144.658 461.693 144.228 462.684 143.366 463.41C142.511 464.131 141.324 464.491 139.807 464.491H137.495ZM137.495 462.355H139.851C140.548 462.355 141.078 462.191 141.442 461.863C141.811 461.535 141.995 461.066 141.995 460.457C141.995 459.83 141.811 459.323 141.442 458.937C141.072 458.55 140.563 458.351 139.912 458.339H137.495V462.355ZM155.077 463.454H150.014V466.882H155.956V469H147.378V456.203H155.938V458.339H150.014V461.389H155.077V463.454ZM158.403 469V456.203H162.885C164.438 456.203 165.616 456.502 166.418 457.1C167.221 457.691 167.622 458.562 167.622 459.71C167.622 460.337 167.461 460.891 167.139 461.371C166.817 461.846 166.369 462.194 165.794 462.417C166.451 462.581 166.966 462.912 167.341 463.41C167.722 463.908 167.912 464.518 167.912 465.238C167.912 466.469 167.52 467.4 166.735 468.033C165.95 468.666 164.83 468.988 163.377 469H158.403ZM161.039 463.428V466.882H163.298C163.919 466.882 164.403 466.735 164.748 466.442C165.1 466.144 165.276 465.733 165.276 465.212C165.276 464.04 164.669 463.445 163.456 463.428H161.039ZM161.039 461.564H162.991C164.321 461.541 164.986 461.011 164.986 459.974C164.986 459.394 164.816 458.978 164.476 458.726C164.142 458.468 163.612 458.339 162.885 458.339H161.039V461.564ZM181.311 462.892C181.311 464.151 181.088 465.256 180.643 466.205C180.197 467.154 179.559 467.887 178.727 468.402C177.9 468.918 176.951 469.176 175.879 469.176C174.818 469.176 173.872 468.921 173.04 468.411C172.208 467.901 171.563 467.175 171.106 466.231C170.649 465.282 170.418 464.192 170.412 462.962V462.329C170.412 461.069 170.638 459.962 171.089 459.007C171.546 458.046 172.188 457.311 173.014 456.801C173.846 456.285 174.795 456.027 175.861 456.027C176.928 456.027 177.874 456.285 178.7 456.801C179.532 457.311 180.174 458.046 180.625 459.007C181.082 459.962 181.311 461.066 181.311 462.32V462.892ZM178.639 462.312C178.639 460.97 178.398 459.95 177.918 459.253C177.438 458.556 176.752 458.207 175.861 458.207C174.977 458.207 174.294 458.553 173.813 459.244C173.333 459.93 173.09 460.938 173.084 462.268V462.892C173.084 464.198 173.324 465.212 173.805 465.933C174.285 466.653 174.977 467.014 175.879 467.014C176.764 467.014 177.443 466.668 177.918 465.977C178.393 465.279 178.633 464.266 178.639 462.936V462.312ZM190.437 459.728C190.437 459.241 190.247 458.86 189.866 458.585C189.485 458.304 188.981 458.163 188.354 458.163C187.792 458.163 187.323 458.304 186.948 458.585C186.579 458.86 186.394 459.221 186.394 459.666H183.757C183.757 458.975 183.951 458.354 184.337 457.803C184.73 457.246 185.284 456.812 185.999 456.502C186.719 456.191 187.504 456.036 188.354 456.036C189.831 456.036 190.988 456.353 191.826 456.985C192.664 457.618 193.083 458.515 193.083 459.675C193.083 460.243 192.91 460.771 192.564 461.257C192.224 461.743 191.738 462.133 191.105 462.426C191.808 462.672 192.347 463.047 192.722 463.551C193.097 464.049 193.285 464.67 193.285 465.414C193.285 466.562 192.834 467.477 191.931 468.156C191.035 468.83 189.842 469.167 188.354 469.167C187.422 469.167 186.585 469.009 185.84 468.692C185.096 468.37 184.531 467.934 184.144 467.383C183.763 466.826 183.573 466.182 183.573 465.449H186.227C186.227 465.906 186.426 466.29 186.825 466.601C187.223 466.905 187.733 467.058 188.354 467.058C189.057 467.058 189.611 466.899 190.015 466.583C190.425 466.267 190.63 465.865 190.63 465.379C190.63 464.711 190.449 464.233 190.086 463.946C189.722 463.653 189.192 463.507 188.495 463.507H186.921V461.441H188.547C189.807 461.424 190.437 460.853 190.437 459.728ZM200.311 463.771H198.79V469H196.154V456.203H198.79V461.327H199.994L203.123 456.203H206.34L202.394 462.259L206.753 469H203.607L200.311 463.771ZM216.346 456.203H218.991V469H216.346V460.501L211.221 469H208.585V456.203H211.221V464.72L216.346 456.203Z" fill="white"/>
<g clip-path="url(#clip5_8_124)">
<path d="M152.893 379.073L149.718 380.518C149.515 380.612 149.327 380.74 149.168 380.9L143.994 386.076L126.179 383.94C125.857 383.902 125.532 384.012 125.304 384.243L124.312 385.235C123.787 385.76 123.949 386.648 124.628 386.952L137.395 392.675L133.73 396.341H127.327C127.046 396.341 126.777 396.453 126.577 396.65L126.042 397.188C125.51 397.72 125.685 398.618 126.373 398.912L131.775 401.226L134.089 406.628C134.383 407.316 135.284 407.491 135.813 406.959L136.351 406.421C136.551 406.221 136.66 405.952 136.66 405.671V399.268L140.326 395.603L146.049 408.373C146.353 409.052 147.241 409.214 147.766 408.689L148.758 407.697C148.989 407.466 149.099 407.144 149.061 406.822L146.922 389.007L152.098 383.83C152.258 383.671 152.386 383.486 152.48 383.28L153.925 380.105C154.228 379.452 153.553 378.773 152.893 379.073Z" fill="white"/>
</g>
<rect x="555" y="324" width="276" height="180" fill="#393F47"/>
<path d="M619.334 466.363H614.711L613.832 469H611.028L615.792 456.203H618.235L623.025 469H620.221L619.334 466.363ZM615.422 464.228H618.622L617.013 459.438L615.422 464.228ZM625.12 469V456.203H629.603C631.155 456.203 632.333 456.502 633.136 457.1C633.939 457.691 634.34 458.562 634.34 459.71C634.34 460.337 634.179 460.891 633.857 461.371C633.534 461.846 633.086 462.194 632.512 462.417C633.168 462.581 633.684 462.912 634.059 463.41C634.44 463.908 634.63 464.518 634.63 465.238C634.63 466.469 634.238 467.4 633.452 468.033C632.667 468.666 631.548 468.988 630.095 469H625.12ZM627.757 463.428V466.882H630.016C630.637 466.882 631.12 466.735 631.466 466.442C631.818 466.144 631.993 465.733 631.993 465.212C631.993 464.04 631.387 463.445 630.174 463.428H627.757ZM627.757 461.564H629.708C631.038 461.541 631.703 461.011 631.703 459.974C631.703 459.394 631.533 458.978 631.194 458.726C630.86 458.468 630.329 458.339 629.603 458.339H627.757V461.564ZM645.189 456.203H647.835V469H645.189V460.501L640.065 469H637.429V456.203H640.065V464.72L645.189 456.203ZM658.403 466.363H653.78L652.901 469H650.097L654.861 456.203H657.304L662.094 469H659.29L658.403 466.363ZM654.492 464.228H657.691L656.082 459.438L654.492 464.228ZM674.613 469H671.968V458.339H666.844V469H664.207V456.203H674.613V469ZM685.533 463.454H680.47V466.882H686.412V469H677.834V456.203H686.394V458.339H680.47V461.389H685.533V463.454ZM691.495 464.491V469H688.859V456.203H693.851C694.812 456.203 695.655 456.379 696.382 456.73C697.114 457.082 697.677 457.583 698.07 458.233C698.462 458.878 698.658 459.613 698.658 460.439C698.658 461.693 698.228 462.684 697.366 463.41C696.511 464.131 695.324 464.491 693.807 464.491H691.495ZM691.495 462.355H693.851C694.548 462.355 695.078 462.191 695.442 461.863C695.811 461.535 695.995 461.066 695.995 460.457C695.995 459.83 695.811 459.323 695.442 458.937C695.072 458.55 694.563 458.351 693.912 458.339H691.495V462.355ZM709.077 463.454H704.014V466.882H709.956V469H701.378V456.203H709.938V458.339H704.014V461.389H709.077V463.454ZM712.403 469V456.203H716.885C718.438 456.203 719.616 456.502 720.418 457.1C721.221 457.691 721.622 458.562 721.622 459.71C721.622 460.337 721.461 460.891 721.139 461.371C720.817 461.846 720.369 462.194 719.794 462.417C720.451 462.581 720.966 462.912 721.341 463.41C721.722 463.908 721.912 464.518 721.912 465.238C721.912 466.469 721.52 467.4 720.735 468.033C719.95 468.666 718.83 468.988 717.377 469H712.403ZM715.039 463.428V466.882H717.298C717.919 466.882 718.403 466.735 718.748 466.442C719.1 466.144 719.276 465.733 719.276 465.212C719.276 464.04 718.669 463.445 717.456 463.428H715.039ZM715.039 461.564H716.991C718.321 461.541 718.986 461.011 718.986 459.974C718.986 459.394 718.816 458.978 718.476 458.726C718.142 458.468 717.612 458.339 716.885 458.339H715.039V461.564ZM735.311 462.892C735.311 464.151 735.088 465.256 734.643 466.205C734.197 467.154 733.559 467.887 732.727 468.402C731.9 468.918 730.951 469.176 729.879 469.176C728.818 469.176 727.872 468.921 727.04 468.411C726.208 467.901 725.563 467.175 725.106 466.231C724.649 465.282 724.418 464.192 724.412 462.962V462.329C724.412 461.069 724.638 459.962 725.089 459.007C725.546 458.046 726.188 457.311 727.014 456.801C727.846 456.285 728.795 456.027 729.861 456.027C730.928 456.027 731.874 456.285 732.7 456.801C733.532 457.311 734.174 458.046 734.625 459.007C735.082 459.962 735.311 461.066 735.311 462.32V462.892ZM732.639 462.312C732.639 460.97 732.398 459.95 731.918 459.253C731.438 458.556 730.752 458.207 729.861 458.207C728.977 458.207 728.294 458.553 727.813 459.244C727.333 459.93 727.09 460.938 727.084 462.268V462.892C727.084 464.198 727.324 465.212 727.805 465.933C728.285 466.653 728.977 467.014 729.879 467.014C730.764 467.014 731.443 466.668 731.918 465.977C732.393 465.279 732.633 464.266 732.639 462.936V462.312ZM744.437 459.728C744.437 459.241 744.247 458.86 743.866 458.585C743.485 458.304 742.981 458.163 742.354 458.163C741.792 458.163 741.323 458.304 740.948 458.585C740.579 458.86 740.394 459.221 740.394 459.666H737.757C737.757 458.975 737.951 458.354 738.337 457.803C738.73 457.246 739.284 456.812 739.999 456.502C740.719 456.191 741.504 456.036 742.354 456.036C743.831 456.036 744.988 456.353 745.826 456.985C746.664 457.618 747.083 458.515 747.083 459.675C747.083 460.243 746.91 460.771 746.564 461.257C746.224 461.743 745.738 462.133 745.105 462.426C745.808 462.672 746.347 463.047 746.722 463.551C747.097 464.049 747.285 464.67 747.285 465.414C747.285 466.562 746.834 467.477 745.931 468.156C745.035 468.83 743.842 469.167 742.354 469.167C741.422 469.167 740.585 469.009 739.84 468.692C739.096 468.37 738.531 467.934 738.144 467.383C737.763 466.826 737.573 466.182 737.573 465.449H740.227C740.227 465.906 740.426 466.29 740.825 466.601C741.223 466.905 741.733 467.058 742.354 467.058C743.057 467.058 743.611 466.899 744.015 466.583C744.425 466.267 744.63 465.865 744.63 465.379C744.63 464.711 744.449 464.233 744.086 463.946C743.722 463.653 743.192 463.507 742.495 463.507H740.921V461.441H742.547C743.807 461.424 744.437 460.853 744.437 459.728ZM754.311 463.771H752.79V469H750.154V456.203H752.79V461.327H753.994L757.123 456.203H760.34L756.394 462.259L760.753 469H757.607L754.311 463.771ZM770.346 456.203H772.991V469H770.346V460.501L765.221 469H762.585V456.203H765.221V464.72L770.346 456.203Z" fill="white"/>
<g clip-path="url(#clip6_8_124)">
<path d="M706.893 379.073L703.718 380.518C703.515 380.612 703.327 380.74 703.168 380.9L697.994 386.076L680.179 383.94C679.857 383.902 679.532 384.012 679.304 384.243L678.312 385.235C677.787 385.76 677.949 386.648 678.628 386.952L691.395 392.675L687.73 396.341H681.327C681.046 396.341 680.777 396.453 680.577 396.65L680.042 397.188C679.51 397.72 679.685 398.618 680.373 398.912L685.775 401.226L688.089 406.628C688.383 407.316 689.284 407.491 689.813 406.959L690.351 406.421C690.551 406.221 690.66 405.952 690.66 405.671V399.268L694.326 395.603L700.049 408.373C700.353 409.052 701.241 409.214 701.766 408.689L702.758 407.697C702.989 407.466 703.099 407.144 703.061 406.822L700.922 389.007L706.098 383.83C706.258 383.671 706.386 383.486 706.48 383.28L707.925 380.105C708.228 379.452 707.553 378.773 706.893 379.073Z" fill="white"/>
</g>
<rect x="832" y="324" width="276" height="180" fill="#393F47"/>
<path d="M896.334 466.363H891.711L890.832 469H888.028L892.792 456.203H895.235L900.025 469H897.221L896.334 466.363ZM892.422 464.228H895.622L894.013 459.438L892.422 464.228ZM902.12 469V456.203H906.603C908.155 456.203 909.333 456.502 910.136 457.1C910.939 457.691 911.34 458.562 911.34 459.71C911.34 460.337 911.179 460.891 910.857 461.371C910.534 461.846 910.086 462.194 909.512 462.417C910.168 462.581 910.684 462.912 911.059 463.41C911.44 463.908 911.63 464.518 911.63 465.238C911.63 466.469 911.238 467.4 910.452 468.033C909.667 468.666 908.548 468.988 907.095 469H902.12ZM904.757 463.428V466.882H907.016C907.637 466.882 908.12 466.735 908.466 466.442C908.818 466.144 908.993 465.733 908.993 465.212C908.993 464.04 908.387 463.445 907.174 463.428H904.757ZM904.757 461.564H906.708C908.038 461.541 908.703 461.011 908.703 459.974C908.703 459.394 908.533 458.978 908.194 458.726C907.86 458.468 907.329 458.339 906.603 458.339H904.757V461.564ZM922.189 456.203H924.835V469H922.189V460.501L917.065 469H914.429V456.203H917.065V464.72L922.189 456.203ZM935.403 466.363H930.78L929.901 469H927.097L931.861 456.203H934.304L939.094 469H936.29L935.403 466.363ZM931.492 464.228H934.691L933.082 459.438L931.492 464.228ZM951.613 469H948.968V458.339H943.844V469H941.207V456.203H951.613V469ZM962.533 463.454H957.47V466.882H963.412V469H954.834V456.203H963.394V458.339H957.47V461.389H962.533V463.454ZM968.495 464.491V469H965.859V456.203H970.851C971.812 456.203 972.655 456.379 973.382 456.73C974.114 457.082 974.677 457.583 975.07 458.233C975.462 458.878 975.658 459.613 975.658 460.439C975.658 461.693 975.228 462.684 974.366 463.41C973.511 464.131 972.324 464.491 970.807 464.491H968.495ZM968.495 462.355H970.851C971.548 462.355 972.078 462.191 972.442 461.863C972.811 461.535 972.995 461.066 972.995 460.457C972.995 459.83 972.811 459.323 972.442 458.937C972.072 458.55 971.563 458.351 970.912 458.339H968.495V462.355ZM986.077 463.454H981.014V466.882H986.956V469H978.378V456.203H986.938V458.339H981.014V461.389H986.077V463.454ZM989.403 469V456.203H993.885C995.438 456.203 996.616 456.502 997.418 457.1C998.221 457.691 998.622 458.562 998.622 459.71C998.622 460.337 998.461 460.891 998.139 461.371C997.817 461.846 997.369 462.194 996.794 462.417C997.451 462.581 997.966 462.912 998.341 463.41C998.722 463.908 998.912 464.518 998.912 465.238C998.912 466.469 998.52 467.4 997.735 468.033C996.95 468.666 995.83 468.988 994.377 469H989.403ZM992.039 463.428V466.882H994.298C994.919 466.882 995.403 466.735 995.748 466.442C996.1 466.144 996.276 465.733 996.276 465.212C996.276 464.04 995.669 463.445 994.456 463.428H992.039ZM992.039 461.564H993.991C995.321 461.541 995.986 461.011 995.986 459.974C995.986 459.394 995.816 458.978 995.476 458.726C995.142 458.468 994.612 458.339 993.885 458.339H992.039V461.564ZM1012.31 462.892C1012.31 464.151 1012.09 465.256 1011.64 466.205C1011.2 467.154 1010.56 467.887 1009.73 468.402C1008.9 468.918 1007.95 469.176 1006.88 469.176C1005.82 469.176 1004.87 468.921 1004.04 468.411C1003.21 467.901 1002.56 467.175 1002.11 466.231C1001.65 465.282 1001.42 464.192 1001.41 462.962V462.329C1001.41 461.069 1001.64 459.962 1002.09 459.007C1002.55 458.046 1003.19 457.311 1004.01 456.801C1004.85 456.285 1005.79 456.027 1006.86 456.027C1007.93 456.027 1008.87 456.285 1009.7 456.801C1010.53 457.311 1011.17 458.046 1011.62 459.007C1012.08 459.962 1012.31 461.066 1012.31 462.32V462.892ZM1009.64 462.312C1009.64 460.97 1009.4 459.95 1008.92 459.253C1008.44 458.556 1007.75 458.207 1006.86 458.207C1005.98 458.207 1005.29 458.553 1004.81 459.244C1004.33 459.93 1004.09 460.938 1004.08 462.268V462.892C1004.08 464.198 1004.32 465.212 1004.8 465.933C1005.29 466.653 1005.98 467.014 1006.88 467.014C1007.76 467.014 1008.44 466.668 1008.92 465.977C1009.39 465.279 1009.63 464.266 1009.64 462.936V462.312ZM1021.44 459.728C1021.44 459.241 1021.25 458.86 1020.87 458.585C1020.48 458.304 1019.98 458.163 1019.35 458.163C1018.79 458.163 1018.32 458.304 1017.95 458.585C1017.58 458.86 1017.39 459.221 1017.39 459.666H1014.76C1014.76 458.975 1014.95 458.354 1015.34 457.803C1015.73 457.246 1016.28 456.812 1017 456.502C1017.72 456.191 1018.5 456.036 1019.35 456.036C1020.83 456.036 1021.99 456.353 1022.83 456.985C1023.66 457.618 1024.08 458.515 1024.08 459.675C1024.08 460.243 1023.91 460.771 1023.56 461.257C1023.22 461.743 1022.74 462.133 1022.11 462.426C1022.81 462.672 1023.35 463.047 1023.72 463.551C1024.1 464.049 1024.28 464.67 1024.28 465.414C1024.28 466.562 1023.83 467.477 1022.93 468.156C1022.03 468.83 1020.84 469.167 1019.35 469.167C1018.42 469.167 1017.58 469.009 1016.84 468.692C1016.1 468.37 1015.53 467.934 1015.14 467.383C1014.76 466.826 1014.57 466.182 1014.57 465.449H1017.23C1017.23 465.906 1017.43 466.29 1017.82 466.601C1018.22 466.905 1018.73 467.058 1019.35 467.058C1020.06 467.058 1020.61 466.899 1021.02 466.583C1021.43 466.267 1021.63 465.865 1021.63 465.379C1021.63 464.711 1021.45 464.233 1021.09 463.946C1020.72 463.653 1020.19 463.507 1019.49 463.507H1017.92V461.441H1019.55C1020.81 461.424 1021.44 460.853 1021.44 459.728ZM1031.31 463.771H1029.79V469H1027.15V456.203H1029.79V461.327H1030.99L1034.12 456.203H1037.34L1033.39 462.259L1037.75 469H1034.61L1031.31 463.771ZM1047.35 456.203H1049.99V469H1047.35V460.501L1042.22 469H1039.58V456.203H1042.22V464.72L1047.35 456.203Z" fill="white"/>
<g clip-path="url(#clip7_8_124)">
<path d="M983.893 379.073L980.718 380.518C980.515 380.612 980.327 380.74 980.168 380.9L974.994 386.076L957.179 383.94C956.857 383.902 956.532 384.012 956.304 384.243L955.312 385.235C954.787 385.76 954.949 386.648 955.628 386.952L968.395 392.675L964.73 396.341H958.327C958.046 396.341 957.777 396.453 957.577 396.65L957.042 397.188C956.51 397.72 956.685 398.618 957.373 398.912L962.775 401.226L965.089 406.628C965.383 407.316 966.284 407.491 966.813 406.959L967.351 406.421C967.551 406.221 967.66 405.952 967.66 405.671V399.268L971.326 395.603L977.049 408.373C977.353 409.052 978.241 409.214 978.766 408.689L979.758 407.697C979.989 407.466 980.099 407.144 980.061 406.822L977.922 389.007L983.098 383.83C983.258 383.671 983.386 383.486 983.48 383.28L984.925 380.105C985.228 379.452 984.553 378.773 983.893 379.073Z" fill="white"/>
</g>
<defs>
<clipPath id="clip0_8_124">
<rect width="30" height="30" fill="white" transform="translate(124 198)"/>
</clipPath>
<clipPath id="clip1_8_124">
<rect width="30" height="30" fill="white" transform="translate(401 198)"/>
</clipPath>
<clipPath id="clip2_8_124">
<rect width="30" height="30" fill="white" transform="translate(678 198)"/>
</clipPath>
<clipPath id="clip3_8_124">
<rect width="30" height="30" fill="white" transform="translate(955 198)"/>
</clipPath>
<clipPath id="clip4_8_124">
<rect width="30" height="30" fill="white" transform="translate(401 379)"/>
</clipPath>
<clipPath id="clip5_8_124">
<rect width="30" height="30" fill="white" transform="translate(124 379)"/>
</clipPath>
<clipPath id="clip6_8_124">
<rect width="30" height="30" fill="white" transform="translate(678 379)"/>
</clipPath>
<clipPath id="clip7_8_124">
<rect width="30" height="30" fill="white" transform="translate(955 379)"/>
</clipPath>
</defs>
</svg>
