<svg width="472" height="48" viewBox="0 0 472 48" fill="none" xmlns="http://www.w3.org/2000/svg">
<path d="M5.436 2.49012C6.768 2.49012 7.932 2.74812 8.928 3.26412C9.936 3.76812 10.71 4.50012 11.25 5.46012C11.802 6.40812 12.078 7.51812 12.078 8.79012C12.078 10.0621 11.802 11.1661 11.25 12.1021C10.71 13.0381 9.936 13.7581 8.928 14.2621C7.932 14.7541 6.768 15.0001 5.436 15.0001H1.35V2.49012H5.436ZM5.436 13.3261C6.9 13.3261 8.022 12.9301 8.802 12.1381C9.582 11.3461 9.972 10.2301 9.972 8.79012C9.972 7.33812 9.582 6.20412 8.802 5.38812C8.022 4.57212 6.9 4.16412 5.436 4.16412H3.402V13.3261H5.436ZM13.6077 9.99612C13.6077 9.00012 13.8117 8.11812 14.2197 7.35012C14.6397 6.58212 15.2037 5.98812 15.9117 5.56812C16.6317 5.13612 17.4237 4.92012 18.2877 4.92012C19.0677 4.92012 19.7457 5.07612 20.3217 5.38812C20.9097 5.68812 21.3777 6.06612 21.7257 6.52212V5.08212H23.7957V15.0001H21.7257V13.5241C21.3777 13.9921 20.9037 14.3821 20.3037 14.6941C19.7037 15.0061 19.0197 15.1621 18.2517 15.1621C17.3997 15.1621 16.6197 14.9461 15.9117 14.5141C15.2037 14.0701 14.6397 13.4581 14.2197 12.6781C13.8117 11.8861 13.6077 10.9921 13.6077 9.99612ZM21.7257 10.0321C21.7257 9.34812 21.5817 8.75412 21.2937 8.25012C21.0177 7.74612 20.6517 7.36212 20.1957 7.09812C19.7397 6.83412 19.2477 6.70212 18.7197 6.70212C18.1917 6.70212 17.6997 6.83412 17.2437 7.09812C16.7877 7.35012 16.4157 7.72812 16.1277 8.23212C15.8517 8.72412 15.7137 9.31212 15.7137 9.99612C15.7137 10.6801 15.8517 11.2801 16.1277 11.7961C16.4157 12.3121 16.7877 12.7081 17.2437 12.9841C17.7117 13.2481 18.2037 13.3801 18.7197 13.3801C19.2477 13.3801 19.7397 13.2481 20.1957 12.9841C20.6517 12.7201 21.0177 12.3361 21.2937 11.8321C21.5817 11.3161 21.7257 10.7161 21.7257 10.0321ZM29.0649 6.75612V12.2461C29.0649 12.6181 29.1489 12.8881 29.3169 13.0561C29.4969 13.2121 29.7969 13.2901 30.2169 13.2901H31.4769V15.0001H29.8569C28.9329 15.0001 28.2249 14.7841 27.7329 14.3521C27.2409 13.9201 26.9949 13.2181 26.9949 12.2461V6.75612H25.8249V5.08212H26.9949V2.61612H29.0649V5.08212H31.4769V6.75612H29.0649ZM42.6382 9.79812C42.6382 10.1701 42.6142 10.5061 42.5662 10.8061H34.9882C35.0482 11.5981 35.3422 12.2341 35.8702 12.7141C36.3982 13.1941 37.0462 13.4341 37.8142 13.4341C38.9182 13.4341 39.6982 12.9721 40.1542 12.0481H42.3682C42.0682 12.9601 41.5222 13.7101 40.7302 14.2981C39.9502 14.8741 38.9782 15.1621 37.8142 15.1621C36.8662 15.1621 36.0142 14.9521 35.2582 14.5321C34.5142 14.1001 33.9262 13.5001 33.4942 12.7321C33.0742 11.9521 32.8642 11.0521 32.8642 10.0321C32.8642 9.01212 33.0682 8.11812 33.4762 7.35012C33.8962 6.57012 34.4782 5.97012 35.2222 5.55012C35.9782 5.13012 36.8422 4.92012 37.8142 4.92012C38.7502 4.92012 39.5842 5.12412 40.3162 5.53212C41.0482 5.94012 41.6182 6.51612 42.0262 7.26012C42.4342 7.99212 42.6382 8.83812 42.6382 9.79812ZM40.4962 9.15012C40.4842 8.39412 40.2142 7.78812 39.6862 7.33212C39.1582 6.87612 38.5042 6.64812 37.7242 6.64812C37.0162 6.64812 36.4102 6.87612 35.9062 7.33212C35.4022 7.77612 35.1022 8.38212 35.0062 9.15012H40.4962Z" fill="#3A3A3A"/>
<path d="M184.432 1.49V3.164H181.102V14H179.05V3.164H175.702V1.49H184.432ZM187.734 2.768C187.362 2.768 187.05 2.642 186.798 2.39C186.546 2.138 186.42 1.826 186.42 1.454C186.42 1.082 186.546 0.769999 186.798 0.518C187.05 0.265999 187.362 0.139999 187.734 0.139999C188.094 0.139999 188.4 0.265999 188.652 0.518C188.904 0.769999 189.03 1.082 189.03 1.454C189.03 1.826 188.904 2.138 188.652 2.39C188.4 2.642 188.094 2.768 187.734 2.768ZM188.742 4.082V14H186.69V4.082H188.742ZM203.622 3.92C204.402 3.92 205.098 4.082 205.71 4.406C206.334 4.73 206.82 5.21 207.168 5.846C207.528 6.482 207.708 7.25 207.708 8.15V14H205.674V8.456C205.674 7.568 205.452 6.89 205.008 6.422C204.564 5.942 203.958 5.702 203.19 5.702C202.422 5.702 201.81 5.942 201.354 6.422C200.91 6.89 200.688 7.568 200.688 8.456V14H198.654V8.456C198.654 7.568 198.432 6.89 197.988 6.422C197.544 5.942 196.938 5.702 196.17 5.702C195.402 5.702 194.79 5.942 194.334 6.422C193.89 6.89 193.668 7.568 193.668 8.456V14H191.616V4.082H193.668V5.216C194.004 4.808 194.43 4.49 194.946 4.262C195.462 4.034 196.014 3.92 196.602 3.92C197.394 3.92 198.102 4.088 198.726 4.424C199.35 4.76 199.83 5.246 200.166 5.882C200.466 5.282 200.934 4.808 201.57 4.46C202.206 4.1 202.89 3.92 203.622 3.92ZM219.589 8.798C219.589 9.17 219.565 9.506 219.517 9.806H211.939C211.999 10.598 212.293 11.234 212.821 11.714C213.349 12.194 213.997 12.434 214.765 12.434C215.869 12.434 216.649 11.972 217.105 11.048H219.319C219.019 11.96 218.473 12.71 217.681 13.298C216.901 13.874 215.929 14.162 214.765 14.162C213.817 14.162 212.965 13.952 212.209 13.532C211.465 13.1 210.877 12.5 210.445 11.732C210.025 10.952 209.815 10.052 209.815 9.032C209.815 8.012 210.019 7.118 210.427 6.35C210.847 5.57 211.429 4.97 212.173 4.55C212.929 4.13 213.793 3.92 214.765 3.92C215.701 3.92 216.535 4.124 217.267 4.532C217.999 4.94 218.569 5.516 218.977 6.26C219.385 6.992 219.589 7.838 219.589 8.798ZM217.447 8.15C217.435 7.394 217.165 6.788 216.637 6.332C216.109 5.876 215.455 5.648 214.675 5.648C213.967 5.648 213.361 5.876 212.857 6.332C212.353 6.776 212.053 7.382 211.957 8.15H217.447Z" fill="#3A3A3A"/>
<path d="M341.892 12.444H336.654L335.754 15H333.612L338.094 2.472H340.47L344.952 15H342.792L341.892 12.444ZM341.316 10.77L339.282 4.956L337.23 10.77H341.316ZM346.397 9.996C346.397 9 346.601 8.118 347.009 7.35C347.429 6.582 347.993 5.988 348.701 5.568C349.421 5.136 350.219 4.92 351.095 4.92C351.743 4.92 352.379 5.064 353.003 5.352C353.639 5.628 354.143 6 354.515 6.468V1.68H356.585V15H354.515V13.506C354.179 13.986 353.711 14.382 353.111 14.694C352.523 15.006 351.845 15.162 351.077 15.162C350.213 15.162 349.421 14.946 348.701 14.514C347.993 14.07 347.429 13.458 347.009 12.678C346.601 11.886 346.397 10.992 346.397 9.996ZM354.515 10.032C354.515 9.348 354.371 8.754 354.083 8.25C353.807 7.746 353.441 7.362 352.985 7.098C352.529 6.834 352.037 6.702 351.509 6.702C350.981 6.702 350.489 6.834 350.033 7.098C349.577 7.35 349.205 7.728 348.917 8.232C348.641 8.724 348.503 9.312 348.503 9.996C348.503 10.68 348.641 11.28 348.917 11.796C349.205 12.312 349.577 12.708 350.033 12.984C350.501 13.248 350.993 13.38 351.509 13.38C352.037 13.38 352.529 13.248 352.985 12.984C353.441 12.72 353.807 12.336 354.083 11.832C354.371 11.316 354.515 10.716 354.515 10.032ZM368.442 5.082V15H366.39V13.83C366.066 14.238 365.64 14.562 365.112 14.802C364.596 15.03 364.044 15.144 363.456 15.144C362.676 15.144 361.974 14.982 361.35 14.658C360.738 14.334 360.252 13.854 359.892 13.218C359.544 12.582 359.37 11.814 359.37 10.914V5.082H361.404V10.608C361.404 11.496 361.626 12.18 362.07 12.66C362.514 13.128 363.12 13.362 363.888 13.362C364.656 13.362 365.262 13.128 365.706 12.66C366.162 12.18 366.39 11.496 366.39 10.608V5.082H368.442ZM373.381 1.68V15H371.329V1.68H373.381ZM378.65 6.756V12.246C378.65 12.618 378.734 12.888 378.902 13.056C379.082 13.212 379.382 13.29 379.802 13.29H381.062V15H379.442C378.518 15 377.81 14.784 377.318 14.352C376.826 13.92 376.58 13.218 376.58 12.246V6.756H375.41V5.082H376.58V2.616H378.65V5.082H381.062V6.756H378.65ZM386.733 15.162C385.953 15.162 385.251 15.024 384.627 14.748C384.015 14.46 383.529 14.076 383.169 13.596C382.809 13.104 382.617 12.558 382.593 11.958H384.717C384.753 12.378 384.951 12.732 385.311 13.02C385.683 13.296 386.145 13.434 386.697 13.434C387.273 13.434 387.717 13.326 388.029 13.11C388.353 12.882 388.515 12.594 388.515 12.246C388.515 11.874 388.335 11.598 387.975 11.418C387.627 11.238 387.069 11.04 386.301 10.824C385.557 10.62 384.951 10.422 384.483 10.23C384.015 10.038 383.607 9.744 383.259 9.348C382.923 8.952 382.755 8.43 382.755 7.782C382.755 7.254 382.911 6.774 383.223 6.342C383.535 5.898 383.979 5.55 384.555 5.298C385.143 5.046 385.815 4.92 386.571 4.92C387.699 4.92 388.605 5.208 389.289 5.784C389.985 6.348 390.357 7.122 390.405 8.106H388.353C388.317 7.662 388.137 7.308 387.813 7.044C387.489 6.78 387.051 6.648 386.499 6.648C385.959 6.648 385.545 6.75 385.257 6.954C384.969 7.158 384.825 7.428 384.825 7.764C384.825 8.028 384.921 8.25 385.113 8.43C385.305 8.61 385.539 8.754 385.815 8.862C386.091 8.958 386.499 9.084 387.039 9.24C387.759 9.432 388.347 9.63 388.803 9.834C389.271 10.026 389.673 10.314 390.009 10.698C390.345 11.082 390.519 11.592 390.531 12.228C390.531 12.792 390.375 13.296 390.063 13.74C389.751 14.184 389.307 14.532 388.731 14.784C388.167 15.036 387.501 15.162 386.733 15.162Z" fill="#3A3A3A"/>
<path d="M0.714 37.9781C1.89933 37.0261 2.828 36.2468 3.5 35.6401C4.172 35.0241 4.73667 34.3848 5.194 33.7221C5.66067 33.0501 5.894 32.3921 5.894 31.7481C5.894 31.1415 5.74467 30.6655 5.446 30.3201C5.15667 29.9655 4.68533 29.7881 4.032 29.7881C3.39733 29.7881 2.90267 29.9888 2.548 30.3901C2.20267 30.7821 2.016 31.3095 1.988 31.9721H0.756C0.793333 30.9268 1.11067 30.1195 1.708 29.5501C2.30533 28.9808 3.07533 28.6961 4.018 28.6961C4.97933 28.6961 5.74 28.9621 6.3 29.4941C6.86933 30.0261 7.154 30.7588 7.154 31.6921C7.154 32.4668 6.92067 33.2228 6.454 33.9601C5.99667 34.6881 5.474 35.3321 4.886 35.8921C4.298 36.4428 3.54667 37.0868 2.632 37.8241H7.448V38.8881H0.714V37.9781ZM9.03273 31.4261C9.09807 30.5675 9.4294 29.8955 10.0267 29.4101C10.6241 28.9248 11.3987 28.6821 12.3507 28.6821C12.9854 28.6821 13.5314 28.7988 13.9887 29.0321C14.4554 29.2561 14.8054 29.5641 15.0387 29.9561C15.2814 30.3481 15.4027 30.7915 15.4027 31.2861C15.4027 31.8648 15.2347 32.3641 14.8987 32.7841C14.5721 33.2041 14.1427 33.4748 13.6107 33.5961V33.6661C14.2174 33.8155 14.6981 34.1095 15.0527 34.5481C15.4074 34.9868 15.5847 35.5608 15.5847 36.2701C15.5847 36.8021 15.4634 37.2828 15.2207 37.7121C14.9781 38.1321 14.6141 38.4635 14.1287 38.7061C13.6434 38.9488 13.0601 39.0701 12.3787 39.0701C11.3894 39.0701 10.5774 38.8135 9.94273 38.3001C9.30807 37.7775 8.9534 37.0401 8.87873 36.0881H10.1107C10.1761 36.6481 10.4047 37.1055 10.7967 37.4601C11.1887 37.8148 11.7114 37.9921 12.3647 37.9921C13.0181 37.9921 13.5127 37.8241 13.8487 37.4881C14.1941 37.1428 14.3667 36.6995 14.3667 36.1581C14.3667 35.4581 14.1334 34.9541 13.6667 34.6461C13.2001 34.3381 12.4954 34.1841 11.5527 34.1841H11.2307V33.1201H11.5667C12.4254 33.1108 13.0741 32.9708 13.5127 32.7001C13.9514 32.4201 14.1707 31.9908 14.1707 31.4121C14.1707 30.9175 14.0074 30.5208 13.6807 30.2221C13.3634 29.9235 12.9061 29.7741 12.3087 29.7741C11.7301 29.7741 11.2634 29.9235 10.9087 30.2221C10.5541 30.5208 10.3441 30.9221 10.2787 31.4261H9.03273ZM22.9749 33.3301V34.4081H17.3889V33.3301H22.9749ZM25.2958 33.8341C25.2958 32.2288 25.5571 30.9781 26.0798 30.0821C26.6025 29.1768 27.5171 28.7241 28.8238 28.7241C30.1211 28.7241 31.0311 29.1768 31.5538 30.0821C32.0765 30.9781 32.3378 32.2288 32.3378 33.8341C32.3378 35.4675 32.0765 36.7368 31.5538 37.6421C31.0311 38.5475 30.1211 39.0001 28.8238 39.0001C27.5171 39.0001 26.6025 38.5475 26.0798 37.6421C25.5571 36.7368 25.2958 35.4675 25.2958 33.8341ZM31.0778 33.8341C31.0778 33.0221 31.0218 32.3361 30.9098 31.7761C30.8071 31.2068 30.5878 30.7495 30.2518 30.4041C29.9251 30.0588 29.4491 29.8861 28.8238 29.8861C28.1891 29.8861 27.7038 30.0588 27.3678 30.4041C27.0411 30.7495 26.8218 31.2068 26.7098 31.7761C26.6071 32.3361 26.5558 33.0221 26.5558 33.8341C26.5558 34.6741 26.6071 35.3788 26.7098 35.9481C26.8218 36.5175 27.0411 36.9748 27.3678 37.3201C27.7038 37.6655 28.1891 37.8381 28.8238 37.8381C29.4491 37.8381 29.9251 37.6655 30.2518 37.3201C30.5878 36.9748 30.8071 36.5175 30.9098 35.9481C31.0218 35.3788 31.0778 34.6741 31.0778 33.8341ZM35.8648 36.2841C35.9582 36.8161 36.1728 37.2268 36.5088 37.5161C36.8542 37.8055 37.3162 37.9501 37.8948 37.9501C38.6695 37.9501 39.2388 37.6468 39.6028 37.0401C39.9762 36.4335 40.1535 35.4115 40.1348 33.9741C39.9388 34.3941 39.6122 34.7255 39.1548 34.9681C38.6975 35.2015 38.1888 35.3181 37.6288 35.3181C37.0035 35.3181 36.4435 35.1921 35.9488 34.9401C35.4635 34.6788 35.0808 34.3008 34.8008 33.8061C34.5208 33.3115 34.3808 32.7141 34.3808 32.0141C34.3808 31.0155 34.6702 30.2128 35.2488 29.6061C35.8275 28.9901 36.6488 28.6821 37.7128 28.6821C39.0195 28.6821 39.9342 29.1068 40.4568 29.9561C40.9888 30.8055 41.2548 32.0701 41.2548 33.7501C41.2548 34.9261 41.1475 35.8968 40.9328 36.6621C40.7275 37.4275 40.3728 38.0108 39.8688 38.4121C39.3742 38.8135 38.6928 39.0141 37.8248 39.0141C36.8728 39.0141 36.1308 38.7575 35.5988 38.2441C35.0668 37.7308 34.7635 37.0775 34.6888 36.2841H35.8648ZM37.8388 34.2401C38.4642 34.2401 38.9775 34.0488 39.3788 33.6661C39.7802 33.2741 39.9808 32.7468 39.9808 32.0841C39.9808 31.3841 39.7848 30.8195 39.3928 30.3901C39.0008 29.9608 38.4502 29.7461 37.7408 29.7461C37.0875 29.7461 36.5648 29.9515 36.1728 30.3621C35.7902 30.7728 35.5988 31.3141 35.5988 31.9861C35.5988 32.6675 35.7902 33.2135 36.1728 33.6241C36.5555 34.0348 37.1108 34.2401 37.8388 34.2401ZM48.7152 33.3301V34.4081H43.1292V33.3301H48.7152ZM50.8821 37.9781C52.0675 37.0261 52.9961 36.2468 53.6681 35.6401C54.3401 35.0241 54.9048 34.3848 55.3621 33.7221C55.8288 33.0501 56.0621 32.3921 56.0621 31.7481C56.0621 31.1415 55.9128 30.6655 55.6141 30.3201C55.3248 29.9655 54.8535 29.7881 54.2001 29.7881C53.5655 29.7881 53.0708 29.9888 52.7161 30.3901C52.3708 30.7821 52.1841 31.3095 52.1561 31.9721H50.9241C50.9615 30.9268 51.2788 30.1195 51.8761 29.5501C52.4735 28.9808 53.2435 28.6961 54.1861 28.6961C55.1475 28.6961 55.9081 28.9621 56.4681 29.4941C57.0375 30.0261 57.3221 30.7588 57.3221 31.6921C57.3221 32.4668 57.0888 33.2228 56.6221 33.9601C56.1648 34.6881 55.6421 35.3321 55.0541 35.8921C54.4661 36.4428 53.7148 37.0868 52.8001 37.8241H57.6161V38.8881H50.8821V37.9781ZM59.2289 33.8341C59.2289 32.2288 59.4902 30.9781 60.0129 30.0821C60.5355 29.1768 61.4502 28.7241 62.7569 28.7241C64.0542 28.7241 64.9642 29.1768 65.4869 30.0821C66.0095 30.9781 66.2709 32.2288 66.2709 33.8341C66.2709 35.4675 66.0095 36.7368 65.4869 37.6421C64.9642 38.5475 64.0542 39.0001 62.7569 39.0001C61.4502 39.0001 60.5355 38.5475 60.0129 37.6421C59.4902 36.7368 59.2289 35.4675 59.2289 33.8341ZM65.0109 33.8341C65.0109 33.0221 64.9549 32.3361 64.8429 31.7761C64.7402 31.2068 64.5209 30.7495 64.1849 30.4041C63.8582 30.0588 63.3822 29.8861 62.7569 29.8861C62.1222 29.8861 61.6369 30.0588 61.3009 30.4041C60.9742 30.7495 60.7549 31.2068 60.6429 31.7761C60.5402 32.3361 60.4889 33.0221 60.4889 33.8341C60.4889 34.6741 60.5402 35.3788 60.6429 35.9481C60.7549 36.5175 60.9742 36.9748 61.3009 37.3201C61.6369 37.6655 62.1222 37.8381 62.7569 37.8381C63.3822 37.8381 63.8582 37.6655 64.1849 37.3201C64.5209 36.9748 64.7402 36.5175 64.8429 35.9481C64.9549 35.3788 65.0109 34.6741 65.0109 33.8341ZM68.0059 37.9781C69.1912 37.0261 70.1199 36.2468 70.7919 35.6401C71.4639 35.0241 72.0285 34.3848 72.4859 33.7221C72.9525 33.0501 73.1859 32.3921 73.1859 31.7481C73.1859 31.1415 73.0365 30.6655 72.7379 30.3201C72.4485 29.9655 71.9772 29.7881 71.3239 29.7881C70.6892 29.7881 70.1945 29.9888 69.8399 30.3901C69.4945 30.7821 69.3079 31.3095 69.2799 31.9721H68.0479C68.0852 30.9268 68.4025 30.1195 68.9999 29.5501C69.5972 28.9808 70.3672 28.6961 71.3099 28.6961C72.2712 28.6961 73.0319 28.9621 73.5919 29.4941C74.1612 30.0261 74.4459 30.7588 74.4459 31.6921C74.4459 32.4668 74.2125 33.2228 73.7459 33.9601C73.2885 34.6881 72.7659 35.3321 72.1779 35.8921C71.5899 36.4428 70.8385 37.0868 69.9239 37.8241H74.7399V38.8881H68.0059V37.9781ZM76.0166 30.0401V28.8781H78.6486V39.0001H77.3606V30.0401H76.0166Z" fill="#A7A7A7"/>
<path d="M182.098 29.872L178.206 39H176.918L180.866 29.998H175.462V28.906H182.098V29.872ZM184.267 39.084C184.024 39.084 183.819 39 183.651 38.832C183.483 38.664 183.399 38.4587 183.399 38.216C183.399 37.9733 183.483 37.768 183.651 37.6C183.819 37.432 184.024 37.348 184.267 37.348C184.5 37.348 184.696 37.432 184.855 37.6C185.023 37.768 185.107 37.9733 185.107 38.216C185.107 38.4587 185.023 38.664 184.855 38.832C184.696 39 184.5 39.084 184.267 39.084ZM184.267 33.092C184.024 33.092 183.819 33.008 183.651 32.84C183.483 32.672 183.399 32.4667 183.399 32.224C183.399 31.9813 183.483 31.776 183.651 31.608C183.819 31.44 184.024 31.356 184.267 31.356C184.5 31.356 184.696 31.44 184.855 31.608C185.023 31.776 185.107 31.9813 185.107 32.224C185.107 32.4667 185.023 32.672 184.855 32.84C184.696 33.008 184.5 33.092 184.267 33.092ZM186.771 33.834C186.771 32.2287 187.032 30.978 187.555 30.082C188.078 29.1767 188.992 28.724 190.299 28.724C191.596 28.724 192.506 29.1767 193.029 30.082C193.552 30.978 193.813 32.2287 193.813 33.834C193.813 35.4673 193.552 36.7367 193.029 37.642C192.506 38.5473 191.596 39 190.299 39C188.992 39 188.078 38.5473 187.555 37.642C187.032 36.7367 186.771 35.4673 186.771 33.834ZM192.553 33.834C192.553 33.022 192.497 32.336 192.385 31.776C192.282 31.2067 192.063 30.7493 191.727 30.404C191.4 30.0587 190.924 29.886 190.299 29.886C189.664 29.886 189.179 30.0587 188.843 30.404C188.516 30.7493 188.297 31.2067 188.185 31.776C188.082 32.336 188.031 33.022 188.031 33.834C188.031 34.674 188.082 35.3787 188.185 35.948C188.297 36.5173 188.516 36.9747 188.843 37.32C189.179 37.6653 189.664 37.838 190.299 37.838C190.924 37.838 191.4 37.6653 191.727 37.32C192.063 36.9747 192.282 36.5173 192.385 35.948C192.497 35.3787 192.553 34.674 192.553 33.834ZM195.702 33.834C195.702 32.2287 195.963 30.978 196.486 30.082C197.009 29.1767 197.923 28.724 199.23 28.724C200.527 28.724 201.437 29.1767 201.96 30.082C202.483 30.978 202.744 32.2287 202.744 33.834C202.744 35.4673 202.483 36.7367 201.96 37.642C201.437 38.5473 200.527 39 199.23 39C197.923 39 197.009 38.5473 196.486 37.642C195.963 36.7367 195.702 35.4673 195.702 33.834ZM201.484 33.834C201.484 33.022 201.428 32.336 201.316 31.776C201.213 31.2067 200.994 30.7493 200.658 30.404C200.331 30.0587 199.855 29.886 199.23 29.886C198.595 29.886 198.11 30.0587 197.774 30.404C197.447 30.7493 197.228 31.2067 197.116 31.776C197.013 32.336 196.962 33.022 196.962 33.834C196.962 34.674 197.013 35.3787 197.116 35.948C197.228 36.5173 197.447 36.9747 197.774 37.32C198.11 37.6653 198.595 37.838 199.23 37.838C199.855 37.838 200.331 37.6653 200.658 37.32C200.994 36.9747 201.213 36.5173 201.316 35.948C201.428 35.3787 201.484 34.674 201.484 33.834ZM215.24 32.098C215.24 32.91 214.96 33.5867 214.4 34.128C213.849 34.66 213.004 34.926 211.866 34.926H209.99V39H208.716V29.242H211.866C212.967 29.242 213.802 29.508 214.372 30.04C214.95 30.572 215.24 31.258 215.24 32.098ZM211.866 33.876C212.575 33.876 213.098 33.722 213.434 33.414C213.77 33.106 213.938 32.6673 213.938 32.098C213.938 30.894 213.247 30.292 211.866 30.292H209.99V33.876H211.866ZM226.861 29.312V39H225.587V31.776L222.367 39H221.471L218.237 31.762V39H216.963V29.312H218.335L221.919 37.32L225.503 29.312H226.861Z" fill="#A7A7A7"/>
<path d="M333.714 37.978C334.899 37.026 335.828 36.2467 336.5 35.64C337.172 35.024 337.737 34.3847 338.194 33.722C338.661 33.05 338.894 32.392 338.894 31.748C338.894 31.1413 338.745 30.6653 338.446 30.32C338.157 29.9653 337.685 29.788 337.032 29.788C336.397 29.788 335.903 29.9887 335.548 30.39C335.203 30.782 335.016 31.3093 334.988 31.972H333.756C333.793 30.9267 334.111 30.1193 334.708 29.55C335.305 28.9807 336.075 28.696 337.018 28.696C337.979 28.696 338.74 28.962 339.3 29.494C339.869 30.026 340.154 30.7587 340.154 31.692C340.154 32.4667 339.921 33.2227 339.454 33.96C338.997 34.688 338.474 35.332 337.886 35.892C337.298 36.4427 336.547 37.0867 335.632 37.824H340.448V38.888H333.714V37.978ZM352.667 32.098C352.667 32.91 352.387 33.5867 351.827 34.128C351.276 34.66 350.432 34.926 349.293 34.926H347.417V39H346.143V29.242H349.293C350.394 29.242 351.23 29.508 351.799 30.04C352.378 30.572 352.667 31.258 352.667 32.098ZM349.293 33.876C350.002 33.876 350.525 33.722 350.861 33.414C351.197 33.106 351.365 32.6673 351.365 32.098C351.365 30.894 350.674 30.292 349.293 30.292H347.417V33.876H349.293ZM361.391 34.87C361.391 35.1127 361.377 35.3693 361.349 35.64H355.217C355.263 36.396 355.52 36.9887 355.987 37.418C356.463 37.838 357.037 38.048 357.709 38.048C358.259 38.048 358.717 37.922 359.081 37.67C359.454 37.4087 359.715 37.0633 359.865 36.634H361.237C361.031 37.3713 360.621 37.9733 360.005 38.44C359.389 38.8973 358.623 39.126 357.709 39.126C356.981 39.126 356.327 38.9627 355.749 38.636C355.179 38.3093 354.731 37.8473 354.405 37.25C354.078 36.6433 353.915 35.9433 353.915 35.15C353.915 34.3567 354.073 33.6613 354.391 33.064C354.708 32.4667 355.151 32.0093 355.721 31.692C356.299 31.3653 356.962 31.202 357.709 31.202C358.437 31.202 359.081 31.3607 359.641 31.678C360.201 31.9953 360.63 32.434 360.929 32.994C361.237 33.5447 361.391 34.17 361.391 34.87ZM360.075 34.604C360.075 34.1187 359.967 33.7033 359.753 33.358C359.538 33.0033 359.244 32.7373 358.871 32.56C358.507 32.3733 358.101 32.28 357.653 32.28C357.009 32.28 356.458 32.4853 356.001 32.896C355.553 33.3067 355.296 33.876 355.231 34.604H360.075ZM366.558 39.126C365.84 39.126 365.186 38.9627 364.598 38.636C364.02 38.3093 363.562 37.8473 363.226 37.25C362.9 36.6433 362.736 35.9433 362.736 35.15C362.736 34.366 362.904 33.6753 363.24 33.078C363.586 32.4713 364.052 32.0093 364.64 31.692C365.228 31.3653 365.886 31.202 366.614 31.202C367.342 31.202 368 31.3653 368.588 31.692C369.176 32.0093 369.638 32.4667 369.974 33.064C370.32 33.6613 370.492 34.3567 370.492 35.15C370.492 35.9433 370.315 36.6433 369.96 37.25C369.615 37.8473 369.144 38.3093 368.546 38.636C367.949 38.9627 367.286 39.126 366.558 39.126ZM366.558 38.006C367.016 38.006 367.445 37.8987 367.846 37.684C368.248 37.4693 368.57 37.1473 368.812 36.718C369.064 36.2887 369.19 35.766 369.19 35.15C369.19 34.534 369.069 34.0113 368.826 33.582C368.584 33.1527 368.266 32.8353 367.874 32.63C367.482 32.4153 367.058 32.308 366.6 32.308C366.134 32.308 365.704 32.4153 365.312 32.63C364.93 32.8353 364.622 33.1527 364.388 33.582C364.155 34.0113 364.038 34.534 364.038 35.15C364.038 35.7753 364.15 36.3027 364.374 36.732C364.608 37.1613 364.916 37.4833 365.298 37.698C365.681 37.9033 366.101 38.006 366.558 38.006ZM373.581 32.742C373.833 32.3033 374.207 31.9393 374.701 31.65C375.205 31.3513 375.789 31.202 376.451 31.202C377.133 31.202 377.749 31.3653 378.299 31.692C378.859 32.0187 379.298 32.4807 379.615 33.078C379.933 33.666 380.091 34.352 380.091 35.136C380.091 35.9107 379.933 36.6013 379.615 37.208C379.298 37.8147 378.859 38.286 378.299 38.622C377.749 38.958 377.133 39.126 376.451 39.126C375.798 39.126 375.219 38.9813 374.715 38.692C374.221 38.3933 373.843 38.0247 373.581 37.586V42.64H372.307V31.328H373.581V32.742ZM378.789 35.136C378.789 34.5573 378.673 34.0533 378.439 33.624C378.206 33.1947 377.889 32.868 377.487 32.644C377.095 32.42 376.661 32.308 376.185 32.308C375.719 32.308 375.285 32.4247 374.883 32.658C374.491 32.882 374.174 33.2133 373.931 33.652C373.698 34.0813 373.581 34.5807 373.581 35.15C373.581 35.7287 373.698 36.2373 373.931 36.676C374.174 37.1053 374.491 37.4367 374.883 37.67C375.285 37.894 375.719 38.006 376.185 38.006C376.661 38.006 377.095 37.894 377.487 37.67C377.889 37.4367 378.206 37.1053 378.439 36.676C378.673 36.2373 378.789 35.724 378.789 35.136ZM383.182 28.64V39H381.908V28.64H383.182ZM392.494 34.87C392.494 35.1127 392.48 35.3693 392.452 35.64H386.32C386.366 36.396 386.623 36.9887 387.09 37.418C387.566 37.838 388.14 38.048 388.812 38.048C389.362 38.048 389.82 37.922 390.184 37.67C390.557 37.4087 390.818 37.0633 390.968 36.634H392.34C392.134 37.3713 391.724 37.9733 391.108 38.44C390.492 38.8973 389.726 39.126 388.812 39.126C388.084 39.126 387.43 38.9627 386.852 38.636C386.282 38.3093 385.834 37.8473 385.508 37.25C385.181 36.6433 385.018 35.9433 385.018 35.15C385.018 34.3567 385.176 33.6613 385.494 33.064C385.811 32.4667 386.254 32.0093 386.824 31.692C387.402 31.3653 388.065 31.202 388.812 31.202C389.54 31.202 390.184 31.3607 390.744 31.678C391.304 31.9953 391.733 32.434 392.032 32.994C392.34 33.5447 392.494 34.17 392.494 34.87ZM391.178 34.604C391.178 34.1187 391.07 33.7033 390.856 33.358C390.641 33.0033 390.347 32.7373 389.974 32.56C389.61 32.3733 389.204 32.28 388.756 32.28C388.112 32.28 387.561 32.4853 387.104 32.896C386.656 33.3067 386.399 33.876 386.334 34.604H391.178Z" fill="#A7A7A7"/>
<path d="M403.657 13.3137L409.314 7.65686H398L403.657 13.3137Z" fill="#35CD8C"/>
<path d="M233.657 14.3137L239.314 8.65686H228L233.657 14.3137Z" fill="#35CD8C"/>
<path d="M57.6569 14.3137L63.3137 8.65686H52L57.6569 14.3137Z" fill="#35CD8C"/>
</svg>
