<svg width="671" height="99" viewBox="0 0 671 99" fill="none" xmlns="http://www.w3.org/2000/svg">
<g filter="url(#filter0_d_19_315)">
<mask id="mask0_19_315" style="mask-type:alpha" maskUnits="userSpaceOnUse" x="2" y="-3" width="674" height="93">
<path d="M48.0461 0.898926C24.3401 0.898926 5.12268 20.1164 5.12268 43.8223C5.12268 67.5282 24.3401 86.7457 48.0461 86.7457H629.226C652.932 86.7457 672.149 67.5282 672.149 43.8223C672.149 20.1164 652.932 0.898926 629.226 0.898926H48.0461Z" fill="white" stroke="#656565" stroke-width="6"/>
</mask>
<g mask="url(#mask0_19_315)">
<rect x="8.12268" y="3.89893" width="654.482" height="81.1558" rx="40.5779" fill="white"/>
<path d="M574.904 43.8219C574.904 25.3875 589.848 10.4434 608.283 10.4434C626.717 10.4434 641.661 25.3875 641.661 43.8219C641.661 62.2564 626.717 77.2005 608.283 77.2005C589.848 77.2005 574.904 62.2564 574.904 43.8219Z" fill="#35CD8C"/>
<path d="M43.9178 48.0371C43.2278 48.0371 42.6178 47.9171 42.0878 47.6771C41.5678 47.4371 41.1578 47.1021 40.8578 46.6721C40.5578 46.2421 40.3978 45.7621 40.3778 45.2321H41.4878C41.5378 45.7421 41.7628 46.1921 42.1628 46.5821C42.5628 46.9621 43.1478 47.1521 43.9178 47.1521C44.6278 47.1521 45.1878 46.9721 45.5978 46.6121C46.0178 46.2421 46.2278 45.7771 46.2278 45.2171C46.2278 44.7671 46.1128 44.4071 45.8828 44.1371C45.6528 43.8571 45.3678 43.6521 45.0278 43.5221C44.6878 43.3821 44.2178 43.2321 43.6178 43.0721C42.9178 42.8821 42.3628 42.6971 41.9528 42.5171C41.5428 42.3371 41.1928 42.0571 40.9028 41.6771C40.6128 41.2971 40.4678 40.7821 40.4678 40.1321C40.4678 39.5921 40.6078 39.1121 40.8878 38.6921C41.1678 38.2621 41.5628 37.9271 42.0728 37.6871C42.5828 37.4471 43.1678 37.3271 43.8278 37.3271C44.7978 37.3271 45.5778 37.5671 46.1678 38.0471C46.7678 38.5171 47.1128 39.1271 47.2028 39.8771H46.0628C45.9928 39.4471 45.7578 39.0671 45.3578 38.7371C44.9578 38.3971 44.4178 38.2271 43.7378 38.2271C43.1078 38.2271 42.5828 38.3971 42.1628 38.7371C41.7428 39.0671 41.5328 39.5221 41.5328 40.1021C41.5328 40.5421 41.6478 40.8971 41.8778 41.1671C42.1078 41.4371 42.3928 41.6421 42.7328 41.7821C43.0828 41.9221 43.5528 42.0721 44.1428 42.2321C44.8228 42.4221 45.3728 42.6121 45.7928 42.8021C46.2128 42.9821 46.5678 43.2621 46.8578 43.6421C47.1478 44.0221 47.2928 44.5321 47.2928 45.1721C47.2928 45.6621 47.1628 46.1271 46.9028 46.5671C46.6428 47.0071 46.2578 47.3621 45.7478 47.6321C45.2378 47.9021 44.6278 48.0371 43.9178 48.0371ZM56.8818 43.4171C56.8818 43.7771 56.8718 44.0521 56.8518 44.2421H50.0568C50.0868 44.8621 50.2368 45.3921 50.5068 45.8321C50.7768 46.2721 51.1318 46.6071 51.5718 46.8371C52.0118 47.0571 52.4918 47.1671 53.0118 47.1671C53.6918 47.1671 54.2618 47.0021 54.7218 46.6721C55.1918 46.3421 55.5018 45.8971 55.6518 45.3371H56.7618C56.5618 46.1371 56.1318 46.7921 55.4718 47.3021C54.8218 47.8021 54.0018 48.0521 53.0118 48.0521C52.2418 48.0521 51.5518 47.8821 50.9418 47.5421C50.3318 47.1921 49.8518 46.7021 49.5018 46.0721C49.1618 45.4321 48.9918 44.6871 48.9918 43.8371C48.9918 42.9871 49.1618 42.2421 49.5018 41.6021C49.8418 40.9621 50.3168 40.4721 50.9268 40.1321C51.5368 39.7921 52.2318 39.6221 53.0118 39.6221C53.7918 39.6221 54.4718 39.7921 55.0518 40.1321C55.6418 40.4721 56.0918 40.9321 56.4018 41.5121C56.7218 42.0821 56.8818 42.7171 56.8818 43.4171ZM55.8168 43.3871C55.8268 42.7771 55.7018 42.2571 55.4418 41.8271C55.1918 41.3971 54.8468 41.0721 54.4068 40.8521C53.9668 40.6321 53.4868 40.5221 52.9668 40.5221C52.1868 40.5221 51.5218 40.7721 50.9718 41.2721C50.4218 41.7721 50.1168 42.4771 50.0568 43.3871H55.8168ZM58.4729 43.8221C58.4729 42.9821 58.6379 42.2471 58.9679 41.6171C59.3079 40.9771 59.7729 40.4871 60.3629 40.1471C60.9629 39.7971 61.6379 39.6221 62.3879 39.6221C63.1679 39.6221 63.8379 39.8021 64.3979 40.1621C64.9679 40.5221 65.3779 40.9821 65.6279 41.5421V39.7421H66.6779V47.9321H65.6279V46.1171C65.3679 46.6771 64.9529 47.1421 64.3829 47.5121C63.8229 47.8721 63.1529 48.0521 62.3729 48.0521C61.6329 48.0521 60.9629 47.8771 60.3629 47.5271C59.7729 47.1771 59.3079 46.6821 58.9679 46.0421C58.6379 45.4021 58.4729 44.6621 58.4729 43.8221ZM65.6279 43.8371C65.6279 43.1771 65.4929 42.5971 65.2229 42.0971C64.9529 41.5971 64.5829 41.2121 64.1129 40.9421C63.6529 40.6721 63.1429 40.5371 62.5829 40.5371C62.0029 40.5371 61.4829 40.6671 61.0229 40.9271C60.5629 41.1871 60.1979 41.5671 59.9279 42.0671C59.6679 42.5571 59.5379 43.1421 59.5379 43.8221C59.5379 44.4921 59.6679 45.0821 59.9279 45.5921C60.1979 46.0921 60.5629 46.4771 61.0229 46.7471C61.4829 47.0071 62.0029 47.1371 62.5829 47.1371C63.1429 47.1371 63.6529 47.0021 64.1129 46.7321C64.5829 46.4621 64.9529 46.0771 65.2229 45.5771C65.4929 45.0771 65.6279 44.4971 65.6279 43.8371ZM70.275 41.1971C70.505 40.6871 70.855 40.2921 71.325 40.0121C71.805 39.7321 72.39 39.5921 73.08 39.5921V40.6871H72.795C72.035 40.6871 71.425 40.8921 70.965 41.3021C70.505 41.7121 70.275 42.3971 70.275 43.3571V47.9321H69.225V39.7421H70.275V41.1971ZM74.3295 43.8371C74.3295 42.9871 74.4995 42.2471 74.8395 41.6171C75.1795 40.9771 75.6495 40.4871 76.2495 40.1471C76.8495 39.7971 77.5345 39.6221 78.3045 39.6221C79.3145 39.6221 80.1445 39.8721 80.7945 40.3721C81.4545 40.8721 81.8795 41.5521 82.0695 42.4121H80.9445C80.8045 41.8221 80.4995 41.3621 80.0295 41.0321C79.5695 40.6921 78.9945 40.5221 78.3045 40.5221C77.7545 40.5221 77.2595 40.6471 76.8195 40.8971C76.3795 41.1471 76.0295 41.5221 75.7695 42.0221C75.5195 42.5121 75.3945 43.1171 75.3945 43.8371C75.3945 44.5571 75.5195 45.1671 75.7695 45.6671C76.0295 46.1671 76.3795 46.5421 76.8195 46.7921C77.2595 47.0421 77.7545 47.1671 78.3045 47.1671C78.9945 47.1671 79.5695 47.0021 80.0295 46.6721C80.4995 46.3321 80.8045 45.8621 80.9445 45.2621H82.0695C81.8795 46.1021 81.4545 46.7771 80.7945 47.2871C80.1345 47.7971 79.3045 48.0521 78.3045 48.0521C77.5345 48.0521 76.8495 47.8821 76.2495 47.5421C75.6495 47.1921 75.1795 46.7021 74.8395 46.0721C74.4995 45.4321 74.3295 44.6871 74.3295 43.8371ZM88.0587 39.5921C88.6787 39.5921 89.2337 39.7221 89.7237 39.9821C90.2237 40.2421 90.6137 40.6421 90.8937 41.1821C91.1837 41.7121 91.3287 42.3621 91.3287 43.1321V47.9321H90.2937V43.2521C90.2937 42.3621 90.0687 41.6821 89.6187 41.2121C89.1787 40.7421 88.5737 40.5071 87.8037 40.5071C87.0137 40.5071 86.3837 40.7571 85.9137 41.2571C85.4437 41.7571 85.2087 42.4921 85.2087 43.4621V47.9321H84.1587V36.8321H85.2087V41.1371C85.4687 40.6471 85.8487 40.2671 86.3487 39.9971C86.8587 39.7271 87.4287 39.5921 88.0587 39.5921Z" fill="#9B9995"/>
</g>
<path d="M593.229 44.4773H619.954L608.501 33.0239L609.949 31.3877L624.13 45.5681L609.949 59.7486L608.501 58.1124L619.954 46.6589H593.229V44.4773Z" fill="white"/>
</g>
<defs>
<filter id="filter0_d_19_315" x="0.122681" y="0.898926" width="670.482" height="97.1558" filterUnits="userSpaceOnUse" color-interpolation-filters="sRGB">
<feFlood flood-opacity="0" result="BackgroundImageFix"/>
<feColorMatrix in="SourceAlpha" type="matrix" values="0 0 0 0 0 0 0 0 0 0 0 0 0 0 0 0 0 0 127 0" result="hardAlpha"/>
<feOffset dy="5"/>
<feGaussianBlur stdDeviation="4"/>
<feComposite in2="hardAlpha" operator="out"/>
<feColorMatrix type="matrix" values="0 0 0 0 0 0 0 0 0 0 0 0 0 0 0 0 0 0 0.25 0"/>
<feBlend mode="normal" in2="BackgroundImageFix" result="effect1_dropShadow_19_315"/>
<feBlend mode="normal" in="SourceGraphic" in2="effect1_dropShadow_19_315" result="shape"/>
</filter>
</defs>
</svg>
