<svg width="513" height="84" viewBox="0 0 513 84" fill="none" xmlns="http://www.w3.org/2000/svg">
<g filter="url(#filter0_d_3_375)">
<mask id="mask0_3_375" style="mask-type:alpha" maskUnits="userSpaceOnUse" x="2" y="3" width="503" height="73">
<path d="M8 6H5V9V70V73H8H499H502V70V9V6H499H8Z" fill="white" stroke="#656565" stroke-width="6"/>
</mask>
<g mask="url(#mask0_3_375)">
<rect x="8" y="-4" width="392" height="75" fill="white"/>
<path d="M389 10H516V71H389V10Z" fill="#35CD8C"/>
<path d="M437.2 35.48C436.56 34.3067 435.68 33.4133 434.56 32.8C433.44 32.1867 432.133 31.88 430.64 31.88C428.987 31.88 427.52 32.2533 426.24 33C424.96 33.7467 423.96 34.8133 423.24 36.2C422.52 37.5867 422.16 39.1867 422.16 41C422.16 42.8667 422.52 44.4933 423.24 45.88C423.987 47.2667 425.013 48.3333 426.32 49.08C427.627 49.8267 429.147 50.2 430.88 50.2C433.013 50.2 434.76 49.64 436.12 48.52C437.48 47.3733 438.373 45.7867 438.8 43.76H429.2V39.48H444.32V44.36C443.947 46.3067 443.147 48.1067 441.92 49.76C440.693 51.4133 439.107 52.7467 437.16 53.76C435.24 54.7467 433.08 55.24 430.68 55.24C427.987 55.24 425.547 54.64 423.36 53.44C421.2 52.2133 419.493 50.52 418.24 48.36C417.013 46.2 416.4 43.7467 416.4 41C416.4 38.2533 417.013 35.8 418.24 33.64C419.493 31.4533 421.2 29.76 423.36 28.56C425.547 27.3333 427.973 26.72 430.64 26.72C433.787 26.72 436.52 27.4933 438.84 29.04C441.16 30.56 442.76 32.7067 443.64 35.48H437.2ZM461.823 55.28C459.21 55.28 456.81 54.6667 454.623 53.44C452.436 52.2133 450.703 50.52 449.423 48.36C448.143 46.1733 447.503 43.7067 447.503 40.96C447.503 38.24 448.143 35.8 449.423 33.64C450.703 31.4533 452.436 29.7467 454.623 28.52C456.81 27.2933 459.21 26.68 461.823 26.68C464.463 26.68 466.863 27.2933 469.023 28.52C471.21 29.7467 472.93 31.4533 474.183 33.64C475.463 35.8 476.103 38.24 476.103 40.96C476.103 43.7067 475.463 46.1733 474.183 48.36C472.93 50.52 471.21 52.2133 469.023 53.44C466.836 54.6667 464.436 55.28 461.823 55.28ZM461.823 50.28C463.503 50.28 464.983 49.9067 466.263 49.16C467.543 48.3867 468.543 47.2933 469.263 45.88C469.983 44.4667 470.343 42.8267 470.343 40.96C470.343 39.0933 469.983 37.4667 469.263 36.08C468.543 34.6667 467.543 33.5867 466.263 32.84C464.983 32.0933 463.503 31.72 461.823 31.72C460.143 31.72 458.65 32.0933 457.343 32.84C456.063 33.5867 455.063 34.6667 454.343 36.08C453.623 37.4667 453.263 39.0933 453.263 40.96C453.263 42.8267 453.623 44.4667 454.343 45.88C455.063 47.2933 456.063 48.3867 457.343 49.16C458.65 49.9067 460.143 50.28 461.823 50.28Z" fill="white"/>
<path d="M36.38 45.105C35.69 45.105 35.08 44.985 34.55 44.745C34.03 44.505 33.62 44.17 33.32 43.74C33.02 43.31 32.86 42.83 32.84 42.3H33.95C34 42.81 34.225 43.26 34.625 43.65C35.025 44.03 35.61 44.22 36.38 44.22C37.09 44.22 37.65 44.04 38.06 43.68C38.48 43.31 38.69 42.845 38.69 42.285C38.69 41.835 38.575 41.475 38.345 41.205C38.115 40.925 37.83 40.72 37.49 40.59C37.15 40.45 36.68 40.3 36.08 40.14C35.38 39.95 34.825 39.765 34.415 39.585C34.005 39.405 33.655 39.125 33.365 38.745C33.075 38.365 32.93 37.85 32.93 37.2C32.93 36.66 33.07 36.18 33.35 35.76C33.63 35.33 34.025 34.995 34.535 34.755C35.045 34.515 35.63 34.395 36.29 34.395C37.26 34.395 38.04 34.635 38.63 35.115C39.23 35.585 39.575 36.195 39.665 36.945H38.525C38.455 36.515 38.22 36.135 37.82 35.805C37.42 35.465 36.88 35.295 36.2 35.295C35.57 35.295 35.045 35.465 34.625 35.805C34.205 36.135 33.995 36.59 33.995 37.17C33.995 37.61 34.11 37.965 34.34 38.235C34.57 38.505 34.855 38.71 35.195 38.85C35.545 38.99 36.015 39.14 36.605 39.3C37.285 39.49 37.835 39.68 38.255 39.87C38.675 40.05 39.03 40.33 39.32 40.71C39.61 41.09 39.755 41.6 39.755 42.24C39.755 42.73 39.625 43.195 39.365 43.635C39.105 44.075 38.72 44.43 38.21 44.7C37.7 44.97 37.09 45.105 36.38 45.105ZM49.344 40.485C49.344 40.845 49.334 41.12 49.314 41.31H42.519C42.549 41.93 42.699 42.46 42.969 42.9C43.239 43.34 43.594 43.675 44.034 43.905C44.474 44.125 44.954 44.235 45.474 44.235C46.154 44.235 46.724 44.07 47.184 43.74C47.654 43.41 47.964 42.965 48.114 42.405H49.224C49.024 43.205 48.594 43.86 47.934 44.37C47.284 44.87 46.464 45.12 45.474 45.12C44.704 45.12 44.014 44.95 43.404 44.61C42.794 44.26 42.314 43.77 41.964 43.14C41.624 42.5 41.454 41.755 41.454 40.905C41.454 40.055 41.624 39.31 41.964 38.67C42.304 38.03 42.779 37.54 43.389 37.2C43.999 36.86 44.694 36.69 45.474 36.69C46.254 36.69 46.934 36.86 47.514 37.2C48.104 37.54 48.554 38 48.864 38.58C49.184 39.15 49.344 39.785 49.344 40.485ZM48.279 40.455C48.289 39.845 48.164 39.325 47.904 38.895C47.654 38.465 47.309 38.14 46.869 37.92C46.429 37.7 45.949 37.59 45.429 37.59C44.649 37.59 43.984 37.84 43.434 38.34C42.884 38.84 42.579 39.545 42.519 40.455H48.279ZM50.935 40.89C50.935 40.05 51.1 39.315 51.43 38.685C51.77 38.045 52.235 37.555 52.825 37.215C53.425 36.865 54.1 36.69 54.85 36.69C55.63 36.69 56.3 36.87 56.86 37.23C57.43 37.59 57.84 38.05 58.09 38.61V36.81H59.14V45H58.09V43.185C57.83 43.745 57.415 44.21 56.845 44.58C56.285 44.94 55.615 45.12 54.835 45.12C54.095 45.12 53.425 44.945 52.825 44.595C52.235 44.245 51.77 43.75 51.43 43.11C51.1 42.47 50.935 41.73 50.935 40.89ZM58.09 40.905C58.09 40.245 57.955 39.665 57.685 39.165C57.415 38.665 57.045 38.28 56.575 38.01C56.115 37.74 55.605 37.605 55.045 37.605C54.465 37.605 53.945 37.735 53.485 37.995C53.025 38.255 52.66 38.635 52.39 39.135C52.13 39.625 52 40.21 52 40.89C52 41.56 52.13 42.15 52.39 42.66C52.66 43.16 53.025 43.545 53.485 43.815C53.945 44.075 54.465 44.205 55.045 44.205C55.605 44.205 56.115 44.07 56.575 43.8C57.045 43.53 57.415 43.145 57.685 42.645C57.955 42.145 58.09 41.565 58.09 40.905ZM62.7371 38.265C62.9671 37.755 63.3171 37.36 63.7871 37.08C64.2671 36.8 64.8521 36.66 65.5421 36.66V37.755H65.2571C64.4971 37.755 63.8871 37.96 63.4271 38.37C62.9671 38.78 62.7371 39.465 62.7371 40.425V45H61.6871V36.81H62.7371V38.265ZM66.7917 40.905C66.7917 40.055 66.9617 39.315 67.3017 38.685C67.6417 38.045 68.1117 37.555 68.7117 37.215C69.3117 36.865 69.9967 36.69 70.7667 36.69C71.7767 36.69 72.6067 36.94 73.2567 37.44C73.9167 37.94 74.3417 38.62 74.5317 39.48H73.4067C73.2667 38.89 72.9617 38.43 72.4917 38.1C72.0317 37.76 71.4567 37.59 70.7667 37.59C70.2167 37.59 69.7217 37.715 69.2817 37.965C68.8417 38.215 68.4917 38.59 68.2317 39.09C67.9817 39.58 67.8567 40.185 67.8567 40.905C67.8567 41.625 67.9817 42.235 68.2317 42.735C68.4917 43.235 68.8417 43.61 69.2817 43.86C69.7217 44.11 70.2167 44.235 70.7667 44.235C71.4567 44.235 72.0317 44.07 72.4917 43.74C72.9617 43.4 73.2667 42.93 73.4067 42.33H74.5317C74.3417 43.17 73.9167 43.845 73.2567 44.355C72.5967 44.865 71.7667 45.12 70.7667 45.12C69.9967 45.12 69.3117 44.95 68.7117 44.61C68.1117 44.26 67.6417 43.77 67.3017 43.14C66.9617 42.5 66.7917 41.755 66.7917 40.905ZM80.5209 36.66C81.1409 36.66 81.6959 36.79 82.1859 37.05C82.6859 37.31 83.0759 37.71 83.3559 38.25C83.6459 38.78 83.7909 39.43 83.7909 40.2V45H82.7559V40.32C82.7559 39.43 82.5309 38.75 82.0809 38.28C81.6409 37.81 81.0359 37.575 80.2659 37.575C79.4759 37.575 78.8459 37.825 78.3759 38.325C77.9059 38.825 77.6709 39.56 77.6709 40.53V45H76.6209V33.9H77.6709V38.205C77.9309 37.715 78.3109 37.335 78.8109 37.065C79.3209 36.795 79.8909 36.66 80.5209 36.66Z" fill="#9B9995"/>
</g>
</g>
<defs>
<filter id="filter0_d_3_375" x="0" y="0" width="513" height="84" filterUnits="userSpaceOnUse" color-interpolation-filters="sRGB">
<feFlood flood-opacity="0" result="BackgroundImageFix"/>
<feColorMatrix in="SourceAlpha" type="matrix" values="0 0 0 0 0 0 0 0 0 0 0 0 0 0 0 0 0 0 127 0" result="hardAlpha"/>
<feOffset dy="5"/>
<feGaussianBlur stdDeviation="4"/>
<feComposite in2="hardAlpha" operator="out"/>
<feColorMatrix type="matrix" values="0 0 0 0 0 0 0 0 0 0 0 0 0 0 0 0 0 0 0.25 0"/>
<feBlend mode="normal" in2="BackgroundImageFix" result="effect1_dropShadow_3_375"/>
<feBlend mode="normal" in="SourceGraphic" in2="effect1_dropShadow_3_375" result="shape"/>
</filter>
</defs>
</svg>
