<svg width="109" height="67" viewBox="0 0 109 67" fill="none" xmlns="http://www.w3.org/2000/svg">
<circle cx="81" cy="20" r="20" fill="#35CD8C"/>
<line x1="82.5" y1="21.5" x2="1.5" y2="21.5" stroke="#36CD8C" stroke-width="3" stroke-linecap="round"/>
<path d="M76.2721 7.27208L89 20L76.2721 32.7279" stroke="white" stroke-width="3" stroke-linecap="round" stroke-linejoin="round"/>
<path d="M55.504 59.084C54.952 59.084 54.464 58.988 54.04 58.796C53.624 58.604 53.296 58.336 53.056 57.992C52.816 57.648 52.688 57.264 52.672 56.84H53.56C53.6 57.248 53.78 57.608 54.1 57.92C54.42 58.224 54.888 58.376 55.504 58.376C56.072 58.376 56.52 58.232 56.848 57.944C57.184 57.648 57.352 57.276 57.352 56.828C57.352 56.468 57.26 56.18 57.076 55.964C56.892 55.74 56.664 55.576 56.392 55.472C56.12 55.36 55.744 55.24 55.264 55.112C54.704 54.96 54.26 54.812 53.932 54.668C53.604 54.524 53.324 54.3 53.092 53.996C52.86 53.692 52.744 53.28 52.744 52.76C52.744 52.328 52.856 51.944 53.08 51.608C53.304 51.264 53.62 50.996 54.028 50.804C54.436 50.612 54.904 50.516 55.432 50.516C56.208 50.516 56.832 50.708 57.304 51.092C57.784 51.468 58.06 51.956 58.132 52.556H57.22C57.164 52.212 56.976 51.908 56.656 51.644C56.336 51.372 55.904 51.236 55.36 51.236C54.856 51.236 54.436 51.372 54.1 51.644C53.764 51.908 53.596 52.272 53.596 52.736C53.596 53.088 53.688 53.372 53.872 53.588C54.056 53.804 54.284 53.968 54.556 54.08C54.836 54.192 55.212 54.312 55.684 54.44C56.228 54.592 56.668 54.744 57.004 54.896C57.34 55.04 57.624 55.264 57.856 55.568C58.088 55.872 58.204 56.28 58.204 56.792C58.204 57.184 58.1 57.556 57.892 57.908C57.684 58.26 57.376 58.544 56.968 58.76C56.56 58.976 56.072 59.084 55.504 59.084ZM65.8752 55.388C65.8752 55.676 65.8672 55.896 65.8512 56.048H60.4152C60.4392 56.544 60.5592 56.968 60.7752 57.32C60.9912 57.672 61.2752 57.94 61.6272 58.124C61.9792 58.3 62.3632 58.388 62.7792 58.388C63.3232 58.388 63.7792 58.256 64.1472 57.992C64.5232 57.728 64.7712 57.372 64.8912 56.924H65.7792C65.6192 57.564 65.2752 58.088 64.7472 58.496C64.2272 58.896 63.5712 59.096 62.7792 59.096C62.1632 59.096 61.6112 58.96 61.1232 58.688C60.6352 58.408 60.2512 58.016 59.9712 57.512C59.6992 57 59.5632 56.404 59.5632 55.724C59.5632 55.044 59.6992 54.448 59.9712 53.936C60.2432 53.424 60.6232 53.032 61.1112 52.76C61.5992 52.488 62.1552 52.352 62.7792 52.352C63.4032 52.352 63.9472 52.488 64.4112 52.76C64.8832 53.032 65.2432 53.4 65.4912 53.864C65.7472 54.32 65.8752 54.828 65.8752 55.388ZM65.0232 55.364C65.0312 54.876 64.9312 54.46 64.7232 54.116C64.5232 53.772 64.2472 53.512 63.8952 53.336C63.5432 53.16 63.1592 53.072 62.7432 53.072C62.1192 53.072 61.5872 53.272 61.1472 53.672C60.7072 54.072 60.4632 54.636 60.4152 55.364H65.0232ZM73.46 55.388C73.46 55.676 73.452 55.896 73.436 56.048H68C68.024 56.544 68.144 56.968 68.36 57.32C68.576 57.672 68.86 57.94 69.212 58.124C69.564 58.3 69.948 58.388 70.364 58.388C70.908 58.388 71.364 58.256 71.732 57.992C72.108 57.728 72.356 57.372 72.476 56.924H73.364C73.204 57.564 72.86 58.088 72.332 58.496C71.812 58.896 71.156 59.096 70.364 59.096C69.748 59.096 69.196 58.96 68.708 58.688C68.22 58.408 67.836 58.016 67.556 57.512C67.284 57 67.148 56.404 67.148 55.724C67.148 55.044 67.284 54.448 67.556 53.936C67.828 53.424 68.208 53.032 68.696 52.76C69.184 52.488 69.74 52.352 70.364 52.352C70.988 52.352 71.532 52.488 71.996 52.76C72.468 53.032 72.828 53.4 73.076 53.864C73.332 54.32 73.46 54.828 73.46 55.388ZM72.608 55.364C72.616 54.876 72.516 54.46 72.308 54.116C72.108 53.772 71.832 53.512 71.48 53.336C71.128 53.16 70.744 53.072 70.328 53.072C69.704 53.072 69.172 53.272 68.732 53.672C68.292 54.072 68.048 54.636 68 55.364H72.608ZM86.7258 50.72V59H85.8858V52.388L82.9338 59H82.3218L79.3698 52.412V59H78.5298V50.72H79.4178L82.6218 57.896L85.8258 50.72H86.7258ZM91.6194 59.096C91.0034 59.096 90.4474 58.96 89.9514 58.688C89.4634 58.408 89.0754 58.016 88.7874 57.512C88.5074 57 88.3674 56.404 88.3674 55.724C88.3674 55.044 88.5114 54.452 88.7994 53.948C89.0874 53.436 89.4794 53.044 89.9754 52.772C90.4714 52.492 91.0274 52.352 91.6434 52.352C92.2594 52.352 92.8154 52.492 93.3114 52.772C93.8154 53.044 94.2074 53.436 94.4874 53.948C94.7754 54.452 94.9194 55.044 94.9194 55.724C94.9194 56.396 94.7754 56.988 94.4874 57.5C94.1994 58.012 93.8034 58.408 93.2994 58.688C92.7954 58.96 92.2354 59.096 91.6194 59.096ZM91.6194 58.364C92.0514 58.364 92.4514 58.268 92.8194 58.076C93.1874 57.876 93.4834 57.58 93.7074 57.188C93.9394 56.788 94.0554 56.3 94.0554 55.724C94.0554 55.148 93.9434 54.664 93.7194 54.272C93.4954 53.872 93.1994 53.576 92.8314 53.384C92.4634 53.184 92.0634 53.084 91.6314 53.084C91.1994 53.084 90.7994 53.184 90.4314 53.384C90.0634 53.576 89.7674 53.872 89.5434 54.272C89.3274 54.664 89.2194 55.148 89.2194 55.724C89.2194 56.3 89.3274 56.788 89.5434 57.188C89.7674 57.58 90.0594 57.876 90.4194 58.076C90.7874 58.268 91.1874 58.364 91.6194 58.364ZM97.4106 53.612C97.5946 53.204 97.8746 52.888 98.2506 52.664C98.6346 52.44 99.1026 52.328 99.6546 52.328V53.204H99.4266C98.8186 53.204 98.3306 53.368 97.9626 53.696C97.5946 54.024 97.4106 54.572 97.4106 55.34V59H96.5706V52.448H97.4106V53.612ZM106.966 55.388C106.966 55.676 106.958 55.896 106.942 56.048H101.506C101.53 56.544 101.65 56.968 101.866 57.32C102.082 57.672 102.366 57.94 102.718 58.124C103.07 58.3 103.454 58.388 103.87 58.388C104.414 58.388 104.87 58.256 105.238 57.992C105.614 57.728 105.862 57.372 105.982 56.924H106.87C106.71 57.564 106.366 58.088 105.838 58.496C105.318 58.896 104.662 59.096 103.87 59.096C103.254 59.096 102.702 58.96 102.214 58.688C101.726 58.408 101.342 58.016 101.062 57.512C100.79 57 100.654 56.404 100.654 55.724C100.654 55.044 100.79 54.448 101.062 53.936C101.334 53.424 101.714 53.032 102.202 52.76C102.69 52.488 103.246 52.352 103.87 52.352C104.494 52.352 105.038 52.488 105.502 52.76C105.974 53.032 106.334 53.4 106.582 53.864C106.838 54.32 106.966 54.828 106.966 55.388ZM106.114 55.364C106.122 54.876 106.022 54.46 105.814 54.116C105.614 53.772 105.338 53.512 104.986 53.336C104.634 53.16 104.25 53.072 103.834 53.072C103.21 53.072 102.678 53.272 102.238 53.672C101.798 54.072 101.554 54.636 101.506 55.364H106.114Z" fill="#35CD8C"/>
</svg>
