<svg width="256" height="75" viewBox="0 0 256 75" fill="none" xmlns="http://www.w3.org/2000/svg">
<path d="M0 9H227.5C243.24 9 256 21.7599 256 37.5C256 53.2401 243.24 66 227.5 66H0V9Z" fill="#35CD8C"/>
<path d="M81.9999 40.418C85.1065 40.418 87.6249 37.8442 87.6249 34.6693C87.6249 31.4944 85.1065 28.9206 81.9999 28.9206C78.8933 28.9206 76.3749 31.4944 76.3749 34.6693C76.3749 37.8442 78.8933 40.418 81.9999 40.418Z" stroke="white" stroke-width="3" stroke-linecap="round" stroke-linejoin="round"/>
<path d="M82 19.3448C78.0218 19.3448 74.2064 20.9596 71.3934 23.8339C68.5804 26.7082 67 30.6067 67 34.6716C67 38.2964 67.7537 40.6682 69.8125 43.2929L82 57.6618L94.1875 43.2929C96.2463 40.6682 97 38.2964 97 34.6716C97 30.6067 95.4196 26.7082 92.6066 23.8339C89.7936 20.9596 85.9782 19.3448 82 19.3448V19.3448Z" stroke="white" stroke-width="3" stroke-linecap="round" stroke-linejoin="round"/>
<path d="M134.86 29.71V45H132.352V38.312H125.158V45H122.65V29.71H125.158V36.266H132.352V29.71H134.86ZM137.766 38.884C137.766 37.6667 138.015 36.5887 138.514 35.65C139.027 34.7113 139.716 33.9853 140.582 33.472C141.462 32.944 142.43 32.68 143.486 32.68C144.439 32.68 145.268 32.8707 145.972 33.252C146.69 33.6187 147.262 34.0807 147.688 34.638V32.878H150.218V45H147.688V43.196C147.262 43.768 146.683 44.2447 145.95 44.626C145.216 45.0073 144.38 45.198 143.442 45.198C142.4 45.198 141.447 44.934 140.582 44.406C139.716 43.8633 139.027 43.1153 138.514 42.162C138.015 41.194 137.766 40.1013 137.766 38.884ZM147.688 38.928C147.688 38.092 147.512 37.366 147.16 36.75C146.822 36.134 146.375 35.6647 145.818 35.342C145.26 35.0193 144.659 34.858 144.014 34.858C143.368 34.858 142.767 35.0193 142.21 35.342C141.652 35.65 141.198 36.112 140.846 36.728C140.508 37.3293 140.34 38.048 140.34 38.884C140.34 39.72 140.508 40.4533 140.846 41.084C141.198 41.7147 141.652 42.1987 142.21 42.536C142.782 42.8587 143.383 43.02 144.014 43.02C144.659 43.02 145.26 42.8587 145.818 42.536C146.375 42.2133 146.822 41.744 147.16 41.128C147.512 40.4973 147.688 39.764 147.688 38.928ZM146.676 30.172V32.02L141.814 29.622V27.488L146.676 30.172ZM172.669 45H170.161L162.615 33.582V45H160.107V29.688H162.615L170.161 41.084V29.688H172.669V45ZM186.874 39.082C186.874 41.0327 186.376 42.5433 185.378 43.614C184.396 44.6847 183.061 45.22 181.374 45.22C180.333 45.22 179.402 44.9853 178.58 44.516C177.774 44.032 177.136 43.3353 176.666 42.426C176.197 41.502 175.962 40.3873 175.962 39.082C175.962 37.1313 176.454 35.628 177.436 34.572C178.419 33.516 179.754 32.988 181.44 32.988C182.511 32.988 183.45 33.23 184.256 33.714C185.078 34.1833 185.716 34.8727 186.17 35.782C186.64 36.6767 186.874 37.7767 186.874 39.082ZM177.964 39.082C177.964 40.4753 178.236 41.5827 178.778 42.404C179.336 43.2107 180.216 43.614 181.418 43.614C182.606 43.614 183.479 43.2107 184.036 42.404C184.594 41.5827 184.872 40.4753 184.872 39.082C184.872 37.6887 184.594 36.596 184.036 35.804C183.479 35.012 182.599 34.616 181.396 34.616C180.194 34.616 179.321 35.012 178.778 35.804C178.236 36.596 177.964 37.6887 177.964 39.082ZM181.352 48.872C181.044 48.872 180.773 48.7693 180.538 48.564C180.318 48.3587 180.208 48.0507 180.208 47.64C180.208 47.2147 180.318 46.8993 180.538 46.694C180.773 46.5033 181.044 46.408 181.352 46.408C181.66 46.408 181.924 46.5033 182.144 46.694C182.379 46.8993 182.496 47.2147 182.496 47.64C182.496 48.0507 182.379 48.3587 182.144 48.564C181.924 48.7693 181.66 48.872 181.352 48.872ZM182.43 28.148C182.606 28.4707 182.856 28.8373 183.178 29.248C183.516 29.644 183.86 30.04 184.212 30.436C184.579 30.8173 184.902 31.1473 185.18 31.426V31.668H183.816C183.435 31.4333 183.039 31.1473 182.628 30.81C182.218 30.458 181.814 30.084 181.418 29.688C181.022 30.084 180.626 30.4507 180.23 30.788C179.834 31.1253 179.446 31.4187 179.064 31.668H177.744V31.426C178.023 31.1327 178.331 30.7953 178.668 30.414C179.02 30.0327 179.358 29.644 179.68 29.248C180.003 28.8373 180.26 28.4707 180.45 28.148H182.43ZM191.438 31.272C190.984 31.272 190.602 31.118 190.294 30.81C189.986 30.502 189.832 30.1207 189.832 29.666C189.832 29.2113 189.986 28.83 190.294 28.522C190.602 28.214 190.984 28.06 191.438 28.06C191.878 28.06 192.252 28.214 192.56 28.522C192.868 28.83 193.022 29.2113 193.022 29.666C193.022 30.1207 192.868 30.502 192.56 30.81C192.252 31.118 191.878 31.272 191.438 31.272ZM192.67 32.878V45H190.162V32.878H192.67Z" fill="white"/>
</svg>
